pirata-regular.sfdir
StartChar: exclam
Encoding: 33 33 77
Width: 183
VWidth: 0
Flags: HW
PickledData: "(dp1
."
LayerCount: 2
Fore
SplineSet
176 156 m 1
 176 174 l 1
 155 178 142 195 142 232 c 2
 142 583 l 2
 142 616 92 640 92 640 c 1
 7 592 l 1
 7 574 l 1
 28 570 42 553 42 516 c 2
 42 165 l 2
 42 132 92 108 92 108 c 1
 176 156 l 1
154 12 m 2
 154 48 136 66 127 66 c 0
 118 66 53 40 53 37 c 2
 53 -23 l 2
 53 -45 73 -67 80 -67 c 0
 86 -67 154 -41 154 -38 c 2
 154 12 l 2
EndSplineSet
EndChar
StartChar: quotedbl
Encoding: 34 34 131
Width: 255
VWidth: 0
Flags: HW
PickledData: "(dp1
."
LayerCount: 2
Fore
SplineSet
29 528 m 2
 32 492 48 475 57 475 c 0
 66 475 97 500 97 503 c 2
 105 598 l 1
 105 620 85 641 78 641 c 0
 72 641 21 616 21 613 c 2
 29 528 l 2
159 528 m 2
 162 492 178 475 187 475 c 0
 196 475 227 500 227 503 c 2
 235 598 l 1
 235 620 215 641 208 641 c 0
 202 641 151 616 151 613 c 2
 159 528 l 2
EndSplineSet
EndChar
StartChar: numbersign
Encoding: 35 35 117
Width: 475
VWidth: 0
Flags: HW
PickledData: "(dp1
."
LayerCount: 2
Fore
SplineSet
-57 177 m 1
 -57 159 l 1
 58 159 l 1
 4 0 l 1
 22 0 l 1
 85 32 l 1
 128 159 l 1
 265 159 l 1
 212 0 l 1
 230 0 l 1
 292 32 l 1
 336 159 l 1
 412 159 l 1
 462 205 l 1
 462 225 l 1
 358 225 l 1
 402 354 l 1
 485 354 l 1
 535 400 l 1
 535 420 l 1
 424 420 l 1
 481 586 l 1
 460 586 l 1
 399 554 l 1
 353 420 l 1
 217 420 l 1
 275 586 l 1
 254 586 l 1
 193 554 l 1
 147 420 l 1
 66 420 l 1
 16 372 l 1
 16 354 l 1
 125 354 l 1
 81 225 l 1
 -7 225 l 1
 -57 177 l 1
195 354 m 1
 331 354 l 1
 287 225 l 1
 151 225 l 1
 195 354 l 1
EndSplineSet
EndChar
StartChar: dollar
Encoding: 36 36 104
Width: 354
VWidth: 0
Flags: HW
PickledData: "(dp1
."
LayerCount: 2
Fore
SplineSet
92 266 m 0
 64 266 42 314 42 375 c 2
 42 548 l 2
 42 559 76 578 116 596 c 1
 116 677 l 1
 162 702 l 1
 182 702 l 1
 182 625 l 1
 207 635 227 641 230 641 c 0
 242 641 260 602 283 562 c 0
 291 547 306 542 311 542 c 1
 311 526 l 1
 278 512 226 479 218 479 c 0
 193 479 181 577 157 577 c 0
 148 577 142 569 142 552 c 2
 142 367 l 1
 142 367 142 333 157 333 c 0
 165 333 250 377 267 377 c 0
 293 377 317 331 317 262 c 2
 317 85 l 2
 317 74 279 55 237 37 c 1
 237 -47 l 1
 191 -72 l 1
 171 -72 l 1
 171 10 l 1
 140 -1 115 -8 112 -8 c 0
 100 -8 82 47 59 87 c 0
 51 102 37 107 32 107 c 1
 32 124 l 1
 65 138 116 171 124 171 c 0
 149 171 170 56 194 56 c 0
 203 56 217 64 217 81 c 2
 217 268 l 1
 217 268 218 306 197 306 c 0
 184 306 104 266 92 266 c 0
EndSplineSet
EndChar
StartChar: percent
Encoding: 37 37 241
Width: 701
VWidth: 0
Flags: HW
PickledData: "(dp1
."
LayerCount: 2
Fore
SplineSet
235 3 m 1
 561 707 l 1
 536 710 l 1
 460 678 l 1
 135 -25 l 1
 157 -28 l 1
 235 3 l 1
50 471 m 2
 50 414 87 376 108 376 c 0
 129 376 266 429 266 436 c 2
 266 626 l 2
 266 657 223 701 209 701 c 0
 194 701 50 647 50 640 c 2
 50 471 l 2
186 448 m 1
 186 448 176 436 161 436 c 0
 147 436 129 443 129 484 c 2
 129 629 l 1
 129 629 138 640 154 640 c 0
 167 640 186 632 186 592 c 2
 186 448 l 1
435 96 m 2
 435 39 472 1 493 1 c 0
 514 1 651 54 651 61 c 2
 651 251 l 2
 651 282 608 326 594 326 c 0
 579 326 435 272 435 265 c 2
 435 96 l 2
571 73 m 1
 571 73 561 61 546 61 c 0
 532 61 514 68 514 109 c 2
 514 254 l 1
 514 254 523 265 539 265 c 0
 552 265 571 257 571 217 c 2
 571 73 l 1
EndSplineSet
EndChar
StartChar: ampersand
Encoding: 38 38 154
Width: 430
VWidth: 0
Flags: HW
PickledData: "(dp1
."
LayerCount: 2
Fore
SplineSet
50 146 m 2
 50 61 110 0 140 0 c 0
 160 0 228 25 268 41 c 1
 285 16 320 0 320 0 c 1
 421 57 l 1
 421 79 l 1
 396 84 380 103 380 148 c 2
 380 350 l 1
 421 350 l 1
 431 399 l 1
 380 399 l 1
 380 496 l 1
 345 496 l 1
 328 434 271 402 234 399 c 1
 170 399 l 1
 170 663 l 1
 170 663 176 673 188 673 c 0
 217 673 233 530 263 530 c 0
 273 530 354 574 394 591 c 1
 394 611 l 1
 388 611 361 612 351 630 c 0
 323 678 291 770 276 770 c 0
 253 770 50 687 50 678 c 2
 50 146 l 2
221 92 m 0
 170 92 170 139 170 234 c 2
 170 350 l 1
 260 350 l 1
 260 105 l 1
 246 98 232 92 221 92 c 0
EndSplineSet
EndChar
StartChar: quotesingle
Encoding: 39 39 135
Width: 151
VWidth: 0
Flags: HW
PickledData: "(dp1
."
LayerCount: 2
Fore
SplineSet
35 634 m 2
 39 591 57 570 68 570 c 0
 79 570 116 600 116 604 c 2
 126 718 l 1
 126 745 102 770 94 770 c 0
 87 770 25 740 25 736 c 2
 35 634 l 2
EndSplineSet
EndChar
StartChar: parenleft
Encoding: 40 40 86
Width: 318
VWidth: 0
Flags: HW
PickledData: "(dp1
."
LayerCount: 2
Fore
SplineSet
151 154 m 0
 168 62 201 19 298 19 c 1
 298 -10 l 1
 298 -10 209 -55 188 -55 c 0
 158 -55 69 -15 49 115 c 0
 36 195 30 276 30 357 c 0
 30 438 36 518 49 599 c 0
 70 732 158 769 188 769 c 0
 218 769 297 726 297 726 c 1
 297 695 l 1
 231 695 172 673 151 560 c 0
 138 492 132 425 132 357 c 0
 132 289 138 221 151 154 c 0
EndSplineSet
EndChar
StartChar: parenright
Encoding: 41 41 87
Width: 264
VWidth: 0
Flags: HW
PickledData: "(dp1
."
LayerCount: 2
Fore
SplineSet
147 128 m 0
 133 51 106 16 25 16 c 1
 25 -8 l 1
 25 -8 100 -46 117 -46 c 0
 142 -46 215 -12 232 96 c 0
 243 163 248 230 248 297 c 0
 248 364 243 432 232 499 c 0
 215 610 142 641 117 641 c 0
 92 641 26 605 26 605 c 1
 26 579 l 1
 81 579 130 560 147 466 c 0
 158 409 163 354 163 297 c 0
 163 240 158 184 147 128 c 0
EndSplineSet
EndChar
StartChar: asterisk
Encoding: 42 42 242
Width: 345
VWidth: 0
Flags: HW
PickledData: "(dp1
."
LayerCount: 2
Fore
SplineSet
144 717 m 1
 144 669 l 1
 111 683 l 1
 51 685 l 1
 41 674 l 1
 112 617 l 1
 40 559 l 1
 52 547 l 1
 110 550 l 1
 144 564 l 1
 144 481 l 1
 161 481 l 1
 201 524 l 1
 201 565 l 1
 236 551 l 1
 293 548 l 1
 305 560 l 1
 234 617 l 1
 305 674 l 1
 294 684 l 1
 235 682 l 1
 201 669 l 1
 201 760 l 1
 185 760 l 1
 144 717 l 1
EndSplineSet
EndChar
StartChar: plus
Encoding: 43 43 237
Width: 421
VWidth: 0
Flags: HW
PickledData: "(dp1
."
LayerCount: 2
Fore
SplineSet
171 420 m 1
 171 340 l 1
 90 340 l 1
 30 283 l 1
 30 261 l 1
 171 261 l 1
 171 119 l 1
 195 119 l 1
 250 179 l 1
 250 261 l 1
 331 261 l 1
 391 316 l 1
 391 340 l 1
 250 340 l 1
 250 480 l 1
 228 480 l 1
 171 420 l 1
EndSplineSet
EndChar
StartChar: comma
Encoding: 44 44 48
Width: 222
VWidth: 0
Flags: HW
PickledData: "(dp1
."
LayerCount: 2
Fore
SplineSet
51 64 m 2
 51 19 73 11 73 -4 c 0
 73 -28 66 -87 39 -98 c 1
 84 -140 l 1
 146 -104 172 11 172 34 c 2
 172 87 l 2
 172 114 148 139 140 139 c 0
 133 139 51 109 51 105 c 2
 51 64 l 2
EndSplineSet
EndChar
StartChar: hyphen
Encoding: 45 45 81
Width: 381
VWidth: 0
Flags: HW
PickledData: "(dp1
."
LayerCount: 2
Fore
SplineSet
30 283 m 1
 30 261 l 1
 291 261 l 1
 351 316 l 1
 351 340 l 1
 90 340 l 1
 30 283 l 1
EndSplineSet
EndChar
StartChar: period
Encoding: 46 46 43
Width: 221
VWidth: 0
Flags: HW
PickledData: "(dp1
."
LayerCount: 2
Fore
SplineSet
50 64 m 2
 50 21 72 0 83 0 c 0
 94 0 171 30 171 34 c 2
 171 107 l 2
 171 134 147 159 139 159 c 0
 132 159 50 129 50 125 c 2
 50 64 l 2
EndSplineSet
EndChar
StartChar: slash
Encoding: 47 47 112
Width: 180
VWidth: 0
Flags: HW
PickledData: "(dp1
."
LayerCount: 2
Fore
SplineSet
31 0 m 1
 281 729 l 1
 256 729 l 1
 183 690 l 1
 -66 -38 l 1
 -44 -38 l 1
 31 0 l 1
EndSplineSet
EndChar
StartChar: zero
Encoding: 48 48 55
Width: 431
VWidth: 0
Flags: HW
PickledData: "(dp1
."
LayerCount: 2
Fore
SplineSet
50 146 m 2
 50 58 109 0 140 0 c 0
 170 0 381 82 381 93 c 2
 381 655 l 2
 381 702 315 770 294 770 c 0
 273 770 50 687 50 678 c 2
 50 146 l 2
260 108 m 1
 260 108 243 92 221 92 c 0
 199 92 170 103 170 166 c 2
 170 662 l 1
 170 662 187 677 209 677 c 0
 231 677 260 666 260 603 c 2
 260 108 l 1
193 329 m 2
 193 313 201 306 205 306 c 0
 209 306 237 316 237 318 c 2
 237 404 l 2
 237 414 228 423 225 423 c 0
 223 423 193 412 193 410 c 2
 193 329 l 2
EndSplineSet
EndChar
StartChar: one
Encoding: 49 49 56
Width: 199
VWidth: 0
Flags: HW
PickledData: "(dp1
."
LayerCount: 2
Fore
SplineSet
-9 586 m 1
 -9 567 l 1
 12 563 50 555 50 518 c 2
 50 107 l 2
 50 32 0 27 0 27 c 1
 13 0 l 2
 14 0 183 74 183 74 c 1
 183 97 l 1
 159 97 150 109 150 139 c 2
 150 585 l 2
 150 618 100 641 100 641 c 1
 -9 586 l 1
EndSplineSet
EndChar
StartChar: two
Encoding: 50 50 67
Width: 387
VWidth: 0
Flags: HW
PickledData: "(dp1
."
LayerCount: 2
Fore
SplineSet
35 678 m 2
 35 685 239 770 264 770 c 0
 289 770 347 689 347 657 c 2
 347 520 l 2
 347 401 114 96 114 96 c 1
 114 96 225 98 243 98 c 0
 261 98 298 99 310 131 c 1
 309 131 332 130 332 130 c 1
 388 49 l 1
 388 49 363 0 312 0 c 2
 31 0 l 1
 31 0 10 54 10 93 c 0
 10 126 227 406 227 480 c 2
 227 606 l 2
 227 662 219 685 187 685 c 0
 169 685 155 665 155 665 c 1
 155 573 l 2
 155 552 155 537 126 526 c 2
 22 486 l 1
 8 500 l 1
 8 500 35 530 35 564 c 2
 35 678 l 2
EndSplineSet
EndChar
StartChar: three
Encoding: 51 51 68
Width: 341
VWidth: 0
Flags: HW
PickledData: "(dp1
."
LayerCount: 2
Fore
SplineSet
300 243 m 2
 300 280 279 322 257 348 c 1
 283 361 301 375 301 383 c 2
 301 545 l 2
 301 584 245 641 228 641 c 0
 211 641 24 566 24 559 c 2
 24 496 l 2
 24 464 2 441 2 441 c 1
 14 429 l 1
 90 458 l 2
 125 471 129 479 129 492 c 2
 129 538 l 2
 129 560 146 578 164 578 c 0
 182 578 200 562 200 510 c 2
 200 370 l 1
 157 351 89 315 89 315 c 1
 97 285 l 1
 97 285 132 302 159 302 c 0
 200 302 200 270 200 213 c 0
 200 212 201 117 201 102 c 0
 201 87 198 51 167 51 c 0
 142 51 128 89 128 111 c 0
 128 155 128 164 122 164 c 0
 101 164 2 115 2 115 c 1
 2 99 l 1
 2 99 30 97 37 85 c 0
 50 62 50 -7 72 -7 c 0
 101 -7 300 50 300 77 c 2
 300 243 l 2
EndSplineSet
EndChar
StartChar: four
Encoding: 52 52 69
Width: 334
VWidth: 0
Flags: HW
PickledData: "(dp1
."
LayerCount: 2
Fore
SplineSet
192 232 m 1
 20 232 l 2
 17 232 1 257 1 272 c 0
 1 285 171 641 203 641 c 1
 203 641 292 618 292 585 c 2
 292 281 l 1
 326 281 l 1
 326 252 l 1
 292 232 l 1
 292 139 l 2
 292 109 302 97 326 97 c 1
 326 74 l 1
 326 74 157 0 156 0 c 2
 142 27 l 1
 142 27 192 32 192 107 c 2
 192 232 l 1
192 504 m 1
 80 279 l 1
 80 279 191 280 192 281 c 1
 192 504 l 1
EndSplineSet
EndChar
StartChar: five
Encoding: 53 53 70
Width: 431
VWidth: 0
Flags: HW
PickledData: "(dp1
."
LayerCount: 2
Fore
SplineSet
170 478 m 1
 170 478 170 438 188 438 c 0
 198 438 299 490 320 490 c 0
 351 490 381 426 381 343 c 2
 381 102 l 2
 381 73 148 -10 135 -10 c 0
 120 -10 99 57 71 105 c 0
 61 123 44 129 38 129 c 1
 38 149 l 1
 78 166 139 205 149 205 c 0
 179 205 204 87 233 87 c 0
 244 87 261 96 261 117 c 2
 261 330 l 1
 261 330 261 375 236 375 c 0
 220 375 125 327 111 327 c 0
 77 327 50 385 50 458 c 2
 50 741 l 2
 50 751 54 760 77 760 c 2
 229 760 l 2
 255 760 293 763 302 792 c 0
 302 793 325 793 325 793 c 1
 380 711 l 1
 380 711 359 662 309 662 c 2
 170 662 l 1
 170 478 l 1
EndSplineSet
EndChar
StartChar: six
Encoding: 54 54 71
Width: 431
VWidth: 0
Flags: HW
PickledData: "(dp1
."
LayerCount: 2
Fore
SplineSet
50 146 m 2
 50 58 109 0 140 0 c 0
 170 0 381 82 381 93 c 2
 381 405 l 2
 381 452 315 530 294 530 c 0
 284 530 227 506 171 481 c 1
 184 588 266 690 333 690 c 2
 362 690 l 1
 362 720 l 1
 362 720 260 770 204 770 c 0
 184 770 50 595 50 459 c 2
 50 146 l 2
260 108 m 1
 260 108 243 92 221 92 c 0
 199 92 170 103 170 166 c 2
 170 434 l 1
 249 434 260 394 260 360 c 2
 260 108 l 1
EndSplineSet
EndChar
StartChar: seven
Encoding: 55 55 73
Width: 370
VWidth: 0
Flags: HW
PickledData: "(dp1
."
LayerCount: 2
Fore
SplineSet
281 793 m 1
 276 773 257 760 212 760 c 2
 78 760 l 2
 38 760 10 711 10 711 c 1
 67 629 l 1
 89 629 l 1
 94 649 113 662 158 662 c 2
 265 662 l 1
 45 85 l 1
 45 51 95 0 95 0 c 1
 143 0 l 1
 360 663 l 1
 360 676 322 766 303 793 c 1
 281 793 l 1
EndSplineSet
EndChar
StartChar: eight
Encoding: 56 56 74
Width: 359
VWidth: 0
Flags: HW
PickledData: "(dp1
."
LayerCount: 2
Fore
SplineSet
42 387 m 2
 42 347 56 306 90 293 c 1
 71 286 42 273 42 259 c 2
 42 122 l 2
 42 49 91 0 117 0 c 0
 142 0 317 68 317 77 c 2
 317 292 l 2
 317 313 293 346 267 358 c 1
 287 364 317 374 317 389 c 2
 317 545 l 2
 317 584 262 641 245 641 c 0
 228 641 42 571 42 564 c 2
 42 387 l 2
217 90 m 1
 217 90 202 77 184 77 c 0
 166 77 142 86 142 138 c 2
 142 289 l 1
 142 289 156 302 174 302 c 0
 192 302 217 292 217 240 c 2
 217 90 l 1
217 381 m 1
 217 381 202 367 184 367 c 0
 166 367 142 377 142 429 c 2
 142 551 l 1
 142 551 156 563 174 563 c 0
 192 563 217 553 217 501 c 2
 217 381 l 1
EndSplineSet
EndChar
StartChar: nine
Encoding: 57 57 72
Width: 431
VWidth: 0
Flags: HW
PickledData: "(dp1
."
LayerCount: 2
Fore
SplineSet
381 624 m 2
 381 712 322 770 291 770 c 0
 261 770 50 688 50 677 c 2
 50 395 l 2
 50 348 116 270 137 270 c 0
 147 270 204 294 260 319 c 1
 260 212 165 80 98 80 c 2
 69 80 l 1
 69 50 l 1
 69 50 171 0 227 0 c 0
 247 0 381 172 381 341 c 2
 381 624 l 2
171 662 m 1
 171 662 188 678 210 678 c 0
 232 678 261 667 261 604 c 2
 261 366 l 1
 182 366 171 406 171 440 c 2
 171 662 l 1
EndSplineSet
EndChar
StartChar: colon
Encoding: 58 58 50
Width: 184
VWidth: 0
Flags: HW
PickledData: "(dp1
."
LayerCount: 2
Fore
SplineSet
42 53 m 2
 42 17 60 0 69 0 c 0
 78 0 142 25 142 28 c 2
 142 89 l 2
 142 111 123 132 116 132 c 0
 110 132 42 107 42 104 c 2
 42 53 l 2
42 285 m 2
 42 249 60 232 69 232 c 0
 78 232 142 257 142 260 c 2
 142 321 l 2
 142 343 123 364 116 364 c 0
 110 364 42 339 42 336 c 2
 42 285 l 2
EndSplineSet
EndChar
StartChar: semicolon
Encoding: 59 59 49
Width: 220
VWidth: 0
Flags: HW
PickledData: "(dp1
."
LayerCount: 2
Fore
SplineSet
49 342 m 2
 49 299 71 278 82 278 c 0
 93 278 170 308 170 312 c 2
 170 385 l 2
 170 412 146 437 138 437 c 0
 131 437 49 407 49 403 c 2
 49 342 l 2
51 64 m 2
 51 19 73 11 73 -4 c 0
 73 -28 66 -87 39 -98 c 1
 84 -140 l 1
 146 -104 172 11 172 34 c 2
 172 87 l 2
 172 114 148 139 140 139 c 0
 133 139 51 109 51 105 c 2
 51 64 l 2
EndSplineSet
EndChar
StartChar: less
Encoding: 60 60 235
Width: 300
VWidth: 0
Flags: HW
PickledData: "(dp1
."
LayerCount: 2
Fore
SplineSet
274 63 m 1
 284 81 l 1
 272 140 l 1
 83 231 l 1
 272 324 l 1
 284 381 l 1
 274 398 l 1
 17 256 l 1
 23 231 l 1
 17 206 l 1
 274 63 l 1
EndSplineSet
EndChar
StartChar: equal
Encoding: 61 61 80
Width: 317
VWidth: 0
Flags: HW
PickledData: "(dp1
."
LayerCount: 2
Fore
SplineSet
25 301 m 1
 25 282 l 1
 242 282 l 1
 292 328 l 1
 292 348 l 1
 75 348 l 1
 25 301 l 1
25 171 m 1
 25 152 l 1
 242 152 l 1
 292 198 l 1
 292 218 l 1
 75 218 l 1
 25 171 l 1
EndSplineSet
EndChar
StartChar: greater
Encoding: 62 62 236
Width: 300
VWidth: 0
Flags: HW
PickledData: "(dp1
."
LayerCount: 2
Fore
SplineSet
27 63 m 1
 17 81 l 1
 28 140 l 1
 217 231 l 1
 28 324 l 1
 17 381 l 1
 27 398 l 1
 284 256 l 1
 277 231 l 1
 284 206 l 1
 27 63 l 1
EndSplineSet
EndChar
StartChar: question
Encoding: 63 63 75
Width: 411
VWidth: 0
Flags: HW
PickledData: "(dp1
."
LayerCount: 2
Fore
SplineSet
168 308 m 1
 168 308 361 426 361 484 c 2
 361 657 l 2
 361 689 303 770 278 770 c 0
 253 770 49 685 49 678 c 2
 49 564 l 2
 49 530 22 500 22 500 c 1
 36 486 l 1
 140 536 l 2
 168 549 169 562 169 583 c 2
 169 665 l 1
 169 665 183 685 201 685 c 0
 233 685 241 662 241 606 c 2
 241 490 l 2
 241 438 50 354 50 331 c 2
 50 196 l 2
 50 164 100 131 109 131 c 0
 113 131 210 188 210 188 c 1
 210 210 l 1
 210 210 168 210 168 280 c 2
 168 308 l 1
49 -16 m 2
 49 -59 71 -80 82 -80 c 0
 93 -80 170 -50 170 -46 c 2
 170 27 l 2
 170 54 146 79 138 79 c 0
 131 79 49 49 49 45 c 2
 49 -16 l 2
EndSplineSet
EndChar
StartChar: at
Encoding: 64 64 375
Width: 540
VWidth: 0
Flags: HW
PickledData: "(dp1
."
LayerCount: 2
Fore
SplineSet
161 182 m 2
 161 124 200 86 220 86 c 0
 229 86 265 106 300 129 c 1
 301 105 339 86 339 86 c 1
 490 116 l 1
 490 489 l 2
 490 542 416 617 393 617 c 0
 354 617 50 525 50 515 c 2
 50 94 l 2
 50 -3 115 -68 150 -68 c 1
 150 -70 187 -3 187 -3 c 1
 128 -3 105 7 105 116 c 2
 105 484 l 1
 105 484 271 558 365 558 c 0
 421 558 433 542 433 432 c 2
 433 142 l 1
 411 142 l 1
 392 145 377 153 377 189 c 2
 377 385 l 2
 377 416 335 461 321 461 c 0
 309 461 161 407 161 401 c 2
 161 182 l 2
300 159 m 1
 300 159 289 148 273 148 c 0
 260 148 240 154 240 196 c 2
 240 391 l 1
 240 391 251 399 265 399 c 0
 280 399 300 393 300 352 c 2
 300 159 l 1
EndSplineSet
EndChar
StartChar: A
Encoding: 65 65 12
Width: 359
VWidth: 0
Flags: HW
PickledData: "(dp1
."
LayerCount: 2
Fore
SplineSet
42 85 m 2
 42 8 -1 0 -8 0 c 1
 5 -27 l 1
 176 45 l 1
 176 71 l 1
 147 71 142 91 142 128 c 2
 142 285 l 1
 217 285 l 1
 217 57 l 2
 217 24 267 0 267 0 c 1
 357 51 l 1
 357 69 l 1
 336 73 317 86 317 123 c 2
 317 285 l 1
 358 306 l 1
 358 326 l 1
 317 326 l 1
 317 544 l 2
 317 583 262 640 245 640 c 0
 228 640 42 570 42 563 c 2
 42 85 l 2
142 550 m 1
 142 550 156 562 174 562 c 0
 192 562 217 553 217 501 c 2
 217 326 l 1
 191 326 l 1
 142 304 l 1
 142 550 l 1
EndSplineSet
EndChar
StartChar: B
Encoding: 66 66 14
Width: 350
VWidth: 0
Flags: HW
PickledData: "(dp1
."
LayerCount: 2
Fore
SplineSet
7 592 m 1
 7 574 l 1
 26 570 42 555 42 521 c 2
 42 122 l 2
 42 49 91 0 117 0 c 0
 142 0 317 68 317 77 c 2
 317 262 l 2
 317 299 269 351 248 357 c 1
 285 373 317 391 317 406 c 2
 317 546 l 2
 317 593 253 639 246 639 c 0
 236 639 142 583 142 583 c 1
 142 616 92 640 92 640 c 1
 7 592 l 1
217 90 m 1
 217 90 202 77 184 77 c 0
 166 77 142 86 142 138 c 2
 142 268 l 1
 142 268 156 281 174 281 c 0
 192 281 217 271 217 219 c 2
 217 90 l 1
217 447 m 2
 217 392 184 369 142 357 c 1
 142 530 l 1
 142 530 159 555 179 555 c 0
 206 555 217 527 217 500 c 2
 217 447 l 2
EndSplineSet
EndChar
StartChar: C
Encoding: 67 67 35
Width: 336
VWidth: 0
Flags: HW
PickledData: "(dp1
."
AnchorPoint: "bottom" 158 0 basechar 0
AnchorPoint: "top" 158 674 basechar 0
LayerCount: 2
Fore
SplineSet
42 565 m 2
 42 149 l 2
 42 78 103 0 158 0 c 0
 180 0 279 46 290 46 c 1
 290 70 l 1
 153 70 142 128 142 208 c 2
 142 552 l 1
 142 552 147 561 157 561 c 0
 181 561 194 425 219 425 c 0
 227 425 295 462 328 476 c 1
 328 492 l 1
 323 492 300 493 292 508 c 0
 269 548 259 641 247 641 c 0
 228 641 42 572 42 565 c 2
EndSplineSet
EndChar
StartChar: D
Encoding: 68 68 57
Width: 431
VWidth: 0
Flags: HW
PickledData: "(dp1
."
LayerCount: 2
Fore
SplineSet
9 711 m 1
 9 689 l 1
 32 684 50 667 50 626 c 2
 50 146 l 2
 50 58 109 0 140 0 c 0
 170 0 381 82 381 93 c 2
 381 655 l 2
 381 702 315 770 294 770 c 1
 170 700 l 1
 170 740 110 768 110 768 c 1
 9 711 l 1
260 108 m 1
 260 108 243 92 221 92 c 0
 199 92 170 103 170 166 c 2
 170 636 l 1
 170 636 187 651 209 651 c 0
 231 651 260 643 260 580 c 2
 260 108 l 1
EndSplineSet
EndChar
StartChar: E
Encoding: 69 69 38
Width: 336
VWidth: 0
Flags: HW
PickledData: "(dp1
."
AnchorPoint: "top" 152 674 basechar 0
LayerCount: 2
Fore
SplineSet
42 127 m 2
 42 56 133 0 158 0 c 0
 180 0 279 46 290 46 c 1
 290 70 l 1
 142 70 142 106 142 208 c 2
 142 292 l 1
 217 292 l 1
 259 312 l 1
 259 332 l 1
 142 332 l 1
 142 552 l 1
 142 552 147 561 157 561 c 0
 181 561 194 425 219 425 c 0
 227 425 295 462 328 476 c 1
 328 492 l 1
 323 492 300 493 292 508 c 0
 269 548 259 641 247 641 c 0
 228 641 42 572 42 565 c 2
 42 127 l 2
EndSplineSet
EndChar
StartChar: F
Encoding: 70 70 39
Width: 351
VWidth: 0
Flags: HW
PickledData: "(dp1
."
LayerCount: 2
Fore
SplineSet
50 678 m 2
 50 102 l 2
 50 10 -1 0 -10 0 c 1
 6 -32 l 1
 211 54 l 1
 211 85 l 1
 176 85 170 109 170 154 c 2
 170 342 l 1
 251 342 l 1
 301 367 l 1
 301 391 l 1
 170 391 l 1
 170 663 l 1
 170 663 176 673 188 673 c 0
 217 673 233 510 263 510 c 0
 273 510 354 554 394 571 c 1
 394 591 l 1
 388 591 361 592 351 610 c 0
 323 658 311 770 296 770 c 0
 273 770 50 687 50 678 c 2
EndSplineSet
EndChar
StartChar: G
Encoding: 71 71 40
Width: 350
VWidth: 0
Flags: HW
PickledData: "(dp1
."
AnchorPoint: "bottom" 117 0 basechar 0
AnchorPoint: "top" 157 674 basechar 0
LayerCount: 2
Fore
SplineSet
182 273 m 1
 182 255 l 1
 203 251 217 234 217 197 c 2
 217 90 l 1
 217 90 202 77 184 77 c 0
 166 77 142 86 142 138 c 2
 142 552 l 1
 142 552 147 561 157 561 c 0
 181 561 194 425 219 425 c 0
 227 425 295 462 328 476 c 1
 328 492 l 1
 323 492 300 493 292 508 c 0
 269 548 259 641 247 641 c 0
 228 641 42 572 42 565 c 2
 42 122 l 2
 42 49 91 0 117 0 c 0
 142 0 317 68 317 77 c 2
 317 264 l 2
 317 297 267 321 267 321 c 1
 182 273 l 1
EndSplineSet
EndChar
StartChar: H
Encoding: 72 72 34
Width: 358
VWidth: 0
Flags: HW
PickledData: "(dp1
."
AnchorPoint: "top" 178 674 basechar 0
LayerCount: 2
Fore
SplineSet
217 341 m 1
 183 341 l 1
 142 318 l 1
 142 585 l 2
 142 618 92 641 92 641 c 1
 7 594 l 1
 7 576 l 1
 28 572 42 555 42 518 c 2
 42 85 l 2
 42 8 -1 0 -8 0 c 1
 5 -27 l 1
 176 45 l 1
 176 71 l 1
 147 71 142 91 142 128 c 2
 142 300 l 1
 217 300 l 1
 217 57 l 2
 217 24 267 0 267 0 c 1
 351 47 l 1
 351 66 l 1
 330 70 317 86 317 123 c 2
 317 300 l 1
 358 321 l 1
 358 341 l 1
 317 341 l 1
 317 531 l 2
 317 608 360 616 367 616 c 1
 353 642 l 1
 182 571 l 1
 182 545 l 1
 211 545 217 524 217 487 c 2
 217 341 l 1
EndSplineSet
EndChar
StartChar: I
Encoding: 73 73 33
Width: 183
VWidth: 0
Flags: HW
PickledData: "(dp1
."
AnchorPoint: "bottom" 92 0 basechar 0
AnchorPoint: "top" 92 674 basechar 0
LayerCount: 2
Fore
SplineSet
42 107 m 2
 42 32 -8 27 -8 27 c 1
 5 0 l 2
 6 0 175 74 175 74 c 1
 175 97 l 1
 151 97 142 109 142 139 c 2
 142 531 l 2
 142 608 185 616 192 616 c 1
 178 642 l 1
 7 571 l 1
 7 545 l 1
 36 545 42 524 42 487 c 2
 42 107 l 2
EndSplineSet
EndChar
StartChar: J
Encoding: 74 74 41
Width: 220
VWidth: 0
Flags: HW
PickledData: "(dp1
."
AnchorPoint: "top" 110 809 basechar 0
LayerCount: 2
Fore
SplineSet
50 113 m 2
 50 -31 36 -90 -12 -90 c 2
 -46 -90 l 1
 -46 -120 l 1
 -46 -120 56 -180 112 -180 c 0
 139 -180 170 -57 170 106 c 2
 170 630 l 2
 170 720 210 738 210 738 c 1
 194 770 l 1
 92 710 -38 642 -38 642 c 1
 -38 614 l 1
 -9 614 50 614 50 574 c 2
 50 113 l 2
EndSplineSet
EndChar
StartChar: K
Encoding: 75 75 51
Width: 426
VWidth: 0
Flags: HW
PickledData: "(dp1
."
LayerCount: 2
Fore
SplineSet
50 620 m 2
 50 665 34 684 9 689 c 1
 9 711 l 1
 110 768 l 1
 110 768 170 740 170 701 c 2
 170 404 l 1
 201 404 260 429 260 455 c 2
 260 585 l 2
 260 630 254 654 219 654 c 1
 219 685 l 1
 424 771 l 1
 440 739 l 1
 431 739 380 729 380 637 c 2
 380 444 l 1
 381 438 328 415 272 393 c 1
 272 341 349 89 447 89 c 1
 447 59 l 1
 447 59 354 0 329 0 c 0
 278 0 175 301 175 359 c 1
 170 357 l 1
 170 154 l 2
 170 109 176 85 211 85 c 1
 211 54 l 1
 6 -32 l 1
 -10 0 l 1
 -1 0 50 10 50 102 c 2
 50 620 l 2
EndSplineSet
EndChar
StartChar: L
Encoding: 76 76 42
Width: 368
VWidth: 0
Flags: HW
PickledData: "(dp1
."
AnchorPoint: "top" 106 809 basechar 0
LayerCount: 2
Fore
SplineSet
50 151 m 2
 50 54 170 0 193 0 c 0
 215 0 348 56 348 56 c 1
 348 84 l 1
 170 84 170 135 170 228 c 2
 170 637 l 2
 170 729 221 739 230 739 c 1
 214 771 l 1
 9 685 l 1
 9 654 l 1
 44 654 50 630 50 585 c 2
 50 151 l 2
EndSplineSet
EndChar
StartChar: M
Encoding: 77 77 36
Width: 640
VWidth: 0
Flags: HW
PickledData: "(dp1
."
LayerCount: 2
Fore
SplineSet
6 -32 m 1
 211 54 l 1
 211 85 l 1
 176 85 170 109 170 154 c 2
 170 667 l 1
 242 667 260 641 260 558 c 2
 260 68 l 2
 260 28 320 0 320 0 c 1
 429 61 l 1
 429 83 l 1
 404 88 380 103 380 148 c 2
 380 667 l 1
 447 664 470 639 470 558 c 2
 470 68 l 2
 470 28 530 0 530 0 c 1
 639 61 l 1
 639 83 l 1
 614 88 590 103 590 148 c 2
 590 651 l 2
 590 694 548 770 502 770 c 0
 483 770 400 725 367 709 c 1
 353 741 320 770 292 770 c 0
 271 770 190 718 170 709 c 1
 170 756 110 771 110 771 c 1
 8 711 1 710 1 710 c 1
 1 688 l 1
 30 688 50 649 50 607 c 2
 50 102 l 2
 50 10 -1 0 -10 0 c 1
 6 -32 l 1
EndSplineSet
EndChar
StartChar: N
Encoding: 78 78 45
Width: 381
VWidth: 0
Flags: HW
PickledData: "(dp1
."
AnchorPoint: "bottom" 178 0 basechar 0
AnchorPoint: "top" 178 691 basechar 0
LayerCount: 2
Back
SplineSet
5 -27 m 1
 176 45 l 1
 176 71 l 1
 155 71 142 81 142 128 c 2
 142 556 l 1
 202 556 217 534 217 465 c 2
 217 57 l 2
 217 24 267 0 267 0 c 1
 357 51 l 1
 357 69 l 1
 336 73 317 86 317 123 c 2
 317 542 l 2
 317 578 281 641 243 641 c 0
 226 641 159 598 142 591 c 1
 142 630 92 642 92 642 c 1
 7 592 1 591 1 591 c 1
 1 573 l 1
 25 573 42 541 42 506 c 2
 42 95 l 2
 42 0 -8 0 -8 0 c 1
 5 -27 l 1
EndSplineSet
Fore
SplineSet
242 494 m 2
 242 57 l 2
 242 24 292 0 292 0 c 1
 382 51 l 1
 382 69 l 1
 361 73 342 86 342 123 c 2
 342 534 l 2
 342 588 282 641 247 641 c 0
 247 641 170.139648438 606.83984375 121 585 c 25
 121 555 l 17
 183 577 l 1
 201.799804688 566.602539062 242 551.260742188 242 494 c 2
142 590 m 1
 142 629 92 642 92 642 c 1
 7 592 1 591 1 591 c 1
 1 573 l 1
 25 573 42 540 42 505 c 2
 42 57 l 2
 42 24 92 0 92 0 c 1
 176 47 l 1
 176 66 l 1
 155 70 142 86 142 123 c 2
 142 573 l 1
 142 590 l 1
EndSplineSet
EndChar
StartChar: O
Encoding: 79 79 37
Width: 359
VWidth: 0
Flags: HW
PickledData: "(dp1
."
AnchorPoint: "top" 180 674 basechar 0
LayerCount: 2
Fore
SplineSet
42 122 m 2
 42 49 91 0 117 0 c 0
 142 0 317 68 317 77 c 2
 317 546 l 2
 317 585 262 641 245 641 c 0
 228 641 42 572 42 565 c 2
 42 122 l 2
217 90 m 1
 217 90 202 77 184 77 c 0
 166 77 142 86 142 138 c 2
 142 551 l 1
 142 551 156 564 174 564 c 0
 192 564 217 554 217 502 c 2
 217 90 l 1
EndSplineSet
EndChar
StartChar: P
Encoding: 80 80 58
Width: 421
VWidth: 0
Flags: HW
PickledData: "(dp1
."
LayerCount: 2
Fore
SplineSet
9 711 m 1
 9 689 l 1
 34 684 50 665 50 620 c 2
 50 102 l 2
 50 10 -1 0 -10 0 c 1
 6 -32 l 1
 211 54 l 1
 211 85 l 1
 176 85 170 109 170 154 c 2
 170 255 l 1
 237 275 381 333 381 342 c 2
 381 653 l 2
 381 700 315 768 294 768 c 0
 284 768 226 735 170 701 c 1
 169 740 110 768 110 768 c 1
 9 711 l 1
260 353 m 2
 260 327 201 302 170 302 c 1
 170 657 l 1
 170 657 187 672 209 672 c 0
 231 672 260 661 260 598 c 2
 260 353 l 2
EndSplineSet
EndChar
StartChar: Q
Encoding: 81 81 46
Width: 359
VWidth: 0
Flags: HW
PickledData: "(dp1
."
LayerCount: 2
Fore
SplineSet
42 122 m 2
 42 49 91 0 117 0 c 0
 124 0 143 5 166 13 c 1
 193 -51 238 -142 266 -142 c 0
 290 -142 364 -92 364 -92 c 1
 364 -67 l 1
 310 -67 274 -8 250 44 c 1
 287 59 317 73 317 77 c 2
 317 546 l 2
 317 585 262 641 245 641 c 0
 228 641 42 572 42 565 c 2
 42 122 l 2
217 90 m 1
 217 90 202 77 184 77 c 0
 166 77 142 86 142 138 c 2
 142 551 l 1
 142 551 156 564 174 564 c 0
 192 564 217 554 217 502 c 2
 217 90 l 1
EndSplineSet
EndChar
StartChar: R
Encoding: 82 82 59
Width: 359
VWidth: 0
Flags: HW
PickledData: "(dp1
."
AnchorPoint: "top" 174 674 basechar 0
LayerCount: 2
Fore
SplineSet
217 319 m 2
 217 297 168 277 142 277 c 1
 142 547 l 1
 142 547 156 560 174 560 c 0
 192 560 217 550 217 498 c 2
 217 319 l 2
42 85 m 2
 42 8 -1 0 -8 0 c 1
 5 -27 l 1
 176 45 l 1
 176 71 l 1
 147 71 142 91 142 128 c 2
 142 237 l 1
 151 240 l 1
 153 213 224 0 266 0 c 0
 287 0 364 49 364 49 c 1
 364 74 l 1
 295 74 247 197 227 267 c 1
 274 285 317 305 317 310 c 2
 317 544 l 2
 317 583 262 640 245 640 c 0
 237 640 189 612 142 584 c 1
 141 616 92 640 92 640 c 1
 7 592 l 1
 7 574 l 1
 28 570 42 553 42 516 c 2
 42 85 l 2
EndSplineSet
EndChar
StartChar: T
Encoding: 84 84 61
Width: 304
VWidth: 0
Flags: HW
PickledData: "(dp1
."
LayerCount: 2
Fore
SplineSet
102 85 m 2
 102 8 59 0 52 0 c 1
 65 -27 l 1
 236 45 l 1
 236 71 l 1
 207 71 202 91 202 128 c 2
 202 551 l 1
 295 551 l 2
 328 551 352 592 352 592 c 1
 304 661 l 1
 286 661 l 1
 282 644 265 633 228 633 c 2
 8 633 l 2
 -25 633 -48 592 -48 592 c 1
 -1 524 l 1
 17 524 l 1
 21 541 38 551 75 551 c 2
 127 551 l 1
 102 526 l 1
 102 85 l 2
EndSplineSet
EndChar
StartChar: V
Encoding: 86 86 62
Width: 431
VWidth: 0
Flags: HW
PickledData: "(dp1
."
LayerCount: 2
Fore
SplineSet
260 90 m 1
 260 90 231 75 212 75 c 0
 196 75 170 98 170 134 c 2
 170 703 l 2
 170 743 110 771 110 771 c 1
 1 710 l 1
 1 688 l 1
 26 683 50 668 50 623 c 2
 50 130 l 2
 50 86 93 0 135 0 c 0
 180 0 381 82 381 93 c 2
 381 637 l 2
 381 729 432 739 441 739 c 1
 425 771 l 1
 220 685 l 1
 220 654 l 1
 255 654 260 630 260 585 c 2
 260 90 l 1
EndSplineSet
EndChar
StartChar: W
Encoding: 87 87 63
Width: 641
VWidth: 0
Flags: HW
PickledData: "(dp1
."
AnchorPoint: "top" 319 809 basechar 0
LayerCount: 2
Fore
SplineSet
260 106 m 1
 249 102 238 100 229 100 c 0
 191 100 170 135 170 195 c 2
 170 704 l 2
 170 742 110 771 110 771 c 1
 1 710 l 1
 1 688 l 1
 26 683 50 668 50 623 c 2
 50 121 l 2
 50 77 93 0 135 0 c 0
 153 0 216 30 273 62 c 1
 289 30 317 0 345 0 c 0
 390 0 591 82 591 93 c 2
 591 623 l 2
 591 733 520 770 501 770 c 0
 500 770 383 711 380 709 c 1
 372 742 328 770 320 770 c 0
 319 770 211 710 211 710 c 1
 211 688 l 1
 211 688 260 684 260 623 c 2
 260 106 l 1
470 107 m 1
 470 107 450 98 431 98 c 0
 395 98 381 149 381 185 c 2
 381 675 l 1
 439 674 470 661 470 587 c 2
 470 107 l 1
EndSplineSet
EndChar
StartChar: X
Encoding: 88 88 64
Width: 456
VWidth: 0
Flags: HW
PickledData: "(dp1
."
LayerCount: 2
Fore
SplineSet
22 709 m 1
 126 770 l 1
 165 770 l 1
 274 446 l 1
 284 451 296 456 296 456 c 1
 296 625 l 2
 296 690 255 692 255 692 c 1
 255 714 l 1
 351 771 l 1
 356 771 411 737 411 706 c 2
 411 460 l 2
 411 447 325 412 289 399 c 1
 387 104 l 2
 394 83 420 83 450 83 c 1
 450 61 l 1
 341 0 l 1
 297 0 l 1
 181 350 l 1
 173 347 160 340 160 340 c 1
 160 146 l 2
 160 81 201 79 201 79 c 1
 201 57 l 1
 105 0 l 1
 100 0 45 34 45 65 c 2
 45 336 l 2
 45 348 127 383 165 397 c 1
 79 656 l 2
 68 688 47 688 22 688 c 1
 22 709 l 1
EndSplineSet
EndChar
StartChar: Y
Encoding: 89 89 66
Width: 329
VWidth: 0
Flags: HW
PickledData: "(dp1
."
AnchorPoint: "top" 180 674 basechar 0
LayerCount: 2
Fore
SplineSet
-32 591 m 1
 55 641 l 1
 87 641 l 1
 183 341 l 1
 191 345 197 347 197 347 c 1
 197 521 l 2
 197 575 162 576 162 576 c 1
 162 595 l 1
 242 642 l 1
 246 642 292 614 292 588 c 2
 292 350 l 2
 292 339 229 313 199 302 c 1
 199 146 l 2
 199 112 203 97 232 97 c 1
 232 74 l 1
 62 0 l 1
 49 27 l 1
 99 39 99 88 99 121 c 2
 99 297 l 1
 16 546 l 2
 7 573 -11 573 -32 573 c 1
 -32 591 l 1
EndSplineSet
EndChar
StartChar: Z
Encoding: 90 90 65
Width: 308
VWidth: 0
Flags: HW
PickledData: "(dp1
."
AnchorPoint: "top" 148 674 basechar 0
LayerCount: 2
Fore
SplineSet
234 661 m 1
 230 644 214 633 177 633 c 2
 65 633 l 2
 32 633 8 592 8 592 c 1
 56 524 l 1
 74 524 l 1
 78 541 95 551 132 551 c 2
 208 551 l 1
 8 79 l 1
 8 51 25 0 25 0 c 1
 243 0 l 2
 276 0 300 41 300 41 c 1
 252 109 l 1
 234 109 l 1
 230 92 214 82 177 82 c 2
 111 82 l 1
 300 552 l 1
 300 563 268 639 252 661 c 1
 234 661 l 1
EndSplineSet
EndChar
StartChar: bracketleft
Encoding: 91 91 44
Width: 221
VWidth: 0
Flags: HW
PickledData: "(dp1
."
LayerCount: 2
Fore
SplineSet
50 702 m 2
 50 742 110 770 110 770 c 1
 221 723 l 1
 221 701 l 1
 196 696 150 667 150 622 c 2
 150 101 l 2
 150 56 196 27 221 22 c 1
 221 0 l 1
 110 -47 l 1
 110 -47 50 -19 50 21 c 2
 50 702 l 2
EndSplineSet
EndChar
StartChar: backslash
Encoding: 92 92 113
Width: 149
VWidth: 0
Flags: HW
PickledData: "(dp1
."
LayerCount: 2
Fore
SplineSet
125 0 m 1
 -83 607 l 1
 -62 607 l 1
 -2 575 l 1
 206 -32 l 1
 187 -32 l 1
 125 0 l 1
EndSplineSet
EndChar
StartChar: bracketright
Encoding: 93 93 88
Width: 221
VWidth: 0
Flags: HW
PickledData: "(dp1
."
LayerCount: 2
Fore
SplineSet
172 702 m 2
 172 742 112 770 112 770 c 1
 1 723 l 1
 1 701 l 1
 26 696 72 667 72 622 c 2
 72 101 l 2
 72 56 26 27 1 22 c 1
 1 0 l 1
 112 -47 l 1
 112 -47 172 -19 172 21 c 2
 172 702 l 2
EndSplineSet
EndChar
StartChar: asciicircum
Encoding: 94 94 122
Width: 313
VWidth: 0
Flags: HW
PickledData: "(dp1
."
AnchorPoint: "top" 157 525 mark 0
LayerCount: 2
Fore
SplineSet
202 659 m 0
 199 661 184 671 157 671 c 0
 130 671 113 661 111 659 c 0
 84 633 17 573 17 561 c 0
 17 542 27 526 30 526 c 0
 44 526 108 569 157 608 c 1
 206 569 269 526 283 526 c 0
 286 526 297 542 297 561 c 0
 297 573 230 636 202 659 c 0
EndSplineSet
EndChar
StartChar: underscore
Encoding: 95 95 84
Width: 324
VWidth: 0
Flags: HW
PickledData: "(dp1
."
LayerCount: 2
Fore
SplineSet
25 -47 m 1
 25 -65 l 1
 250 -65 l 1
 300 -19 l 1
 300 1 l 1
 75 1 l 1
 25 -47 l 1
EndSplineSet
EndChar
StartChar: grave
Encoding: 96 96 119
Width: 150
VWidth: 0
Flags: HW
PickledData: "(dp1
."
AnchorPoint: "top" 77 525 mark 0
LayerCount: 2
Fore
SplineSet
93 663 m 0
 109 637 134 584 134 561 c 0
 134 542 124 526 121 526 c 0
 111 526 95 532 92 536 c 0
 80 551 17 636 17 656 c 0
 17 662 24 671 56 671 c 0
 75 671 91 667 93 663 c 0
EndSplineSet
EndChar
StartChar: a
Encoding: 97 97 24
Width: 341
VWidth: 0
Flags: HW
PickledData: "(dp1
."
AnchorPoint: "top" 163 525 basechar 0
LayerCount: 2
Fore
SplineSet
300 365 m 2
 300 415 259 475 222 475 c 0
 206 475 77 429 77 429 c 1
 77 404 l 1
 175 404 199 380 199 319 c 1
 199 319 25 268 25 237 c 2
 25 100 l 2
 25 37 96 0 96 0 c 1
 200 56 l 1
 200 24 250 0 250 0 c 1
 341 51 l 1
 341 69 l 1
 317 75 300 85 300 129 c 2
 300 365 l 2
200 93 m 1
 200 93 184 81 168 81 c 0
 146 81 125 100 125 130 c 2
 125 184 l 2
 125 253 156 266 200 282 c 1
 200 93 l 1
EndSplineSet
EndChar
StartChar: b
Encoding: 98 98 8
Width: 430
VWidth: 0
Flags: HW
PickledData: "(dp1
."
LayerCount: 2
Fore
SplineSet
260 108 m 1
 260 108 243 92 220 92 c 0
 180 92 170 126 170 180 c 2
 170 475 l 1
 235 475 260 468 260 358 c 2
 260 108 l 1
139 0 m 0
 165 0 381 79 381 93 c 2
 381 442 l 2
 381 507 322 570 290 570 c 0
 273 570 170 517 170 517 c 1
 170 602 l 2
 170 692 258 737 258 737 c 1
 242 769 l 1
 140 709 10 641 10 641 c 1
 10 613 l 1
 39 613 50 599 50 563 c 2
 50 146 l 2
 50 69 102 0 139 0 c 0
EndSplineSet
EndChar
StartChar: c
Encoding: 99 99 6
Width: 404
VWidth: 0
Flags: HW
PickledData: "(dp1
."
AnchorPoint: "bottom" 111 0 basechar 0
AnchorPoint: "top" 205 630 basechar 0
LayerCount: 2
Fore
SplineSet
394 391 m 1
 388 391 361 392 351 410 c 0
 323 458 311 570 296 570 c 0
 273 570 50 487 50 478 c 2
 50 142 l 2
 50 61 106 0 142 0 c 0
 153 0 317 55 317 55 c 1
 317 84 l 1
 250 84 170 90 170 187 c 2
 170 463 l 1
 170 463 176 473 188 473 c 0
 217 473 233 310 263 310 c 0
 273 310 354 354 394 371 c 1
 394 391 l 1
EndSplineSet
EndChar
StartChar: d
Encoding: 100 100 11
Width: 382
VWidth: 0
Flags: HW
PickledData: "(dp1
."
AnchorPoint: "top" 178 525 basechar 0
AnchorPoint: "bottom" 178 0 basechar 0
LayerCount: 2
Back
SplineSet
199 417 m 0
 172 417 142 397 142 397 c 1
 142 138 l 2
 142 86 166 77 184 77 c 0
 202 77 217 90 217 90 c 1
 237 105 l 1
 237 67 l 1
 217 55 l 1
 171 27 124 0 112 0 c 0
 103 0 42 44 42 101 c 2
 42 398 l 2
 42 403 122 435 182 456 c 1
EndSplineSet
Fore
SplineSet
269 452 m 1
 252 483 l 1
 42 401 l 2
 42 101 l 2
 42 44 112 0 121 0 c 0
 257 82 l 1
 257 119 l 1
 184 77 l 1
 166 77 142 86 142 138 c 2
 142 397 l 1
 269 452 l 1
EndSplineSet
Refer: 13 108 N 1.04142 0 0 1 198.71 0 2
EndChar
StartChar: e
Encoding: 101 101 5
Width: 354
VWidth: 0
Flags: HW
PickledData: "(dp1
S'com.typemytype.robofont.guides'
p2
((dp3
S'y'
F83
sS'x'
F0
sS'magnetic'
p4
I5
sS'angle'
p5
F0
sS'isGlobal'
p6
I00
stp7
s."
AnchorPoint: "bottom" 92 0 basechar 0
AnchorPoint: "top" 178 525 basechar 0
LayerCount: 2
Fore
SplineSet
246 475 m 0
 227 475 42 405 42 398 c 2
 42 118 l 2
 42 51 88 0 118 0 c 0
 127 0 264 46 264 46 c 1
 264 70 l 1
 208 70 142 75 142 156 c 1
 143 156 317 208 317 242 c 2
 317 382 l 2
 317 429 253 475 246 475 c 0
217 283 m 2
 217 228 184 205 142 193 c 1
 142 386 l 1
 142 386 159 398 173 398 c 0
 205 398 217 369 217 342 c 2
 217 283 l 2
EndSplineSet
EndChar
StartChar: f
Encoding: 102 102 22
Width: 266
VWidth: 0
Flags: HW
PickledData: "(dp1
."
LayerCount: 2
Fore
SplineSet
-9 407 m 1
 -9 388 l 1
 42 388 l 1
 42 57 l 2
 42 24 92 0 92 0 c 1
 176 47 l 1
 176 66 l 1
 155 70 142 86 142 123 c 2
 142 388 l 1
 185 388 l 1
 227 409 l 1
 227 429 l 1
 142 429 l 1
 142 551 l 2
 142 568 148 576 157 576 c 0
 181 576 177 503 202 503 c 0
 210 503 261 536 294 550 c 1
 294 566 l 1
 289 566 275 571 267 586 c 0
 244 626 242 641 230 641 c 0
 211 641 42 571 42 547 c 2
 42 429 l 1
 -9 407 l 1
EndSplineSet
EndChar
StartChar: g
Encoding: 103 103 17
Width: 431
VWidth: 0
Flags: HW
PickledData: "(dp1
."
AnchorPoint: "top" 216 630 basechar 0
LayerCount: 2
Fore
SplineSet
292 570 m 0
 266 570 50 491 50 477 c 2
 50 148 l 2
 50 83 89 20 131 20 c 0
 148 20 261 73 261 73 c 1
 215 -31 137 -90 89 -90 c 2
 55 -90 l 1
 55 -120 l 1
 55 -120 167 -180 223 -180 c 0
 250 -180 381 23 381 106 c 2
 381 424 l 2
 381 501 329 570 292 570 c 0
171 462 m 1
 171 462 188 478 211 478 c 0
 251 478 261 444 261 390 c 2
 261 115 l 1
 206 115 171 132 171 232 c 2
 171 462 l 1
EndSplineSet
EndChar
StartChar: h
Encoding: 104 104 23
Width: 358
VWidth: 0
Flags: HW
PickledData: "(dp1
."
AnchorPoint: "top" 176 525 basechar 0
LayerCount: 2
Fore
SplineSet
92 0 m 1
 176 47 l 1
 176 66 l 1
 155 70 142 86 142 123 c 2
 142 396 l 1
 196 396 217 390 217 298 c 2
 217 57 l 2
 217 24 267 0 267 0 c 1
 357 51 l 1
 357 69 l 1
 336 73 317 86 317 123 c 2
 317 368 l 2
 317 422 277 475 242 475 c 0
 228 475 142 431 142 431 c 1
 142 501 l 2
 142 576 215 614 215 614 c 1
 202 641 l 1
 117 591 8 534 8 534 c 1
 8 511 l 1
 32 511 42 499 42 469 c 2
 42 57 l 2
 42 24 92 0 92 0 c 1
EndSplineSet
EndChar
StartChar: i
Encoding: 105 105 20
Width: 220
VWidth: 0
Flags: HW
PickledData: "(dp1
."
LayerCount: 2
Fore
SplineSet
9 513 m 1
 9 491 l 1
 34 486 50 467 50 422 c 2
 50 68 l 2
 50 28 110 0 110 0 c 1
 211 57 l 1
 211 79 l 1
 186 84 170 103 170 148 c 2
 170 502 l 2
 170 542 110 570 110 570 c 1
 9 513 l 1
35 695 m 2
 35 652 57 631 68 631 c 0
 79 631 156 661 156 665 c 2
 156 738 l 2
 156 765 132 790 124 790 c 0
 117 790 35 760 35 756 c 2
 35 695 l 2
EndSplineSet
EndChar
StartChar: j
Encoding: 106 106 26
Width: 183
VWidth: 0
Flags: HW
PickledData: "(dp1
."
LayerCount: 2
Fore
SplineSet
42 94 m 2
 42 -26 30 -75 -10 -75 c 2
 -38 -75 l 1
 -38 -100 l 1
 -38 -100 46 -150 93 -150 c 0
 115 -150 142 -48 142 88 c 2
 142 418 l 2
 142 451 92 475 92 475 c 1
 7 427 l 1
 7 409 l 1
 28 405 42 389 42 352 c 2
 42 94 l 2
29 561 m 2
 29 525 48 507 57 507 c 0
 66 507 130 533 130 536 c 2
 130 596 l 2
 130 618 110 640 103 640 c 0
 97 640 29 614 29 611 c 2
 29 561 l 2
EndSplineSet
EndChar
StartChar: k
Encoding: 107 107 31
Width: 358
VWidth: 0
Flags: HW
PickledData: "(dp1
."
AnchorPoint: "bottom" 176 0 basechar 0
LayerCount: 2
Fore
SplineSet
142 217 m 1
 156 170 226 0 267 0 c 0
 287 0 364 50 364 50 c 1
 364 74 l 1
 364 74 350 74 329 83 c 0
 307 92 270 129 227 243 c 1
 270 260 313 279 313 286 c 2
 313 377 l 2
 313 431 260 475 233 475 c 0
 219 475 142 425 142 425 c 1
 142 501 l 2
 142 576 215 614 215 614 c 1
 202 641 l 1
 117 591 8 534 8 534 c 1
 8 511 l 1
 32 511 42 499 42 469 c 2
 42 57 l 2
 42 24 92 0 92 0 c 1
 176 47 l 1
 176 66 l 1
 155 70 142 86 142 123 c 2
 142 217 l 1
142 390 m 1
 142 390 161 394 168 394 c 0
 201 394 217 370 217 323 c 2
 217 286 l 1
 217 286 161 257 142 257 c 1
 142 390 l 1
EndSplineSet
EndChar
StartChar: l
Encoding: 108 108 13
Width: 220
VWidth: 0
Flags: HW
PickledData: "(dp1
."
AnchorPoint: "bottom" 110 0 basechar 0
AnchorPoint: "top" 110 830 basechar 0
LayerCount: 2
Fore
SplineSet
9 712 m 1
 9 690 l 1
 34 685 50 666 50 621 c 2
 50 68 l 2
 50 28 110 0 110 0 c 1
 211 57 l 1
 211 79 l 1
 186 84 170 103 170 148 c 2
 170 701 l 2
 170 741 110 769 110 769 c 1
 9 712 l 1
EndSplineSet
EndChar
StartChar: m
Encoding: 109 109 4
Width: 583
VWidth: 0
Flags: HW
PickledData: "(dp1
."
LayerCount: 2
Back
SplineSet
92 0 m 1
 176 47 l 1
 176 66 l 1
 155 70 142 86 142 123 c 2
 142 389 l 1
 142 389 161 394 171 394 c 0
 195 394 217 377 217 298 c 2
 217 57 l 2
 217 24 267 0 267 0 c 1
 357 51 l 1
 357 69 l 1
 336 73 317 86 317 123 c 2
 317 387 l 1
 317 387 332 392 341 392 c 0
 365 392 392 382 392 302 c 2
 392 57 l 2
 392 24 441 0 441 0 c 1
 532 51 l 1
 532 69 l 1
 511 73 491 86 491 123 c 2
 491 376 l 2
 491 412 456 475 418 475 c 0
 402 475 333 437 306 424 c 1
 294 451 266 475 243 475 c 0
 226 475 159 431 142 424 c 1
 142 463 92 476 92 476 c 1
 7 426 1 425 1 425 c 1
 1 407 l 1
 25 407 42 374 42 339 c 2
 42 57 l 2
 42 24 92 0 92 0 c 1
EndSplineSet
Fore
SplineSet
442 328 m 2
 442 57 l 2
 442 24 492 0 492 0 c 1
 582 51 l 1
 582 69 l 1
 561 73 542 86 542 123 c 2
 542 368 l 2
 542 422 482 475 447 475 c 0
 447 475 370.139648438 440.83984375 321 419 c 25
 321 389 l 17
 383 411 l 1
 401.799804688 400.602539062 442 385.260742188 442 328 c 2
242 328 m 6
 242 57 l 6
 242 24 292 0 292 0 c 5
 382 51 l 5
 382 69 l 5
 361 73 342 86 342 123 c 6
 342 368 l 6
 342 422 282 475 247 475 c 4
 247 475 170.139648438 440.83984375 121 419 c 29
 121 389 l 21
 183 411 l 5
 201.799804688 400.602539062 242 385.260742188 242 328 c 6
142 424 m 5
 142 463 92 476 92 476 c 5
 7 426 1 425 1 425 c 5
 1 407 l 5
 25 407 42 374 42 339 c 6
 42 57 l 6
 42 24 92 0 92 0 c 5
 176 47 l 5
 176 66 l 5
 155 70 142 86 142 123 c 6
 142 407 l 5
 142 424 l 5
EndSplineSet
EndChar
StartChar: n
Encoding: 110 110 21
Width: 381
VWidth: 0
Flags: HW
PickledData: "(dp1
."
AnchorPoint: "bottom" 178 0 basechar 0
AnchorPoint: "top" 178 525 basechar 0
LayerCount: 2
Back
SplineSet
92 0 m 1
 176 47 l 1
 176 66 l 1
 155 70 142 86 142 123 c 2
 142 389 l 1
 142 389 162 394 169 394 c 0
 206 394 217 355 217 298 c 2
 217 57 l 2
 217 24 267 0 267 0 c 1
 357 51 l 1
 357 69 l 1
 336 73 317 86 317 123 c 2
 317 376 l 2
 317 412 281 475 243 475 c 0
 226 475 159 431 142 424 c 1
 142 463 92 476 92 476 c 1
 7 426 1 425 1 425 c 1
 1 407 l 1
 25 407 42 374 42 339 c 2
 42 57 l 2
 42 24 92 0 92 0 c 1
EndSplineSet
Fore
SplineSet
242 328 m 2
 242 57 l 2
 242 24 292 0 292 0 c 1
 382 51 l 1
 382 69 l 1
 361 73 342 86 342 123 c 2
 342 368 l 2
 342 422 282 475 247 475 c 0
 247 475 170.139648438 440.83984375 121 419 c 25
 121 389 l 17
 183 411 l 1
 201.799804688 400.602539062 242 385.260742188 242 328 c 2
142 424 m 1
 142 463 92 476 92 476 c 1
 7 426 1 425 1 425 c 1
 1 407 l 1
 25 407 42 374 42 339 c 2
 42 57 l 2
 42 24 92 0 92 0 c 1
 176 47 l 1
 176 66 l 1
 155 70 142 86 142 123 c 2
 142 407 l 1
 142 424 l 1
EndSplineSet
EndChar
StartChar: o
Encoding: 111 111 7
Width: 384
VWidth: 0
Flags: HW
PickledData: "(dp1
."
AnchorPoint: "top" 178 525 basechar 0
AnchorPoint: "bottom" 180 0 basechar 0
LayerCount: 2
Back
SplineSet
42 122 m 2
 42 49 91 0 117 0 c 0
 142 0 317 68 317 77 c 2
 317 379 l 2
 317 418 262 475 245 475 c 0
 228 475 42 405 42 398 c 2
 42 122 l 2
217 90 m 1
 217 90 202 77 184 77 c 0
 166 77 142 86 142 138 c 2
 142 385 l 1
 142 385 156 397 174 397 c 0
 192 397 217 388 217 336 c 2
 217 90 l 1
EndSplineSet
Fore
SplineSet
42 122 m 2
 42 49 85 0 127 0 c 9
 342 88 l 25
 342 379 l 2
 342 418 262 475 245 475 c 1
 42 398 l 9
 42 122 l 2
242 95 m 1
 184 76 l 17
 166 76 142 86 142 138 c 2
 142 388 l 1
 174 400 l 1
 192 400 242 388 242 336 c 2
 242 95 l 1
EndSplineSet
EndChar
StartChar: p
Encoding: 112 112 10
Width: 383
VWidth: 0
Flags: HWO
PickledData: "(dp1
."
LayerCount: 2
Back
SplineSet
142 384 m 1
 142 384 157 397 175 397 c 0
 193 397 217 388 217 336 c 2
 217 97 l 2
 217 75 168 53 142 53 c 1
 142 384 l 1
42 -92 m 2
 42 -125 92 -148 92 -148 c 1
 176 -101 l 1
 176 -82 l 1
 155 -78 142 -62 142 -25 c 2
 142 6 l 1
 202 23 317 72 317 77 c 2
 317 373 l 2
 317 430 256 474 247 474 c 0
 235 474 188 447 142 419 c 1
 142 451 92 474 92 474 c 1
 7 424 2 423 2 423 c 1
 2 405 l 1
 30 401 42 368 42 347 c 2
 42 -92 l 2
EndSplineSet
Fore
SplineSet
142 384 m 1
 200 397 l 0
 218 397 242 388 242 336 c 2
 242 97 l 2
 242 75 168 53 142 53 c 1
 142 384 l 1
42 -92 m 2
 42 -125 92 -148 92 -148 c 1
 176 -101 l 1
 176 -82 l 1
 155 -78 142 -62 142 -25 c 2
 142 6 l 1
 202 23 342 72 342 77 c 2
 342 373 l 2
 342 430 281 474 272 474 c 0
 142 419 l 1
 142 451 92 474 92 474 c 1
 7 424 2 423 2 423 c 1
 2 405 l 1
 30 401 42 368 42 347 c 2
 42 -92 l 2
EndSplineSet
EndChar
StartChar: q
Encoding: 113 113 9
Width: 389
VWidth: 0
Flags: HW
PickledData: "(dp1
."
AnchorPoint: "bottom" 178 0 basechar 0
AnchorPoint: "top" 178 525 basechar 0
LayerCount: 2
Back
SplineSet
142 385 m 1
 142 385 157 398 176 398 c 0
 209 398 217 370 217 325 c 2
 217 96 l 1
 171 96 142 110 142 193 c 2
 142 385 l 1
243 475 m 0
 221 475 42 409 42 397 c 2
 42 123 l 2
 42 69 74 17 109 17 c 0
 123 17 217 61 217 61 c 1
 217 -43 l 2
 217 -118 167 -123 167 -123 c 1
 181 -150 l 2
 182 -150 351 -76 351 -76 c 1
 351 -52 l 1
 327 -52 317 -41 317 -11 c 2
 317 353 l 2
 317 417 274 475 243 475 c 0
EndSplineSet
Fore
SplineSet
247 75 m 1
 247 98 l 1
 217 96 l 1
 171 96 142 110 142 193 c 2
 142 385 l 1
 142 385 157 398 176 398 c 0
 209 398 241 370 241 322 c 2
 241 -92 l 2
 241 -125 291 -148 291 -148 c 1
 375 -101 l 1
 375 -82 l 1
 354 -78 341 -62 341 -25 c 2
 341 9 l 1
 341 354 l 1
 341 417 274 475 243 475 c 0
 221 475 42 409 42 397 c 2
 42 123 l 2
 42 69 74 17 109 17 c 1
 247 75 l 1
EndSplineSet
EndChar
StartChar: r
Encoding: 114 114 18
Width: 380
VWidth: 0
Flags: HW
PickledData: "(dp1
."
AnchorPoint: "bottom" 110 0 basechar 0
AnchorPoint: "top" 188 630 basechar 0
LayerCount: 2
Fore
SplineSet
360 451 m 2
 360 494 318 570 272 570 c 0
 251 570 190 518 170 509 c 1
 170 555 111 570 111 570 c 1
 107 570 38 528 1 510 c 1
 1 488 l 1
 21 488 50 465 50 400 c 2
 50 68 l 2
 50 28 110 0 110 0 c 1
 211 57 l 1
 211 79 l 1
 186 84 170 103 170 148 c 2
 170 467 l 1
 240 467 240 441 240 358 c 1
 240 358 259 343 257 344 c 1
 360 402 l 1
 360 451 l 2
EndSplineSet
EndChar
StartChar: s
Encoding: 115 115 30
Width: 405
VWidth: 0
Flags: HW
PickledData: "(dp1
."
AnchorPoint: "top" 188 630 basechar 0
AnchorPoint: "bottom" 233 0 basechar 0
LayerCount: 2
Fore
SplineSet
96 219 m 0
 62 219 35 277 35 350 c 2
 35 458 l 2
 35 487 248 570 261 570 c 0
 276 570 287 543 315 495 c 0
 325 477 342 471 348 471 c 1
 348 451 l 1
 308 434 247 395 237 395 c 0
 207 395 202 493 173 493 c 0
 162 493 155 484 155 463 c 2
 155 340 l 1
 155 340 155 300 173 300 c 0
 183 300 284 352 305 352 c 0
 336 352 366 298 366 215 c 2
 366 102 l 2
 366 73 133 -10 120 -10 c 0
 105 -10 94 37 66 85 c 0
 56 103 39 109 33 109 c 1
 33 129 l 1
 73 146 134 185 144 185 c 0
 174 185 189 67 218 67 c 0
 229 67 246 76 246 97 c 2
 246 222 l 1
 246 222 246 267 221 267 c 0
 205 267 110 219 96 219 c 0
EndSplineSet
EndChar
StartChar: t
Encoding: 116 116 16
Width: 183
VWidth: 0
Flags: HW
PickledData: "(dp1
."
LayerCount: 2
Fore
SplineSet
7 421 m 1
 42 421 l 1
 42 57 l 2
 42 24 92 0 92 0 c 1
 176 47 l 1
 176 66 l 1
 155 70 142 86 142 123 c 2
 142 421 l 1
 176 421 l 1
 184 462 l 1
 142 462 l 1
 142 561 l 1
 118 561 l 1
 109 506 46 456 16 456 c 1
 7 421 l 1
EndSplineSet
EndChar
StartChar: u
Encoding: 117 117 25
Width: 358
VWidth: 0
Flags: HW
PickledData: "(dp1
."
AnchorPoint: "top" 180 525 basechar 0
AnchorPoint: "bottom" 267 0 basechar 0
LayerCount: 2
Fore
SplineSet
267 476 m 1
 182 428 l 1
 182 410 l 1
 203 406 217 389 217 352 c 2
 217 93 l 1
 217 93 201 81 185 81 c 0
 163 81 142 100 142 130 c 2
 142 419 l 2
 142 452 92 476 92 476 c 1
 1 425 l 1
 1 407 l 1
 22 403 42 389 42 352 c 2
 42 100 l 2
 42 37 112 0 112 0 c 1
 217 56 l 1
 217 23 267 0 267 0 c 1
 352 50 357 51 357 51 c 1
 357 69 l 1
 333 69 317 102 317 137 c 2
 317 419 l 2
 317 452 267 476 267 476 c 1
EndSplineSet
EndChar
StartChar: v
Encoding: 118 118 28
Width: 358
VWidth: 0
Flags: HW
PickledData: "(dp1
."
LayerCount: 2
Fore
SplineSet
142 424 m 1
 142 419 l 2
 142 452 92 476 92 476 c 1
 1 425 l 1
 1 407 l 1
 22 403 42 389 42 352 c 2
 42 108 l 2
 42 71 77 0 112 0 c 0
 149 0 317 68 317 77 c 2
 317 361 l 2
 317 420 275 475 243 475 c 1
 142 424 l 1
217 311 m 2
 217 75 l 1
 217 75 193 62 177 62 c 0
 164 62 142 82 142 112 c 2
 142 396 l 1
 196 396 217 386 217 311 c 2
EndSplineSet
EndChar
StartChar: w
Encoding: 119 119 29
Width: 533
VWidth: 0
Flags: HW
PickledData: "(dp1
S'com.typemytype.robofont.guides'
p2
((dp3
S'y'
F475
sS'x'
F0
sS'magnetic'
p4
I5
sS'angle'
p5
F0
sS'isGlobal'
p6
I00
stp7
s."
AnchorPoint: "top" 266 525 basechar 0
LayerCount: 2
Fore
SplineSet
217 88 m 1
 208 85 198 83 191 83 c 0
 159 83 142 112 142 162 c 2
 142 420 l 2
 142 452 92 476 92 476 c 1
 1 425 l 1
 1 407 l 1
 22 403 42 389 42 352 c 2
 42 101 l 2
 42 64 77 0 112 0 c 0
 127 0 180 25 227 52 c 1
 240 25 264 0 287 0 c 0
 324 0 492 68 492 77 c 2
 492 352 l 2
 492 444 433 475 417 475 c 0
 416 475 319 426 317 424 c 1
 310 451 274 475 267 475 c 0
 266 475 176 425 176 425 c 1
 176 407 l 1
 176 407 217 403 217 352 c 2
 217 88 l 1
392 89 m 1
 392 89 375 82 359 82 c 0
 329 82 317 124 317 154 c 2
 317 396 l 1
 365 395 392 384 392 322 c 2
 392 89 l 1
EndSplineSet
EndChar
StartChar: x
Encoding: 120 120 32
Width: 436
VWidth: 0
Flags: HW
PickledData: "(dp1
."
LayerCount: 2
Fore
SplineSet
12 509 m 1
 116 570 l 1
 144 570 l 1
 261 334 l 1
 271 339 286 346 286 346 c 1
 286 425 l 2
 286 490 245 492 245 492 c 1
 245 514 l 1
 341 571 l 1
 346 571 401 537 401 506 c 2
 401 350 l 2
 401 337 321 305 285 292 c 1
 386 104 l 1
 386 104 399 83 440 83 c 1
 440 61 l 1
 331 0 l 1
 303 0 l 1
 177 253 l 1
 169 250 150 240 150 240 c 1
 150 146 l 2
 150 81 191 79 191 79 c 1
 191 57 l 1
 95 0 l 1
 90 0 35 34 35 65 c 2
 35 236 l 2
 35 248 116 282 154 296 c 1
 76 455 l 2
 60 488 37 488 12 488 c 1
 12 509 l 1
EndSplineSet
EndChar
StartChar: y
Encoding: 121 121 27
Width: 359
VWidth: 0
Flags: HW
PickledData: "(dp1
."
AnchorPoint: "top" 180 525 basechar 0
LayerCount: 2
Fore
SplineSet
317 419 m 2
 317 452 267 476 267 476 c 1
 183 428 l 1
 183 410 l 1
 204 406 217 389 217 352 c 2
 217 96 l 1
 171 96 142 110 142 193 c 2
 142 419 l 2
 142 452 92 476 92 476 c 1
 2 425 l 1
 2 407 l 1
 23 403 42 389 42 352 c 2
 42 123 l 2
 42 69 74 17 109 17 c 0
 123 17 217 61 217 61 c 1
 179 -26 114 -75 74 -75 c 2
 46 -75 l 1
 46 -100 l 1
 46 -100 139 -150 186 -150 c 0
 208 -150 317 19 317 88 c 2
 317 419 l 2
EndSplineSet
EndChar
StartChar: z
Encoding: 122 122 52
Width: 370
VWidth: 0
Flags: HW
PickledData: "(dp1
."
AnchorPoint: "top" 188 630 basechar 0
LayerCount: 2
Fore
SplineSet
281 594 m 1
 276 574 257 561 212 561 c 2
 78 561 l 2
 38 561 10 512 10 512 c 1
 67 430 l 1
 89 430 l 1
 94 450 113 463 158 463 c 2
 245 463 l 1
 10 95 l 1
 10 61 30 0 30 0 c 1
 292 0 l 2
 332 0 360 49 360 49 c 1
 303 131 l 1
 281 131 l 1
 276 111 257 98 212 98 c 2
 133 98 l 1
 360 464 l 1
 360 477 322 567 303 594 c 1
 281 594 l 1
EndSplineSet
EndChar
StartChar: braceleft
Encoding: 123 123 89
Width: 184
VWidth: 0
Flags: HW
PickledData: "(dp1
."
LayerCount: 2
Fore
SplineSet
125 86 m 2
 125 49 163 24 184 20 c 1
 184 2 l 1
 92 -37 l 1
 92 -37 42 -14 42 19 c 2
 42 222 l 2
 42 259 4 283 -17 287 c 1
 -17 306 l 1
 4 310 42 335 42 372 c 2
 42 585 l 2
 42 618 92 641 92 641 c 1
 184 602 l 1
 184 584 l 1
 163 580 125 555 125 518 c 2
 125 344 l 2
 125 322 106 307 92 297 c 1
 106 287 125 270 125 250 c 2
 125 86 l 2
EndSplineSet
EndChar
StartChar: bar
Encoding: 124 124 94
Width: 149
VWidth: 0
Flags: HW
PickledData: "(dp1
."
LayerCount: 2
Fore
SplineSet
108 -91 m 1
 108 632 l 1
 88 632 l 1
 42 582 l 1
 42 -141 l 1
 60 -141 l 1
 108 -91 l 1
EndSplineSet
EndChar
StartChar: braceright
Encoding: 125 125 90
Width: 221
VWidth: 0
Flags: HW
PickledData: "(dp1
."
LayerCount: 2
Fore
SplineSet
70 103 m 2
 70 58 24 29 -1 24 c 1
 -1 2 l 1
 110 -45 l 1
 110 -45 170 -17 170 23 c 2
 170 266 l 2
 170 311 216 340 241 345 c 1
 241 367 l 1
 216 372 170 401 170 446 c 2
 170 702 l 2
 170 742 110 770 110 770 c 1
 -1 723 l 1
 -1 701 l 1
 24 696 70 667 70 622 c 2
 70 413 l 2
 70 387 93 368 110 356 c 1
 93 344 70 324 70 300 c 2
 70 103 l 2
EndSplineSet
EndChar
StartChar: asciitilde
Encoding: 126 126 126
Width: 370
VWidth: 0
Flags: HW
PickledData: "(dp1
."
AnchorPoint: "top" 184 630 mark 0
LayerCount: 2
Fore
SplineSet
311 743 m 1
 291 743 l 1
 285 728 259 718 231 718 c 0
 195 718 138 745 88 745 c 0
 51 745 20 705 20 705 c 1
 58 632 l 1
 79 632 l 1
 85 647 111 659 139 659 c 0
 192 659 232 630 282 630 c 0
 319 630 350 670 350 670 c 1
 311 743 l 1
EndSplineSet
EndChar
StartChar: exclamdown
Encoding: 161 161 78
Width: 183
VWidth: 0
Flags: HW
PickledData: "(dp1
."
LayerCount: 2
Fore
SplineSet
7 335 m 1
 7 317 l 1
 28 313 42 296 42 259 c 2
 42 -92 l 2
 42 -125 92 -149 92 -149 c 1
 176 -102 l 1
 176 -83 l 1
 155 -79 142 -63 142 -26 c 2
 142 326 l 2
 142 359 92 382 92 382 c 1
 7 335 l 1
29 478 m 2
 29 442 48 425 57 425 c 0
 66 425 130 450 130 453 c 2
 130 514 l 2
 130 536 110 557 103 557 c 0
 97 557 29 532 29 529 c 2
 29 478 l 2
EndSplineSet
EndChar
StartChar: cent
Encoding: 162 162 106
Width: 336
VWidth: 0
Flags: HW
PickledData: "(dp1
."
LayerCount: 2
Fore
SplineSet
212 -49 m 1
 212 28 l 1
 240 37 264 46 264 46 c 1
 264 70 l 1
 208 70 142 75 142 156 c 2
 142 386 l 1
 142 386 147 394 157 394 c 0
 181 394 194 258 219 258 c 0
 227 258 295 295 328 309 c 1
 328 326 l 1
 323 326 300 327 292 342 c 0
 269 382 259 475 247 475 c 0
 241 475 217 468 190 458 c 1
 190 565 l 1
 170 565 l 1
 123 515 l 1
 123 434 l 1
 80 417 42 401 42 398 c 2
 42 118 l 2
 42 51 88 0 118 0 c 0
 120 0 131 2 146 7 c 1
 146 -99 l 1
 164 -99 l 1
 212 -49 l 1
EndSplineSet
EndChar
StartChar: sterling
Encoding: 163 163 152
Width: 404
VWidth: 0
Flags: HW
PickledData: "(dp1
."
LayerCount: 2
Fore
SplineSet
50 349 m 1
 50 106 l 2
 50 97 50 77 31 77 c 0
 7 77 4 165 -20 165 c 0
 -34 165 -89 128 -133 109 c 1
 -133 89 l 1
 -133 89 -111 88 -95 57 c 0
 -81 30 -71 0 -57 0 c 0
 -40 0 67 44 96 56 c 1
 130 21 173 0 190 0 c 0
 217 0 335 55 348 55 c 1
 348 84 l 1
 170 84 170 128 170 250 c 2
 170 350 l 1
 261 350 l 1
 311 375 l 1
 311 399 l 1
 170 399 l 1
 170 663 l 1
 170 663 176 673 188 673 c 0
 217 673 233 510 263 510 c 0
 273 510 354 554 394 571 c 1
 394 591 l 1
 388 591 361 592 351 610 c 0
 323 658 311 770 296 770 c 0
 273 770 50 687 50 678 c 2
 50 399 l 1
 19 399 l 1
 -31 374 l 1
 -31 349 l 1
 50 349 l 1
EndSplineSet
EndChar
StartChar: currency
Encoding: 164 164 380
Width: 359
VWidth: 0
Flags: HW
PickledData: "(dp1
."
LayerCount: 2
Fore
SplineSet
-7 79 m 1
 -7 53 l 1
 61 53 l 1
 87 80 l 1
 97 71 109 66 117 66 c 0
 132 66 201 90 253 112 c 1
 265 100 278 86 287 78 c 1
 355 78 l 1
 355 104 l 1
 317 142 317 142 317 143 c 2
 317 304 l 2
 317 313 314 324 309 335 c 1
 357 383 l 1
 357 412 l 1
 292 412 l 1
 267 387 l 1
 258 394 250 400 245 400 c 0
 234 400 162 375 107 353 c 1
 65 395 l 1
 -1 395 l 1
 -1 367 l 1
 42 323 l 1
 42 187 l 2
 42 168 44 151 50 136 c 1
 -7 79 l 1
217 156 m 1
 217 156 202 142 184 142 c 0
 166 142 142 152 142 204 c 2
 142 310 l 1
 142 310 156 322 174 322 c 0
 192 322 217 313 217 261 c 2
 217 156 l 1
EndSplineSet
EndChar
StartChar: yen
Encoding: 165 165 105
Width: 359
VWidth: 0
Flags: HW
PickledData: "(dp1
."
LayerCount: 2
Fore
SplineSet
-24 332 m 1
 -24 313 l 1
 42 313 l 1
 42 290 l 2
 42 276 44 261 48 249 c 1
 22 249 l 1
 -28 202 l 1
 -28 183 l 1
 109 183 l 2
 123 183 217 227 217 227 c 1
 217 110 217 70 69 70 c 1
 69 47 l 1
 69 47 176 0 198 0 c 0
 220 0 317 52 317 121 c 2
 317 183 l 1
 334 183 l 1
 384 229 l 1
 384 249 l 1
 317 249 l 1
 317 313 l 1
 334 313 l 1
 384 359 l 1
 384 379 l 1
 317 379 l 1
 317 531 l 2
 317 615 368 616 368 616 c 1
 355 641 l 1
 184 571 l 1
 184 545 l 1
 208 545 217 530 217 500 c 2
 217 262 l 1
 171 262 142 277 142 360 c 2
 142 586 l 2
 142 619 92 642 92 642 c 1
 2 591 l 1
 2 573 l 1
 23 569 42 556 42 519 c 2
 42 379 l 1
 26 379 l 1
 -24 332 l 1
EndSplineSet
EndChar
StartChar: brokenbar
Encoding: 166 166 95
Width: 180
VWidth: 0
Flags: HW
PickledData: "(dp1
."
LayerCount: 2
Fore
SplineSet
130 385 m 1
 130 759 l 1
 106 759 l 1
 50 699 l 1
 50 325 l 1
 72 325 l 1
 130 385 l 1
130 -110 m 1
 130 264 l 1
 106 264 l 1
 50 204 l 1
 50 -170 l 1
 72 -170 l 1
 130 -110 l 1
EndSplineSet
EndChar
StartChar: section
Encoding: 167 167 85
Width: 360
VWidth: 0
Flags: HW
PickledData: "(dp1
."
LayerCount: 2
Fore
SplineSet
304 542 m 1
 304 559 l 1
 304 559 287 559 274 583 c 0
 262 605 245 641 232 641 c 0
 219 641 43 571 43 549 c 2
 43 479 l 2
 43 455 46 400 77 377 c 0
 77 376 43 360 43 347 c 2
 43 267 l 1
 43 267 47 175 93 175 c 0
 105 175 189 215 197 215 c 0
 205 215 219 208 219 175 c 2
 219 87 l 1
 219 87 217 65 196 65 c 0
 175 65 155 155 135 155 c 0
 123 155 79 123 42 108 c 1
 42 92 l 1
 42 92 59 91 70 71 c 0
 81 51 101 0 114 0 c 0
 127 0 319 72 319 93 c 2
 319 174 l 1
 319 174 319 238 287 268 c 1
 288 268 319 285 319 295 c 2
 319 353 l 1
 319 353 317 476 269 476 c 0
 246 476 169 433 158 433 c 0
 147 433 143 454 143 466 c 2
 143 554 l 1
 143 554 144 577 157 577 c 0
 170 577 176 562 180 549 c 0
 184 536 197 496 211 496 c 0
 219 496 304 542 304 542 c 1
218 261 m 1
 218 261 204 247 186 247 c 0
 168 247 143 257 143 309 c 2
 143 382 l 1
 143 382 158 395 176 395 c 0
 194 395 218 385 218 333 c 2
 218 261 l 1
EndSplineSet
EndChar
StartChar: dieresis
Encoding: 168 168 107
Width: 388
VWidth: 0
Flags: HW
PickledData: "(dp1
."
AnchorPoint: "top" 194 630 mark 0
LayerCount: 2
Fore
SplineSet
36 688 m 2
 36 649 56 630 66 630 c 0
 76 630 145 657 145 661 c 2
 145 726 l 2
 145 751 123 773 116 773 c 0
 110 773 36 746 36 742 c 2
 36 688 l 2
243 688 m 2
 243 649 263 630 273 630 c 0
 283 630 352 657 352 661 c 2
 352 726 l 2
 352 751 330 773 323 773 c 0
 317 773 243 746 243 742 c 2
 243 688 l 2
EndSplineSet
EndChar
StartChar: copyright
Encoding: 169 169 376
Width: 466
VWidth: 0
Flags: HW
PickledData: "(dp1
."
LayerCount: 2
Fore
SplineSet
334 288 m 1
 330 288 314 289 307 300 c 0
 290 329 283 397 274 397 c 0
 260 397 132 347 132 342 c 2
 132 203 l 2
 132 154 166 117 188 117 c 0
 195 117 295 150 295 150 c 1
 295 167 l 1
 254 167 206 172 206 231 c 2
 206 332 l 1
 206 332 210 338 217 338 c 0
 234 338 244 239 262 239 c 0
 268 239 309 266 334 276 c 1
 334 288 l 1
41 122 m 2
 41 49 90 0 116 0 c 0
 153 0 425 68 425 77 c 2
 425 418 l 2
 425 457 369 514 352 514 c 0
 323 514 41 444 41 437 c 2
 41 122 l 2
382 101 m 1
 382 101 241 48 143 48 c 0
 99 48 82 56 82 138 c 2
 82 414 l 1
 82 414 261 470 332 470 c 0
 374 470 382 457 382 375 c 2
 382 101 l 1
EndSplineSet
EndChar
StartChar: ordfeminine
Encoding: 170 170 232
Width: 275
VWidth: 0
Flags: HW
PickledData: "(dp1
S'com.typemytype.robofont.guides'
p2
((dp3
S'y'
F448
sS'x'
F0
sS'magnetic'
p4
I5
sS'angle'
p5
F0
sS'isGlobal'
p6
I00
stp7
s."
LayerCount: 2
Fore
SplineSet
227 576 m 2
 227 609 201 641 175 641 c 0
 164 641 77 611 77 611 c 1
 77 593 l 1
 143 593 160 569 160 545 c 1
 160 545 42 509 42 490 c 2
 42 437 l 2
 42 396 90 371 90 371 c 1
 160 409 l 1
 160 387 193 371 193 371 c 1
 255 406 l 1
 255 418 l 1
 239 421 227 427 227 457 c 2
 227 576 l 2
160 434 m 1
 160 434 149 425 137 425 c 0
 124 425 109 437 109 458 c 2
 109 461 l 2
 109 500 130 508 160 519 c 1
 160 434 l 1
EndSplineSet
EndChar
StartChar: guillemotleft
Encoding: 171 171 109
Width: 601
VWidth: 0
Flags: HW
PickledData: "(dp1
."
LayerCount: 2
Fore
SplineSet
269 96 m 1
 281 117 l 1
 267 188 l 1
 100 277 l 1
 267 369 l 1
 281 437 l 1
 269 458 l 1
 20 307 l 1
 28 277 l 1
 20 247 l 1
 269 96 l 1
549 96 m 1
 561 117 l 1
 547 188 l 1
 380 277 l 1
 547 369 l 1
 561 437 l 1
 549 458 l 1
 300 307 l 1
 308 277 l 1
 300 247 l 1
 549 96 l 1
EndSplineSet
EndChar
StartChar: logicalnot
Encoding: 172 172 96
Width: 317
VWidth: 0
Flags: HW
PickledData: "(dp1
."
LayerCount: 2
Fore
SplineSet
292 172 m 1
 292 263 l 2
 292 282 293 283 272 283 c 2
 75 283 l 1
 25 236 l 1
 25 217 l 1
 226 217 l 1
 226 122 l 1
 244 122 l 1
 292 172 l 1
EndSplineSet
EndChar
StartChar: registered
Encoding: 174 174 377
Width: 560
VWidth: 0
Flags: HW
PickledData: "(dp1
."
LayerCount: 2
Fore
SplineSet
49 146 m 2
 49 58 108 0 139 0 c 0
 183 0 510 82 510 93 c 2
 510 502 l 2
 510 549 444 617 423 617 c 0
 388 617 49 534 49 525 c 2
 49 146 l 2
459 121 m 1
 459 121 290 58 172 58 c 0
 119 58 99 67 99 166 c 2
 99 497 l 1
 99 497 313 564 398 564 c 0
 448 564 459 549 459 450 c 2
 459 121 l 1
314 333 m 2
 314 315 273 297 252 297 c 1
 252 400 l 1
 252 400 263 410 279 410 c 0
 294 410 314 403 314 359 c 2
 314 333 l 2
168 214 m 2
 168 149 133 143 127 143 c 1
 138 121 l 1
 280 180 l 1
 280 202 l 1
 256 202 252 218 252 250 c 2
 252 265 l 1
 260 267 l 1
 262 245 320 143 355 143 c 0
 372 143 437 184 437 184 c 1
 437 205 l 1
 379 205 339 232 323 290 c 1
 361 305 398 321 398 325 c 2
 398 397 l 2
 398 429 352 477 338 477 c 0
 330 477 290 454 252 430 c 1
 251 456 210 477 210 477 c 1
 141 437 l 1
 141 421 l 1
 157 417 168 406 168 373 c 2
 168 214 l 2
EndSplineSet
EndChar
StartChar: macron
Encoding: 175 175 129
Width: 370
VWidth: 0
Flags: HW
PickledData: "(dp1
."
AnchorPoint: "top" 184 630 mark 0
LayerCount: 2
Fore
SplineSet
29 652 m 1
 29 630 l 1
 300 630 l 1
 350 675 l 1
 350 699 l 1
 79 699 l 1
 29 652 l 1
EndSplineSet
EndChar
StartChar: degree
Encoding: 176 176 234
Width: 263
VWidth: 0
Flags: HW
PickledData: "(dp1
."
LayerCount: 2
Fore
SplineSet
42 506 m 2
 42 459 73 426 90 426 c 0
 107 426 222 470 222 476 c 2
 222 579 l 2
 222 605 186 641 174 641 c 0
 162 641 42 597 42 591 c 2
 42 506 l 2
155 486 m 1
 155 486 146 476 134 476 c 0
 122 476 107 482 107 516 c 2
 107 581 l 1
 107 581 115 591 128 591 c 0
 139 591 155 584 155 551 c 2
 155 486 l 1
EndSplineSet
EndChar
StartChar: plusminus
Encoding: 177 177 238
Width: 421
VWidth: 0
Flags: HW
PickledData: "(dp1
."
LayerCount: 2
Fore
SplineSet
30 106 m 1
 30 84 l 1
 331 84 l 1
 391 139 l 1
 391 163 l 1
 90 163 l 1
 30 106 l 1
171 511 m 1
 171 431 l 1
 90 431 l 1
 30 374 l 1
 30 352 l 1
 171 352 l 1
 171 210 l 1
 195 210 l 1
 250 270 l 1
 250 352 l 1
 331 352 l 1
 391 407 l 1
 391 431 l 1
 250 431 l 1
 250 571 l 1
 228 571 l 1
 171 511 l 1
EndSplineSet
EndChar
StartChar: twosuperior
Encoding: 178 178 215
Width: 258
VWidth: 0
Flags: HW
PickledData: "(dp1
S'com.typemytype.robofont.guides'
p2
((dp3
S'y'
F449
sS'x'
F0
sS'magnetic'
p4
I5
sS'angle'
p5
F0
sS'isGlobal'
p6
I00
stp7
s."
LayerCount: 2
Fore
SplineSet
42 590 m 2
 42 594 157 641 170 641 c 0
 185 641 217 595 217 577 c 2
 217 522 l 2
 217 486 110 420 110 420 c 1
 159 420 l 2
 168 420 191 430 198 447 c 1
 197 447 208 446 208 446 c 1
 241 402 l 1
 241 402 226 374 198 374 c 2
 39 374 l 1
 39 374 27 404 27 426 c 0
 27 445 150 509 150 526 c 2
 150 548 l 2
 150 580 141 596 124 596 c 0
 114 596 102 585 102 585 c 1
 102 556 l 2
 102 544 102 536 85 529 c 1
 34 506 l 1
 26 514 l 1
 26 514 42 532 42 550 c 2
 42 590 l 2
EndSplineSet
EndChar
StartChar: threesuperior
Encoding: 179 179 216
Width: 258
VWidth: 0
Flags: HW
PickledData: "(dp1
."
LayerCount: 2
Fore
SplineSet
216 482 m 2
 216 498 204 511 187 526 c 1
 204 534 217 544 217 550 c 2
 217 587 l 2
 217 613 180 641 168 641 c 0
 156 641 42 592 42 588 c 2
 42 562 l 2
 42 541 27 526 27 526 c 1
 36 518 l 1
 77 538 l 2
 99 549 102 551 102 560 c 2
 102 574 l 2
 102 589 115 600 127 600 c 0
 138 600 150 590 150 564 c 2
 150 541 l 1
 121 529 77 505 77 505 c 1
 82 484 l 1
 82 484 105 496 122 496 c 0
 149 496 150 466 150 454 c 2
 150 444 l 2
 150 433 149 410 128 410 c 0
 111 410 102 418 102 433 c 0
 102 445 101 460 99 460 c 0
 84 460 27 436 27 436 c 1
 27 425 l 1
 27 425 45 423 50 416 c 1
 58 400 58 371 73 371 c 0
 92 371 216 409 216 426 c 2
 216 482 l 2
EndSplineSet
EndChar
StartChar: acute
Encoding: 180 180 118
Width: 181
VWidth: 0
Flags: HW
PickledData: "(dp1
."
AnchorPoint: "top" 90 630 mark 0
LayerCount: 2
Fore
SplineSet
69 796 m 0
 50 765 20 702 20 674 c 0
 20 651 32 631 36 631 c 0
 48 631 67 638 71 643 c 0
 85 661 161 763 161 787 c 0
 161 794 153 806 114 806 c 0
 91 806 72 801 69 796 c 0
EndSplineSet
EndChar
StartChar: mu
Encoding: 181 181 125
Width: 358
VWidth: 0
Flags: HW
PickledData: "(dp1
."
LayerCount: 2
Fore
SplineSet
267 476 m 1
 182 428 l 1
 182 410 l 1
 203 406 217 389 217 352 c 2
 217 93 l 1
 217 93 201 81 185 81 c 0
 163 81 142 100 142 130 c 2
 142 419 l 2
 142 452 92 476 92 476 c 1
 1 425 l 1
 1 407 l 1
 22 403 42 389 42 352 c 2
 42 -42 l 2
 42 -117 -8 -122 -8 -122 c 1
 5 -149 l 2
 6 -149 175 -75 175 -75 c 1
 175 -52 l 1
 151 -52 142 -40 142 -10 c 2
 142 16 l 1
 217 56 l 1
 217 23 267 0 267 0 c 1
 352 50 357 51 357 51 c 1
 357 69 l 1
 333 69 317 102 317 137 c 2
 317 419 l 2
 317 452 267 476 267 476 c 1
EndSplineSet
EndChar
StartChar: paragraph
Encoding: 182 182 100
Width: 359
VWidth: 0
Flags: HW
PickledData: "(dp1
."
LayerCount: 2
Fore
SplineSet
180 113 m 2
 180 48 174 -15 133 -15 c 1
 147 -42 l 1
 232 -6 l 1
 232 626 l 1
 157 605 42 574 42 549 c 2
 42 287 l 2
 42 214 91 166 117 166 c 0
 125 166 153 175 180 185 c 1
 180 113 l 2
266 9 m 1
 352 45 l 1
 352 71 l 1
 318 71 317 102 317 128 c 2
 317 562 l 2
 317 607 317 641 293 641 c 0
 290 641 283 641 266 636 c 1
 266 9 l 1
EndSplineSet
EndChar
StartChar: cedilla
Encoding: 184 184 142
Width: 198
VWidth: 0
Flags: HW
PickledData: "(dp1
."
AnchorPoint: "bottom" 64 0 mark 0
LayerCount: 2
Fore
SplineSet
93 -28 m 0
 93 -13 100 6 107 32 c 1
 41 32 l 1
 41 32 20 -8 20 -42 c 0
 20 -70 31 -101 44 -101 c 0
 49 -101 95 -83 102 -83 c 0
 112 -83 112 -100 112 -100 c 1
 112 -111 l 2
 112 -120 106 -121 101 -123 c 0
 77 -131 38 -146 38 -148 c 0
 38 -167 50 -169 53 -169 c 0
 58 -169 178 -137 178 -126 c 2
 178 -85 l 2
 178 -53 167 -27 154 -27 c 0
 147 -27 104 -43 100 -43 c 0
 94 -43 93 -38 93 -28 c 0
EndSplineSet
EndChar
StartChar: onesuperior
Encoding: 185 185 214
Width: 149
VWidth: 0
Flags: HW
PickledData: "(dp1
."
LayerCount: 2
Fore
SplineSet
2 605 m 1
 2 592 l 1
 16 590 42 585 42 560 c 2
 42 445 l 2
 42 395 8 392 8 392 c 1
 17 374 l 2
 18 374 130 423 130 423 c 1
 130 438 l 1
 114 438 108 446 108 466 c 2
 108 604 l 2
 108 626 75 641 75 641 c 1
 2 605 l 1
EndSplineSet
EndChar
StartChar: ordmasculine
Encoding: 186 186 233
Width: 263
VWidth: 0
Flags: HW
PickledData: "(dp1
."
LayerCount: 2
Fore
SplineSet
42 450 m 2
 42 403 73 371 90 371 c 0
 107 371 222 415 222 421 c 2
 222 579 l 2
 222 605 186 641 174 641 c 0
 162 641 42 597 42 591 c 2
 42 450 l 2
155 431 m 1
 155 431 146 421 134 421 c 0
 122 421 107 427 107 461 c 2
 107 581 l 1
 107 581 115 591 128 591 c 0
 139 591 155 584 155 551 c 2
 155 431 l 1
EndSplineSet
EndChar
StartChar: guillemotright
Encoding: 187 187 110
Width: 601
VWidth: 0
Flags: HW
PickledData: "(dp1
."
LayerCount: 2
Fore
SplineSet
332 96 m 1
 320 117 l 1
 334 188 l 1
 501 277 l 1
 334 369 l 1
 320 437 l 1
 332 458 l 1
 581 307 l 1
 573 277 l 1
 581 247 l 1
 332 96 l 1
52 96 m 1
 40 117 l 1
 54 188 l 1
 221 277 l 1
 54 369 l 1
 40 437 l 1
 52 458 l 1
 301 307 l 1
 293 277 l 1
 301 247 l 1
 52 96 l 1
EndSplineSet
EndChar
StartChar: onehalf
Encoding: 189 189 231
Width: 537
VWidth: 0
Flags: HW
PickledData: "(dp1
."
LayerCount: 2
Fore
SplineSet
297 217 m 2
 297 221 413 268 426 268 c 0
 441 268 472 222 472 204 c 2
 472 149 l 2
 472 113 366 47 366 47 c 1
 415 47 l 2
 424 47 447 57 454 74 c 1
 453 74 464 73 464 73 c 1
 496 28 l 1
 496 28 482 1 454 1 c 2
 295 1 l 1
 295 1 283 31 283 53 c 0
 283 72 406 136 406 153 c 2
 406 175 l 2
 406 207 397 223 380 223 c 0
 370 223 358 212 358 212 c 1
 358 183 l 2
 358 171 358 163 341 156 c 1
 290 132 l 1
 282 141 l 1
 282 141 297 159 297 177 c 2
 297 217 l 2
42 580 m 1
 42 567 l 1
 56 565 81 560 81 535 c 2
 81 420 l 2
 81 370 47 367 47 367 c 1
 57 349 l 2
 58 349 169 398 169 398 c 1
 169 413 l 1
 153 413 147 421 147 441 c 2
 147 579 l 2
 147 601 114 616 114 616 c 1
 42 580 l 1
EndSplineSet
Refer: 112 47 N 1 0 0 1 137 0 2
EndChar
StartChar: questiondown
Encoding: 191 191 76
Width: 342
VWidth: 0
Flags: HW
PickledData: "(dp1
."
LayerCount: 2
Fore
SplineSet
202 235 m 1
 202 235 42 136 42 88 c 2
 42 -56 l 2
 42 -83 90 -150 111 -150 c 0
 132 -150 302 -79 302 -73 c 2
 302 22 l 2
 302 50 324 75 324 75 c 1
 312 87 l 1
 226 45 l 2
 203 34 202 23 202 6 c 2
 202 -62 l 1
 202 -62 190 -79 175 -79 c 0
 148 -79 142 -60 142 -13 c 2
 142 83 l 2
 142 126 301 197 301 216 c 2
 301 328 l 2
 301 355 259 382 252 382 c 0
 249 382 167 335 167 335 c 1
 167 317 l 1
 167 317 202 316 202 258 c 2
 202 235 l 1
302 505 m 2
 302 541 283 558 274 558 c 0
 265 558 201 533 201 530 c 2
 201 469 l 2
 201 447 220 426 227 426 c 0
 233 426 302 451 302 454 c 2
 302 505 l 2
EndSplineSet
EndChar
StartChar: Agrave
Encoding: 192 192 276
Width: 359
VWidth: 0
Flags: HW
PickledData: "(dp1
."
LayerCount: 2
Fore
SplineSet
147 813 m 0
 163 787 188 734 188 711 c 0
 188 692 178 676 175 676 c 0
 165 676 149 682 146 686 c 0
 134 701 71 786 71 806 c 0
 71 812 78 821 110 821 c 0
 129 821 145 817 147 813 c 0
EndSplineSet
Refer: 12 65 N 1 0 0 1 0 0 2
EndChar
StartChar: Acircumflex
Encoding: 194 194 278
Width: 359
VWidth: 0
Flags: HW
PickledData: "(dp1
."
LayerCount: 2
Fore
SplineSet
42 85 m 2
 42 8 -1 0 -8 0 c 1
 5 -27 l 1
 176 45 l 1
 176 71 l 1
 147 71 142 91 142 128 c 2
 142 285 l 1
 217 285 l 1
 217 57 l 2
 217 24 267 0 267 0 c 1
 357 51 l 1
 357 69 l 1
 336 73 317 86 317 123 c 2
 317 285 l 1
 358 306 l 1
 358 326 l 1
 317 326 l 1
 317 544 l 2
 317 583 262 640 245 640 c 0
 228 640 42 570 42 563 c 2
 42 85 l 2
142 550 m 1
 142 550 156 562 174 562 c 0
 192 562 217 553 217 501 c 2
 217 326 l 1
 191 326 l 1
 142 304 l 1
 142 550 l 1
225 809 m 0
 222 811 206 821 179 821 c 0
 152 821 135 811 133 809 c 0
 106 783 39 723 39 711 c 0
 39 692 49 676 52 676 c 0
 66 676 130 719 179 758 c 1
 228 719 292 676 306 676 c 0
 309 676 319 692 319 711 c 0
 319 723 253 786 225 809 c 0
EndSplineSet
EndChar
StartChar: Atilde
Encoding: 195 195 279
Width: 431
VWidth: 0
Flags: HW
PickledData: "(dp1
."
LayerCount: 2
Fore
SplineSet
50 102 m 2
 50 10 -1 0 -10 0 c 1
 6 -32 l 1
 211 54 l 1
 211 85 l 1
 176 85 170 109 170 154 c 2
 170 342 l 1
 260 342 l 1
 260 68 l 2
 260 28 320 0 320 0 c 1
 429 61 l 1
 429 83 l 1
 404 88 381 103 381 148 c 2
 381 342 l 1
 430 367 l 1
 430 391 l 1
 381 391 l 1
 381 653 l 2
 381 700 315 768 294 768 c 0
 273 768 50 685 50 676 c 2
 50 102 l 2
170 660 m 1
 170 660 187 675 209 675 c 0
 231 675 260 664 260 601 c 2
 260 391 l 1
 229 391 l 1
 170 365 l 1
 170 660 l 1
341 923 m 1
 321 923 l 1
 315 908 289 898 261 898 c 0
 225 898 168 925 118 925 c 0
 81 925 50 885 50 885 c 1
 88 812 l 1
 109 812 l 1
 115 827 141 839 169 839 c 0
 222 839 262 810 312 810 c 0
 349 810 380 850 380 850 c 1
 341 923 l 1
EndSplineSet
EndChar
StartChar: Adieresis
Encoding: 196 196 280
Width: 359
VWidth: 0
Flags: HW
PickledData: "(dp1
."
LayerCount: 2
Fore
SplineSet
42 85 m 2
 42 8 -1 0 -8 0 c 1
 5 -27 l 1
 176 45 l 1
 176 71 l 1
 147 71 142 91 142 128 c 2
 142 285 l 1
 217 285 l 1
 217 57 l 2
 217 24 267 0 267 0 c 1
 357 51 l 1
 357 69 l 1
 336 73 317 86 317 123 c 2
 317 285 l 1
 358 306 l 1
 358 326 l 1
 317 326 l 1
 317 544 l 2
 317 583 262 640 245 640 c 0
 228 640 42 570 42 563 c 2
 42 85 l 2
142 550 m 1
 142 550 156 562 174 562 c 0
 192 562 217 553 217 501 c 2
 217 326 l 1
 191 326 l 1
 142 304 l 1
 142 550 l 1
47 723 m 2
 47 691 64 675 72 675 c 0
 80 675 138 698 138 701 c 2
 138 755 l 2
 138 776 120 794 114 794 c 0
 109 794 47 771 47 768 c 2
 47 723 l 2
220 723 m 2
 220 691 237 675 245 675 c 0
 253 675 311 698 311 701 c 2
 311 755 l 2
 311 776 293 794 287 794 c 0
 282 794 220 771 220 768 c 2
 220 723 l 2
EndSplineSet
EndChar
StartChar: Aring
Encoding: 197 197 281
Width: 359
VWidth: 0
Flags: HW
PickledData: "(dp1
."
LayerCount: 2
Fore
SplineSet
117 726 m 2
 117 695 137 676 149 676 c 0
 159 676 242 705 242 708 c 2
 242 771 l 2
 242 787 218 811 211 811 c 0
 204 811 117 781 117 778 c 2
 117 726 l 2
191 713 m 1
 191 713 189 708 182 708 c 0
 174 708 167 712 167 734 c 2
 167 773 l 1
 167 773 169 778 177 778 c 0
 184 778 191 774 191 752 c 2
 191 713 l 1
EndSplineSet
Refer: 12 65 N 1 0 0 1 0 0 2
EndChar
StartChar: Ccedilla
Encoding: 199 199 290
Width: 336
VWidth: 0
Flags: HW
PickledData: "(dp1
."
LayerCount: 2
Fore
SplineSet
182 -23 m 0
 182 -11 188 5 194 27 c 1
 139 27 l 1
 139 27 122 -7 122 -35 c 0
 122 -58 131 -84 142 -84 c 0
 146 -84 184 -69 190 -69 c 0
 198 -69 198 -83 198 -83 c 1
 198 -92 l 2
 198 -99 193 -100 189 -102 c 0
 169 -109 137 -121 137 -123 c 0
 137 -139 147 -141 149 -141 c 0
 153 -141 253 -114 253 -105 c 2
 253 -71 l 2
 253 -44 244 -22 233 -22 c 0
 227 -22 191 -36 188 -36 c 0
 183 -36 182 -31 182 -23 c 0
EndSplineSet
Refer: 35 67 N 1 0 0 1 0 0 2
EndChar
StartChar: Egrave
Encoding: 200 200 295
Width: 336
VWidth: 0
Flags: HW
PickledData: "(dp1
."
LayerCount: 2
Fore
SplineSet
42 127 m 2
 42 56 133 0 158 0 c 0
 180 0 279 46 290 46 c 1
 290 70 l 1
 142 70 142 106 142 208 c 2
 142 292 l 1
 217 292 l 1
 259 312 l 1
 259 332 l 1
 142 332 l 1
 142 552 l 1
 142 552 147 561 157 561 c 0
 181 561 194 425 219 425 c 0
 227 425 295 462 328 476 c 1
 328 492 l 1
 323 492 300 493 292 508 c 0
 269 548 259 641 247 641 c 0
 228 641 42 572 42 565 c 2
 42 127 l 2
167 812 m 0
 183 786 208 734 208 711 c 0
 208 692 198 675 195 675 c 0
 185 675 169 681 166 685 c 0
 154 700 91 785 91 805 c 0
 91 811 98 821 130 821 c 0
 149 821 165 816 167 812 c 0
EndSplineSet
EndChar
StartChar: Eacute
Encoding: 201 201 294
Width: 404
VWidth: 0
Flags: HW
PickledData: "(dp1
."
LayerCount: 2
Fore
SplineSet
50 152 m 2
 50 67 160 0 190 0 c 0
 217 0 335 55 348 55 c 1
 348 84 l 1
 170 84 170 128 170 250 c 2
 170 350 l 1
 261 350 l 1
 311 375 l 1
 311 399 l 1
 170 399 l 1
 170 663 l 1
 170 663 176 673 188 673 c 0
 217 673 233 510 263 510 c 0
 273 510 354 554 394 571 c 1
 394 591 l 1
 388 591 361 592 351 610 c 0
 323 658 311 770 296 770 c 0
 273 770 50 687 50 678 c 2
 50 152 l 2
161 975 m 0
 142 944 112 881 112 853 c 0
 112 830 124 810 128 810 c 0
 140 810 159 817 163 822 c 0
 177 840 253 942 253 966 c 0
 253 973 245 985 206 985 c 0
 183 985 164 980 161 975 c 0
EndSplineSet
EndChar
StartChar: Ecircumflex
Encoding: 202 202 296
Width: 336
VWidth: 0
Flags: HW
PickledData: "(dp1
."
LayerCount: 2
Fore
SplineSet
199 808 m 0
 196 810 180 821 153 821 c 0
 126 821 109 810 107 808 c 0
 80 782 13 723 13 711 c 0
 13 692 24 675 27 675 c 0
 41 675 104 718 153 757 c 1
 202 718 266 675 280 675 c 0
 283 675 293 692 293 711 c 0
 293 723 227 785 199 808 c 0
EndSplineSet
Refer: 38 69 N 1 0 0 1 0 0 2
EndChar
StartChar: Edieresis
Encoding: 203 203 293
Width: 336
VWidth: 0
Flags: HW
PickledData: "(dp1
."
LayerCount: 2
Fore
SplineSet
42 127 m 2
 42 56 133 0 158 0 c 0
 180 0 279 46 290 46 c 1
 290 70 l 1
 142 70 142 106 142 208 c 2
 142 292 l 1
 217 292 l 1
 259 312 l 1
 259 332 l 1
 142 332 l 1
 142 552 l 1
 142 552 147 561 157 561 c 0
 181 561 194 425 219 425 c 0
 227 425 295 462 328 476 c 1
 328 492 l 1
 323 492 300 493 292 508 c 0
 269 548 259 641 247 641 c 0
 228 641 42 572 42 565 c 2
 42 127 l 2
20 722 m 2
 20 690 37 674 45 674 c 0
 53 674 111 697 111 700 c 2
 111 754 l 2
 111 775 93 793 87 793 c 0
 82 793 20 770 20 767 c 2
 20 722 l 2
192 722 m 2
 192 690 209 674 217 674 c 0
 225 674 283 697 283 700 c 2
 283 754 l 2
 283 775 265 793 259 793 c 0
 254 793 192 770 192 767 c 2
 192 722 l 2
EndSplineSet
EndChar
StartChar: Igrave
Encoding: 204 204 311
Width: 220
VWidth: 0
Flags: HW
PickledData: "(dp1
."
LayerCount: 2
Fore
SplineSet
50 128 m 2
 50 38 -10 32 -10 32 c 1
 6 0 l 2
 7 0 210 89 210 89 c 1
 210 117 l 1
 181 117 170 131 170 167 c 2
 170 637 l 2
 170 729 221 739 230 739 c 1
 214 771 l 1
 9 685 l 1
 9 654 l 1
 44 654 50 630 50 585 c 2
 50 128 l 2
129 975 m 0
 148 944 178 881 178 853 c 0
 178 830 166 810 162 810 c 0
 150 810 131 817 127 822 c 0
 113 840 37 942 37 966 c 0
 37 973 45 985 84 985 c 0
 107 985 126 980 129 975 c 0
EndSplineSet
EndChar
StartChar: Iacute
Encoding: 205 205 310
Width: 220
VWidth: 0
Flags: HW
PickledData: "(dp1
."
LayerCount: 2
Fore
SplineSet
50 128 m 2
 50 38 -10 32 -10 32 c 1
 6 0 l 2
 7 0 210 89 210 89 c 1
 210 117 l 1
 181 117 170 131 170 167 c 2
 170 637 l 2
 170 729 221 739 230 739 c 1
 214 771 l 1
 9 685 l 1
 9 654 l 1
 44 654 50 630 50 585 c 2
 50 128 l 2
89 975 m 0
 70 944 40 881 40 853 c 0
 40 830 52 810 56 810 c 0
 68 810 87 817 91 822 c 0
 105 840 181 942 181 966 c 0
 181 973 173 985 134 985 c 0
 111 985 92 980 89 975 c 0
EndSplineSet
EndChar
StartChar: Icircumflex
Encoding: 206 206 312
Width: 183
VWidth: 0
Flags: HW
PickledData: "(dp1
."
LayerCount: 2
Fore
SplineSet
139 808 m 0
 136 810 120 821 93 821 c 0
 66 821 49 810 47 808 c 0
 20 782 -47 723 -47 711 c 0
 -47 692 -36 675 -33 675 c 0
 -19 675 44 718 93 757 c 1
 142 718 206 675 220 675 c 0
 223 675 233 692 233 711 c 0
 233 723 167 785 139 808 c 0
EndSplineSet
Refer: 33 73 N 1 0 0 1 0 0 2
EndChar
StartChar: Idieresis
Encoding: 207 207 309
Width: 183
VWidth: 0
Flags: HW
PickledData: "(dp1
."
LayerCount: 2
Fore
SplineSet
42 107 m 2
 42 32 -8 27 -8 27 c 1
 5 0 l 2
 6 0 175 74 175 74 c 1
 175 97 l 1
 151 97 142 109 142 139 c 2
 142 531 l 2
 142 608 185 616 192 616 c 1
 178 642 l 1
 7 571 l 1
 7 545 l 1
 36 545 42 524 42 487 c 2
 42 107 l 2
-40 722 m 2
 -40 690 -23 674 -15 674 c 0
 -7 674 51 697 51 700 c 2
 51 754 l 2
 51 775 33 793 27 793 c 0
 22 793 -40 770 -40 767 c 2
 -40 722 l 2
132 722 m 2
 132 690 149 674 157 674 c 0
 165 674 223 697 223 700 c 2
 223 754 l 2
 223 775 205 793 199 793 c 0
 194 793 132 770 132 767 c 2
 132 722 l 2
EndSplineSet
EndChar
StartChar: Eth
Encoding: 208 208 286
Width: 359
VWidth: 0
Flags: HW
PickledData: "(dp1
."
LayerCount: 2
Fore
SplineSet
-51 309 m 1
 -51 291 l 1
 42 291 l 1
 42 122 l 2
 42 49 91 0 117 0 c 0
 142 0 317 68 317 77 c 2
 317 546 l 2
 317 585 262 641 245 641 c 1
 142 583 l 1
 142 616 92 640 92 640 c 1
 7 592 l 1
 7 574 l 1
 26 570 42 555 42 521 c 2
 42 348 l 1
 -9 348 l 1
 -51 309 l 1
217 90 m 1
 217 90 202 77 184 77 c 0
 166 77 142 86 142 138 c 2
 142 291 l 1
 175 291 l 1
 217 328 l 1
 217 90 l 1
142 530 m 1
 142 530 156 542 174 542 c 0
 192 542 217 535 217 483 c 2
 217 348 l 1
 142 348 l 1
 142 530 l 1
EndSplineSet
EndChar
StartChar: Ntilde
Encoding: 209 209 324
Width: 358
VWidth: 0
Flags: HW
PickledData: "(dp1
."
LayerCount: 2
Fore
SplineSet
268 768 m 1
 252 768 l 1
 247 756 225 747 202 747 c 0
 172 747 124 770 82 770 c 0
 51 770 26 736 26 736 c 1
 57 676 l 1
 75 676 l 1
 80 688 102 698 125 698 c 0
 169 698 202 674 244 674 c 0
 275 674 301 707 301 707 c 1
 268 768 l 1
EndSplineSet
Refer: 45 78 N 1 0 0 1 0 0 2
EndChar
StartChar: Ograve
Encoding: 210 210 331
Width: 359
VWidth: 0
Flags: HW
PickledData: "(dp1
."
LayerCount: 2
Fore
SplineSet
42 122 m 2
 42 49 91 0 117 0 c 0
 142 0 317 68 317 77 c 2
 317 546 l 2
 317 585 262 641 245 641 c 0
 228 641 42 572 42 565 c 2
 42 122 l 2
217 90 m 1
 217 90 202 77 184 77 c 0
 166 77 142 86 142 138 c 2
 142 551 l 1
 142 551 156 564 174 564 c 0
 192 564 217 554 217 502 c 2
 217 90 l 1
160 812 m 0
 176 786 201 734 201 711 c 0
 201 692 190 675 187 675 c 0
 177 675 161 681 158 685 c 0
 146 700 83 785 83 805 c 0
 83 811 90 821 122 821 c 0
 141 821 158 816 160 812 c 0
EndSplineSet
EndChar
StartChar: Oacute
Encoding: 211 211 330
Width: 359
VWidth: 0
Flags: HW
PickledData: "(dp1
."
LayerCount: 2
Fore
SplineSet
162 812 m 0
 146 786 122 734 122 711 c 0
 122 692 132 675 135 675 c 0
 145 675 161 681 164 685 c 0
 176 700 239 785 239 805 c 0
 239 811 232 821 200 821 c 0
 181 821 164 816 162 812 c 0
EndSplineSet
Refer: 37 79 N 1 0 0 1 0 0 2
EndChar
StartChar: Ocircumflex
Encoding: 212 212 333
Width: 359
VWidth: 0
Flags: HW
PickledData: "(dp1
."
LayerCount: 2
Fore
SplineSet
42 122 m 2
 42 49 91 0 117 0 c 0
 142 0 317 68 317 77 c 2
 317 546 l 2
 317 585 262 641 245 641 c 0
 228 641 42 572 42 565 c 2
 42 122 l 2
217 90 m 1
 217 90 202 77 184 77 c 0
 166 77 142 86 142 138 c 2
 142 551 l 1
 142 551 156 564 174 564 c 0
 192 564 217 554 217 502 c 2
 217 90 l 1
227 808 m 0
 224 810 209 821 182 821 c 0
 155 821 138 810 136 808 c 0
 109 782 42 723 42 711 c 0
 42 692 52 675 55 675 c 0
 69 675 133 718 182 757 c 1
 231 718 294 675 308 675 c 0
 311 675 322 692 322 711 c 0
 322 723 255 785 227 808 c 0
EndSplineSet
EndChar
StartChar: Otilde
Encoding: 213 213 334
Width: 359
VWidth: 0
Flags: HW
PickledData: "(dp1
."
LayerCount: 2
Fore
SplineSet
284 768 m 1
 267 768 l 1
 262 756 240 747 217 747 c 0
 187 747 140 770 98 770 c 0
 67 770 42 736 42 736 c 1
 73 676 l 1
 91 676 l 1
 96 688 118 698 141 698 c 0
 185 698 218 674 260 674 c 0
 291 674 317 707 317 707 c 1
 284 768 l 1
EndSplineSet
Refer: 37 79 N 1 0 0 1 0 0 2
EndChar
StartChar: Odieresis
Encoding: 214 214 329
Width: 359
VWidth: 0
Flags: HW
PickledData: "(dp1
."
LayerCount: 2
Fore
SplineSet
48 722 m 2
 48 690 65 674 73 674 c 0
 81 674 139 697 139 700 c 2
 139 754 l 2
 139 775 121 793 115 793 c 0
 110 793 48 770 48 767 c 2
 48 722 l 2
221 722 m 2
 221 690 238 674 246 674 c 0
 254 674 312 697 312 700 c 2
 312 754 l 2
 312 775 293 793 287 793 c 0
 282 793 221 770 221 767 c 2
 221 722 l 2
EndSplineSet
Refer: 37 79 N 1 0 0 1 0 0 2
EndChar
StartChar: multiply
Encoding: 215 215 239
Width: 350
VWidth: 0
Flags: HW
PickledData: "(dp1
."
LayerCount: 2
Fore
SplineSet
223 343 m 1
 176 297 l 1
 128 343 l 1
 59 346 l 1
 47 332 l 1
 130 250 l 1
 46 166 l 1
 60 152 l 1
 127 155 l 1
 176 203 l 1
 224 156 l 1
 292 152 l 1
 306 167 l 1
 222 250 l 1
 305 332 l 1
 292 345 l 1
 223 343 l 1
EndSplineSet
EndChar
StartChar: Oslash
Encoding: 216 216 337
Width: 359
VWidth: 0
Flags: HW
PickledData: "(dp1
."
LayerCount: 2
Fore
SplineSet
42 122 m 2
 42 92 50 66 62 46 c 1
 35 -32 l 1
 53 -32 l 1
 117 0 l 1
 142 0 317 68 317 77 c 2
 317 546 l 2
 317 553 315 561 312 569 c 1
 346 666 l 1
 325 666 l 1
 264 633 l 1
 256 637 249 641 245 641 c 0
 228 641 42 572 42 565 c 2
 42 122 l 2
142 551 m 1
 142 551 156 564 174 564 c 0
 192 564 217 554 217 502 c 2
 217 495 l 1
 142 277 l 1
 142 551 l 1
217 90 m 1
 217 90 202 77 184 77 c 0
 172 77 158 80 149 97 c 1
 217 292 l 1
 217 90 l 1
EndSplineSet
EndChar
StartChar: Ugrave
Encoding: 217 217 354
Width: 430
VWidth: 0
Flags: HW
PickledData: "(dp1
."
LayerCount: 2
Fore
SplineSet
260 104 m 1
 188 104 170 130 170 213 c 2
 170 703 l 2
 170 743 110 771 110 771 c 1
 1 710 l 1
 1 688 l 1
 26 683 50 668 50 623 c 2
 50 120 l 2
 50 77 92 1 138 1 c 0
 159 1 240 53 260 62 c 1
 260 15 320 0 320 0 c 1
 422 60 429 61 429 61 c 1
 429 83 l 1
 400 83 380 122 380 164 c 2
 380 637 l 2
 380 729 431 739 440 739 c 1
 424 771 l 1
 219 685 l 1
 219 654 l 1
 254 654 260 630 260 585 c 2
 260 104 l 1
191 975 m 0
 210 944 240 881 240 853 c 0
 240 830 228 810 224 810 c 0
 212 810 193 817 189 822 c 0
 175 840 99 942 99 966 c 0
 99 973 107 985 146 985 c 0
 169 985 188 980 191 975 c 0
EndSplineSet
EndChar
StartChar: Uacute
Encoding: 218 218 353
Width: 358
VWidth: 0
Flags: HW
PickledData: "(dp1
."
LayerCount: 2
Fore
SplineSet
202 812 m 0
 186 786 162 734 162 711 c 0
 162 692 172 675 175 675 c 0
 185 675 201 681 204 685 c 0
 216 700 279 785 279 805 c 0
 279 811 272 821 240 821 c 0
 221 821 204 816 202 812 c 0
EndSplineSet
Refer: 47 85 N 1 0 0 1 0 0 2
EndChar
StartChar: Ucircumflex
Encoding: 219 219 356
Width: 358
VWidth: 0
Flags: HW
PickledData: "(dp1
."
LayerCount: 2
Fore
SplineSet
217 87 m 1
 157 87 142 108 142 177 c 2
 142 586 l 2
 142 619 92 642 92 642 c 1
 1 591 l 1
 1 573 l 1
 22 569 42 556 42 519 c 2
 42 100 l 2
 42 64 77 1 115 1 c 0
 132 1 200 45 217 52 c 1
 217 13 267 0 267 0 c 1
 352 50 357 51 357 51 c 1
 357 69 l 1
 333 69 317 102 317 137 c 2
 317 531 l 2
 317 608 360 616 367 616 c 1
 353 642 l 1
 182 571 l 1
 182 545 l 1
 211 545 217 524 217 487 c 2
 217 87 l 1
226 808 m 0
 223 810 207 821 180 821 c 0
 153 821 136 810 134 808 c 0
 107 782 40 723 40 711 c 0
 40 692 50 675 53 675 c 0
 67 675 131 718 180 757 c 1
 229 718 293 675 307 675 c 0
 310 675 320 692 320 711 c 0
 320 723 254 785 226 808 c 0
EndSplineSet
EndChar
StartChar: Udieresis
Encoding: 220 220 352
Width: 358
VWidth: 0
Flags: HW
PickledData: "(dp1
."
LayerCount: 2
Fore
SplineSet
217 87 m 1
 157 87 142 108 142 177 c 2
 142 586 l 2
 142 619 92 642 92 642 c 1
 1 591 l 1
 1 573 l 1
 22 569 42 556 42 519 c 2
 42 100 l 2
 42 64 77 1 115 1 c 0
 132 1 200 45 217 52 c 1
 217 13 267 0 267 0 c 1
 352 50 357 51 357 51 c 1
 357 69 l 1
 333 69 317 102 317 137 c 2
 317 531 l 2
 317 608 360 616 367 616 c 1
 353 642 l 1
 182 571 l 1
 182 545 l 1
 211 545 217 524 217 487 c 2
 217 87 l 1
47 722 m 2
 47 690 64 674 72 674 c 0
 80 674 137 697 137 700 c 2
 137 754 l 2
 137 775 119 793 113 793 c 0
 108 793 47 770 47 767 c 2
 47 722 l 2
219 722 m 2
 219 690 236 674 244 674 c 0
 252 674 310 697 310 700 c 2
 310 754 l 2
 310 775 292 793 286 793 c 0
 281 793 219 770 219 767 c 2
 219 722 l 2
EndSplineSet
EndChar
StartChar: Yacute
Encoding: 221 221 367
Width: 329
VWidth: 0
Flags: HW
PickledData: "(dp1
."
LayerCount: 2
Fore
SplineSet
159 812 m 0
 143 786 118 734 118 711 c 0
 118 692 129 675 132 675 c 0
 142 675 158 681 161 685 c 0
 173 700 236 785 236 805 c 0
 236 811 229 821 197 821 c 0
 178 821 161 816 159 812 c 0
-32 591 m 1
 55 641 l 1
 87 641 l 1
 183 341 l 1
 191 345 197 347 197 347 c 1
 197 521 l 2
 197 575 162 576 162 576 c 1
 162 595 l 1
 242 642 l 1
 246 642 292 614 292 588 c 2
 292 350 l 2
 292 339 229 313 199 302 c 1
 199 146 l 2
 199 112 203 97 232 97 c 1
 232 74 l 1
 62 0 l 1
 49 27 l 1
 99 39 99 88 99 121 c 2
 99 297 l 1
 16 546 l 2
 7 573 -11 573 -32 573 c 1
 -32 591 l 1
EndSplineSet
EndChar
StartChar: Thorn
Encoding: 222 222 149
Width: 350
VWidth: 0
Flags: HW
PickledData: "(dp1
."
LayerCount: 2
Fore
SplineSet
42 85 m 2
 42 8 -1 0 -8 0 c 1
 5 -27 l 1
 176 45 l 1
 176 71 l 1
 147 71 142 91 142 128 c 2
 142 146 l 1
 198 163 317 211 317 218 c 2
 317 461 l 2
 317 500 262 556 245 556 c 0
 237 556 189 529 142 501 c 1
 142 525 l 2
 142 600 175 615 175 615 c 1
 162 641 l 1
 77 591 -32 535 -32 535 c 1
 -32 511 l 1
 -8 511 42 511 42 478 c 2
 42 85 l 2
217 227 m 2
 217 205 168 185 142 185 c 1
 142 464 l 1
 142 464 156 476 174 476 c 0
 192 476 217 467 217 415 c 2
 217 227 l 2
EndSplineSet
EndChar
StartChar: germandbls
Encoding: 223 223 153
Width: 341
VWidth: 0
Flags: HW
PickledData: "(dp1
."
LayerCount: 2
Fore
SplineSet
-9 426 m 1
 -9 407 l 1
 42 407 l 1
 42 57 l 2
 42 24 92 0 92 0 c 1
 176 47 l 1
 176 66 l 1
 155 70 142 86 142 123 c 2
 142 162 l 1
 144 162 l 2
 188 162 202 136 202 79 c 2
 202 52 l 2
 202 -18 191 -75 151 -75 c 2
 122 -75 l 1
 122 -100 l 1
 122 -100 207 -150 254 -150 c 0
 276 -150 302 -47 302 47 c 2
 302 110 l 2
 302 147 281 188 259 214 c 1
 285 227 303 241 303 249 c 2
 303 379 l 2
 303 418 248 475 231 475 c 0
 223 475 183 461 142 445 c 1
 142 546 l 2
 142 563 156 571 173 571 c 0
 197 571 193 498 218 498 c 0
 226 498 278 536 311 550 c 1
 311 566 l 1
 306 566 291 571 283 586 c 0
 260 626 259 641 247 641 c 0
 228 641 42 571 42 547 c 2
 42 448 l 1
 -9 426 l 1
164 412 m 0
 182 412 202 396 202 344 c 2
 202 236 l 1
 183 228 162 217 142 207 c 1
 142 388 l 1
 144 398 150 412 164 412 c 0
EndSplineSet
EndChar
StartChar: agrave
Encoding: 224 224 165
Width: 410
VWidth: 0
Flags: HW
PickledData: "(dp1
."
LayerCount: 2
Fore
SplineSet
215 796 m 0
 234 765 264 702 264 674 c 0
 264 651 252 631 248 631 c 0
 236 631 217 638 213 643 c 0
 199 661 123 763 123 787 c 0
 123 794 131 806 170 806 c 0
 193 806 212 801 215 796 c 0
EndSplineSet
Refer: 24 97 N 1 0 0 1 10 0 2
EndChar
StartChar: aacute
Encoding: 225 225 159
Width: 410
VWidth: 0
Flags: HW
PickledData: "(dp1
."
LayerCount: 2
Fore
SplineSet
276 796 m 0
 257 765 227 702 227 674 c 0
 227 651 239 631 243 631 c 0
 255 631 274 638 278 643 c 0
 292 661 368 763 368 787 c 0
 368 794 360 806 321 806 c 0
 298 806 279 801 276 796 c 0
EndSplineSet
Refer: 24 97 N 1 0 0 1 10 0 2
EndChar
StartChar: acircumflex
Encoding: 226 226 160
Width: 341
VWidth: 0
Flags: HW
PickledData: "(dp1
."
LayerCount: 2
Fore
SplineSet
247 659 m 0
 244 661 229 671 202 671 c 0
 175 671 158 661 156 659 c 0
 129 633 62 573 62 561 c 0
 62 542 72 526 75 526 c 0
 89 526 153 569 202 608 c 1
 251 569 314 526 328 526 c 0
 331 526 342 542 342 561 c 0
 342 573 275 636 247 659 c 0
EndSplineSet
Refer: 24 97 N 1 0 0 1 8 0 2
EndChar
StartChar: atilde
Encoding: 227 227 161
Width: 410
VWidth: 0
Flags: HW
PickledData: "(dp1
."
LayerCount: 2
Fore
SplineSet
372 743 m 1
 352 743 l 1
 346 728 320 718 292 718 c 0
 256 718 199 745 149 745 c 0
 112 745 81 705 81 705 c 1
 119 632 l 1
 140 632 l 1
 146 647 172 659 200 659 c 0
 253 659 293 630 343 630 c 0
 380 630 411 670 411 670 c 1
 372 743 l 1
EndSplineSet
Refer: 24 97 N 1 0 0 1 10 0 2
EndChar
StartChar: adieresis
Encoding: 228 228 158
Width: 341
VWidth: 0
Flags: HW
PickledData: "(dp1
."
LayerCount: 2
Fore
SplineSet
79 573 m 2
 79 541 96 525 104 525 c 0
 112 525 170 548 170 551 c 2
 170 605 l 2
 170 626 152 644 146 644 c 0
 141 644 79 621 79 618 c 2
 79 573 l 2
252 573 m 2
 252 541 269 525 277 525 c 0
 285 525 342 548 342 551 c 2
 342 605 l 2
 342 626 324 644 318 644 c 0
 313 644 252 621 252 618 c 2
 252 573 l 2
EndSplineSet
Refer: 24 97 N 1 0 0 1 8 0 2
EndChar
StartChar: aring
Encoding: 229 229 163
Width: 410
VWidth: 0
Flags: HW
PickledData: "(dp1
."
LayerCount: 2
Fore
SplineSet
172 691 m 2
 172 654 196 630 210 630 c 0
 222 630 321 665 321 669 c 2
 321 744 l 2
 321 763 293 792 284 792 c 0
 276 792 172 757 172 753 c 2
 172 691 l 2
260 675 m 1
 260 675 258 669 249 669 c 0
 239 669 232 673 232 700 c 2
 232 747 l 1
 232 747 234 753 244 753 c 0
 253 753 260 748 260 722 c 2
 260 675 l 1
EndSplineSet
Refer: 24 97 N 1 0 0 1 10 0 2
EndChar
StartChar: ae
Encoding: 230 230 54
Width: 600
VWidth: 0
Flags: HW
PickledData: "(dp1
."
LayerCount: 2
Fore
SplineSet
485 570 m 0
 472 570 398 544 334 520 c 1
 316 549 291 570 267 570 c 0
 248 570 93 515 93 515 c 1
 93 485 l 1
 211 485 239 456 239 383 c 1
 239 383 30 321 30 284 c 2
 30 120 l 2
 30 44 115 0 115 0 c 1
 253 75 l 1
 272 29 307 0 332 0 c 0
 343 0 507 55 507 55 c 1
 507 84 l 1
 440 84 361 90 361 187 c 1
 362 187 570 249 570 290 c 2
 570 458 l 2
 570 515 493 570 485 570 c 0
450 340 m 2
 450 274 410 246 360 232 c 1
 360 463 l 1
 360 463 381 478 398 478 c 0
 436 478 450 444 450 411 c 2
 450 340 l 2
240 112 m 1
 240 112 221 97 202 97 c 0
 176 97 150 120 150 156 c 2
 150 221 l 2
 150 304 187 319 240 338 c 1
 240 112 l 1
EndSplineSet
EndChar
StartChar: ccedilla
Encoding: 231 231 171
Width: 336
VWidth: 0
Flags: HW
PickledData: "(dp1
."
LayerCount: 2
Fore
SplineSet
328 326 m 1
 323 326 300 327 292 342 c 0
 269 382 259 475 247 475 c 0
 228 475 42 405 42 398 c 2
 42 118 l 2
 42 51 88 0 118 0 c 0
 127 0 264 46 264 46 c 1
 264 70 l 1
 208 70 142 75 142 156 c 2
 142 386 l 1
 142 386 147 394 157 394 c 0
 181 394 194 258 219 258 c 0
 227 258 295 295 328 309 c 1
 328 326 l 1
142 -23 m 0
 142 -11 147 5 153 27 c 1
 98 27 l 1
 98 27 81 -7 81 -35 c 0
 81 -58 90 -84 101 -84 c 0
 105 -84 143 -69 149 -69 c 0
 157 -69 157 -83 157 -83 c 1
 157 -92 l 2
 157 -99 152 -100 148 -102 c 0
 128 -109 96 -121 96 -123 c 0
 96 -139 106 -141 108 -141 c 0
 112 -141 212 -114 212 -105 c 2
 212 -71 l 2
 212 -44 203 -22 192 -22 c 0
 186 -22 150 -36 147 -36 c 0
 142 -36 142 -31 142 -23 c 0
EndSplineSet
EndChar
StartChar: egrave
Encoding: 232 232 175
Width: 430
VWidth: 0
Flags: HW
PickledData: "(dp1
."
LayerCount: 2
Fore
SplineSet
233 796 m 0
 252 765 282 702 282 674 c 0
 282 651 270 631 266 631 c 0
 254 631 235 638 231 643 c 0
 217 661 141 763 141 787 c 0
 141 794 149 806 188 806 c 0
 211 806 230 801 233 796 c 0
EndSplineSet
Refer: 5 101 N 1 0 0 1 0 0 2
EndChar
StartChar: eacute
Encoding: 233 233 176
Width: 430
VWidth: 0
Flags: HW
PickledData: "(dp1
."
LayerCount: 2
Fore
SplineSet
292 796 m 0
 273 765 243 702 243 674 c 0
 243 651 255 631 259 631 c 0
 271 631 290 638 294 643 c 0
 308 661 384 763 384 787 c 0
 384 794 376 806 337 806 c 0
 314 806 295 801 292 796 c 0
EndSplineSet
Refer: 5 101 N 1 0 0 1 0 0 2
EndChar
StartChar: ecircumflex
Encoding: 234 234 177
Width: 430
VWidth: 0
Flags: HW
PickledData: "(dp1
."
LayerCount: 2
Fore
SplineSet
279 791 m 0
 275 794 256 806 224 806 c 0
 192 806 172 794 169 791 c 0
 137 760 56 688 56 674 c 0
 56 651 68 631 72 631 c 0
 89 631 165 683 224 730 c 1
 283 683 359 631 376 631 c 0
 380 631 392 651 392 674 c 0
 392 688 313 763 279 791 c 0
EndSplineSet
Refer: 5 101 N 1 0 0 1 0 0 2
EndChar
StartChar: edieresis
Encoding: 235 235 178
Width: 430
VWidth: 0
Flags: HW
PickledData: "(dp1
."
LayerCount: 2
Fore
SplineSet
56 688 m 2
 56 649 76 630 86 630 c 0
 96 630 165 657 165 661 c 2
 165 726 l 2
 165 751 143 773 136 773 c 0
 130 773 56 746 56 742 c 2
 56 688 l 2
263 688 m 2
 263 649 283 630 293 630 c 0
 303 630 372 657 372 661 c 2
 372 726 l 2
 372 751 350 773 343 773 c 0
 337 773 263 746 263 742 c 2
 263 688 l 2
EndSplineSet
Refer: 5 101 N 1 0 0 1 0 0 2
EndChar
StartChar: igrave
Encoding: 236 236 191
Width: 183
VWidth: 0
Flags: HW
PickledData: "(dp1
."
LayerCount: 2
Fore
SplineSet
7 427 m 1
 7 409 l 1
 28 405 42 389 42 352 c 2
 42 57 l 2
 42 24 92 0 92 0 c 1
 176 47 l 1
 176 66 l 1
 155 70 142 86 142 123 c 2
 142 418 l 2
 142 451 92 475 92 475 c 1
 7 427 l 1
87 663 m 0
 103 637 127 584 127 561 c 0
 127 542 117 526 114 526 c 0
 104 526 88 532 85 536 c 0
 73 551 10 636 10 656 c 0
 10 662 17 671 49 671 c 0
 68 671 85 667 87 663 c 0
EndSplineSet
EndChar
StartChar: iacute
Encoding: 237 237 192
Width: 183
VWidth: 0
Flags: HW
PickledData: "(dp1
."
LayerCount: 2
Fore
SplineSet
82 663 m 0
 66 637 41 584 41 561 c 0
 41 542 51 526 54 526 c 0
 64 526 80 532 83 536 c 0
 95 551 158 636 158 656 c 0
 158 662 151 671 119 671 c 0
 100 671 84 667 82 663 c 0
EndSplineSet
Refer: 15 305 N 1 0 0 1 0 0 2
EndChar
StartChar: icircumflex
Encoding: 238 238 193
Width: 183
VWidth: 0
Flags: HW
PickledData: "(dp1
."
LayerCount: 2
Fore
SplineSet
139 659 m 0
 136 661 120 671 93 671 c 0
 66 671 49 661 47 659 c 0
 20 633 -47 573 -47 561 c 0
 -47 542 -36 526 -33 526 c 0
 -19 526 44 569 93 608 c 1
 142 569 206 526 220 526 c 0
 223 526 233 542 233 561 c 0
 233 573 167 636 139 659 c 0
EndSplineSet
Refer: 15 305 N 1 0 0 1 0 0 2
EndChar
StartChar: idieresis
Encoding: 239 239 194
Width: 220
VWidth: 0
Flags: HW
PickledData: "(dp1
."
LayerCount: 2
Fore
SplineSet
9 513 m 1
 9 491 l 1
 34 486 50 467 50 422 c 2
 50 68 l 2
 50 28 110 0 110 0 c 1
 211 57 l 1
 211 79 l 1
 186 84 170 103 170 148 c 2
 170 502 l 2
 170 542 110 570 110 570 c 1
 9 513 l 1
-48 688 m 2
 -48 649 -28 630 -18 630 c 0
 -8 630 61 657 61 661 c 2
 61 726 l 2
 61 751 39 773 32 773 c 0
 26 773 -48 746 -48 742 c 2
 -48 688 l 2
159 688 m 2
 159 649 179 630 189 630 c 0
 199 630 268 657 268 661 c 2
 268 726 l 2
 268 751 246 773 239 773 c 0
 233 773 159 746 159 742 c 2
 159 688 l 2
EndSplineSet
EndChar
StartChar: eth
Encoding: 240 240 150
Width: 431
VWidth: 0
Flags: HW
PickledData: "(dp1
."
LayerCount: 2
Fore
SplineSet
122 540 m 1
 131 519 l 1
 235 565 l 1
 249 536 258 507 258 484 c 1
 137 465 50 421 50 415 c 2
 50 121 l 2
 50 53 124 0 135 0 c 0
 180 0 381 83 381 94 c 2
 381 477 l 2
 381 510 363 561 340 611 c 1
 379 629 l 1
 407 690 l 1
 397 712 l 1
 308 673 l 1
 276 727 243 770 227 770 c 0
 176 770 69 720 69 720 c 1
 69 690 l 1
 98 690 l 2
 131 690 168 662 198 624 c 1
 149 603 l 1
 122 540 l 1
259 108 m 1
 259 108 243 92 221 92 c 0
 199 92 170 103 170 166 c 2
 170 409 l 1
 170 409 226 433 259 433 c 1
 259 108 l 1
EndSplineSet
EndChar
StartChar: ntilde
Encoding: 241 241 208
Width: 358
VWidth: 0
Flags: HW
PickledData: "(dp1
."
LayerCount: 2
Fore
SplineSet
92 0 m 1
 176 47 l 1
 176 66 l 1
 155 70 142 86 142 123 c 2
 142 389 l 1
 142 389 162 394 169 394 c 0
 206 394 217 355 217 298 c 2
 217 57 l 2
 217 24 267 0 267 0 c 1
 357 51 l 1
 357 69 l 1
 336 73 317 86 317 123 c 2
 317 376 l 2
 317 412 281 475 243 475 c 0
 226 475 159 431 142 424 c 1
 142 463 92 476 92 476 c 1
 7 426 1 425 1 425 c 1
 1 407 l 1
 25 407 42 374 42 339 c 2
 42 57 l 2
 42 24 92 0 92 0 c 1
282 619 m 1
 266 619 l 1
 261 607 239 598 216 598 c 0
 186 598 139 621 97 621 c 0
 66 621 40 587 40 587 c 1
 72 526 l 1
 89 526 l 1
 94 538 116 549 139 549 c 0
 183 549 216 525 258 525 c 0
 289 525 315 558 315 558 c 1
 282 619 l 1
EndSplineSet
EndChar
StartChar: ograve
Encoding: 242 242 217
Width: 359
VWidth: 0
Flags: HW
PickledData: "(dp1
."
LayerCount: 2
Fore
SplineSet
42 122 m 2
 42 49 91 0 117 0 c 0
 142 0 317 68 317 77 c 2
 317 379 l 2
 317 418 262 475 245 475 c 0
 228 475 42 405 42 398 c 2
 42 122 l 2
217 90 m 1
 217 90 202 77 184 77 c 0
 166 77 142 86 142 138 c 2
 142 385 l 1
 142 385 156 397 174 397 c 0
 192 397 217 388 217 336 c 2
 217 90 l 1
194 663 m 0
 210 637 235 584 235 561 c 0
 235 542 225 526 222 526 c 0
 212 526 195 532 192 536 c 0
 180 551 117 636 117 656 c 0
 117 662 125 671 157 671 c 0
 176 671 192 667 194 663 c 0
EndSplineSet
EndChar
StartChar: oacute
Encoding: 243 243 218
Width: 359
VWidth: 0
Flags: HW
PickledData: "(dp1
."
LayerCount: 2
Fore
SplineSet
42 122 m 2
 42 49 91 0 117 0 c 0
 142 0 317 68 317 77 c 2
 317 379 l 2
 317 418 262 475 245 475 c 0
 228 475 42 405 42 398 c 2
 42 122 l 2
217 90 m 1
 217 90 202 77 184 77 c 0
 166 77 142 86 142 138 c 2
 142 385 l 1
 142 385 156 397 174 397 c 0
 192 397 217 388 217 336 c 2
 217 90 l 1
237 663 m 0
 221 637 196 584 196 561 c 0
 196 542 206 526 209 526 c 0
 219 526 235 532 238 536 c 0
 250 551 313 636 313 656 c 0
 313 662 306 671 274 671 c 0
 255 671 239 667 237 663 c 0
EndSplineSet
EndChar
StartChar: ocircumflex
Encoding: 244 244 219
Width: 431
VWidth: 0
Flags: HW
PickledData: "(dp1
."
LayerCount: 2
Fore
SplineSet
50 146 m 2
 50 58 109 0 140 0 c 0
 170 0 381 82 381 93 c 2
 381 455 l 2
 381 502 315 570 294 570 c 0
 273 570 50 487 50 478 c 2
 50 146 l 2
260 108 m 1
 260 108 243 92 221 92 c 0
 199 92 170 103 170 166 c 2
 170 462 l 1
 170 462 187 477 209 477 c 0
 231 477 260 466 260 403 c 2
 260 108 l 1
271 791 m 0
 267 794 248 806 216 806 c 0
 184 806 164 794 161 791 c 0
 129 760 48 688 48 674 c 0
 48 651 60 631 64 631 c 0
 81 631 157 683 216 730 c 1
 275 683 351 631 368 631 c 0
 372 631 384 651 384 674 c 0
 384 688 305 763 271 791 c 0
EndSplineSet
EndChar
StartChar: otilde
Encoding: 245 245 220
Width: 359
VWidth: 0
Flags: HW
PickledData: "(dp1
."
LayerCount: 2
Fore
SplineSet
282 619 m 1
 266 619 l 1
 261 607 239 598 216 598 c 0
 186 598 139 621 97 621 c 0
 66 621 40 587 40 587 c 1
 72 526 l 1
 89 526 l 1
 94 538 116 549 139 549 c 0
 183 549 216 525 258 525 c 0
 289 525 315 558 315 558 c 1
 282 619 l 1
EndSplineSet
Refer: 7 111 N 1 0 0 1 0 0 2
EndChar
StartChar: odieresis
Encoding: 246 246 221
Width: 359
VWidth: 0
Flags: HW
PickledData: "(dp1
."
LayerCount: 2
Fore
SplineSet
47 573 m 2
 47 541 64 525 72 525 c 0
 80 525 137 548 137 551 c 2
 137 605 l 2
 137 626 119 644 113 644 c 0
 108 644 47 621 47 618 c 2
 47 573 l 2
219 573 m 2
 219 541 236 525 244 525 c 0
 252 525 310 548 310 551 c 2
 310 605 l 2
 310 626 292 644 286 644 c 0
 281 644 219 621 219 618 c 2
 219 573 l 2
EndSplineSet
Refer: 7 111 N 1 0 0 1 0 0 2
EndChar
StartChar: divide
Encoding: 247 247 240
Width: 421
VWidth: 0
Flags: HW
PickledData: "(dp1
."
LayerCount: 2
Fore
SplineSet
149 102 m 2
 149 59 171 38 182 38 c 0
 193 38 270 68 270 72 c 2
 270 145 l 2
 270 172 246 197 238 197 c 0
 231 197 149 167 149 163 c 2
 149 102 l 2
149 470 m 2
 149 427 171 406 182 406 c 0
 193 406 270 436 270 440 c 2
 270 513 l 2
 270 540 246 565 238 565 c 0
 231 565 149 535 149 531 c 2
 149 470 l 2
70 340 m 1
 10 283 l 1
 10 261 l 1
 351 261 l 1
 411 316 l 1
 411 340 l 1
 70 340 l 1
EndSplineSet
EndChar
StartChar: oslash
Encoding: 248 248 222
Width: 431
VWidth: 0
Flags: HW
PickledData: "(dp1
."
LayerCount: 2
Fore
SplineSet
139 -60 m 1
 161 4 l 1
 223 20 381 83 381 93 c 2
 381 455 l 2
 381 479 363 510 342 533 c 1
 389 669 l 1
 364 669 l 1
 291 630 l 1
 268 564 l 1
 205 544 50 485 50 478 c 2
 50 146 l 2
 50 98 67 60 87 34 c 1
 42 -98 l 1
 64 -98 l 1
 139 -60 l 1
170 462 m 1
 170 462 187 477 209 477 c 0
 217 477 227 475 236 469 c 1
 170 276 l 1
 170 462 l 1
260 108 m 1
 260 108 243 92 221 92 c 0
 212 92 202 94 194 100 c 1
 260 292 l 1
 260 108 l 1
EndSplineSet
EndChar
StartChar: ugrave
Encoding: 249 249 225
Width: 358
VWidth: 0
Flags: HW
PickledData: "(dp1
."
LayerCount: 2
Fore
SplineSet
267 476 m 1
 182 428 l 1
 182 410 l 1
 203 406 217 389 217 352 c 2
 217 93 l 1
 217 93 201 81 185 81 c 0
 163 81 142 100 142 130 c 2
 142 419 l 2
 142 452 92 476 92 476 c 1
 1 425 l 1
 1 407 l 1
 22 403 42 389 42 352 c 2
 42 100 l 2
 42 37 112 0 112 0 c 1
 217 56 l 1
 217 23 267 0 267 0 c 1
 352 50 357 51 357 51 c 1
 357 69 l 1
 333 69 317 102 317 137 c 2
 317 419 l 2
 317 452 267 476 267 476 c 1
148 663 m 0
 164 637 189 584 189 561 c 0
 189 542 179 526 176 526 c 0
 166 526 150 532 147 536 c 0
 135 551 72 636 72 656 c 0
 72 662 79 671 111 671 c 0
 130 671 146 667 148 663 c 0
EndSplineSet
EndChar
StartChar: uacute
Encoding: 250 250 226
Width: 358
VWidth: 0
Flags: HW
PickledData: "(dp1
."
LayerCount: 2
Fore
SplineSet
194 663 m 0
 178 637 153 584 153 561 c 0
 153 542 164 526 167 526 c 0
 177 526 193 532 196 536 c 0
 208 551 271 636 271 656 c 0
 271 662 264 671 232 671 c 0
 213 671 196 667 194 663 c 0
EndSplineSet
Refer: 25 117 N 1 0 0 1 0 0 2
EndChar
StartChar: ucircumflex
Encoding: 251 251 227
Width: 358
VWidth: 0
Flags: HW
PickledData: "(dp1
."
LayerCount: 2
Fore
SplineSet
227 659 m 0
 224 661 209 671 182 671 c 0
 155 671 138 661 136 659 c 0
 109 633 42 573 42 561 c 0
 42 542 52 526 55 526 c 0
 69 526 133 569 182 608 c 1
 231 569 294 526 308 526 c 0
 311 526 322 542 322 561 c 0
 322 573 255 636 227 659 c 0
EndSplineSet
Refer: 25 117 N 1 0 0 1 0 0 2
EndChar
StartChar: udieresis
Encoding: 252 252 228
Width: 358
VWidth: 0
Flags: HW
PickledData: "(dp1
."
LayerCount: 2
Fore
SplineSet
267 476 m 1
 182 428 l 1
 182 410 l 1
 203 406 217 389 217 352 c 2
 217 93 l 1
 217 93 201 81 185 81 c 0
 163 81 142 100 142 130 c 2
 142 419 l 2
 142 452 92 476 92 476 c 1
 1 425 l 1
 1 407 l 1
 22 403 42 389 42 352 c 2
 42 100 l 2
 42 37 112 0 112 0 c 1
 217 56 l 1
 217 23 267 0 267 0 c 1
 352 50 357 51 357 51 c 1
 357 69 l 1
 333 69 317 102 317 137 c 2
 317 419 l 2
 317 452 267 476 267 476 c 1
48 573 m 2
 48 541 65 525 73 525 c 0
 81 525 139 548 139 551 c 2
 139 605 l 2
 139 626 121 644 115 644 c 0
 110 644 48 621 48 618 c 2
 48 573 l 2
221 573 m 2
 221 541 238 525 246 525 c 0
 254 525 312 548 312 551 c 2
 312 605 l 2
 312 626 293 644 287 644 c 0
 282 644 221 621 221 618 c 2
 221 573 l 2
EndSplineSet
EndChar
StartChar: yacute
Encoding: 253 253 229
Width: 359
VWidth: 0
Flags: HW
PickledData: "(dp1
."
LayerCount: 2
Fore
SplineSet
317 419 m 2
 317 452 267 476 267 476 c 1
 183 428 l 1
 183 410 l 1
 204 406 217 389 217 352 c 2
 217 96 l 1
 171 96 142 110 142 193 c 2
 142 419 l 2
 142 452 92 476 92 476 c 1
 2 425 l 1
 2 407 l 1
 23 403 42 389 42 352 c 2
 42 123 l 2
 42 69 74 17 109 17 c 0
 123 17 217 61 217 61 c 1
 179 -26 114 -75 74 -75 c 2
 46 -75 l 1
 46 -100 l 1
 46 -100 139 -150 186 -150 c 0
 208 -150 317 19 317 88 c 2
 317 419 l 2
193 663 m 0
 177 637 152 584 152 561 c 0
 152 542 163 526 166 526 c 0
 176 526 192 532 195 536 c 0
 207 551 270 636 270 656 c 0
 270 662 263 671 231 671 c 0
 212 671 195 667 193 663 c 0
EndSplineSet
EndChar
StartChar: thorn
Encoding: 254 254 140
Width: 359
VWidth: 0
Flags: HW
PickledData: "(dp1
."
LayerCount: 2
Fore
SplineSet
317 368 m 2
 317 422 269 475 242 475 c 0
 228 475 142 431 142 431 c 1
 142 501 l 2
 142 576 215 614 215 614 c 1
 202 641 l 1
 117 591 8 534 8 534 c 1
 8 511 l 1
 32 511 42 499 42 469 c 2
 42 -92 l 2
 42 -125 92 -149 92 -149 c 1
 176 -102 l 1
 176 -83 l 1
 155 -79 142 -63 142 -26 c 2
 142 5 l 1
 202 22 317 71 317 76 c 2
 317 368 l 2
217 97 m 2
 217 75 168 52 142 52 c 1
 142 396 l 1
 196 396 217 390 217 298 c 2
 217 97 l 2
EndSplineSet
EndChar
StartChar: ydieresis
Encoding: 255 255 230
Width: 431
VWidth: 0
Flags: HW
PickledData: "(dp1
."
LayerCount: 2
Fore
SplineSet
381 503 m 2
 381 543 321 571 321 571 c 1
 220 514 l 1
 220 492 l 1
 245 487 261 468 261 423 c 2
 261 115 l 1
 206 115 171 132 171 232 c 2
 171 503 l 2
 171 543 111 571 111 571 c 1
 2 510 l 1
 2 488 l 1
 27 483 51 468 51 423 c 2
 51 148 l 2
 51 83 89 20 131 20 c 0
 148 20 261 73 261 73 c 1
 215 -31 137 -90 89 -90 c 2
 55 -90 l 1
 55 -120 l 1
 55 -120 167 -180 223 -180 c 0
 250 -180 381 23 381 106 c 2
 381 503 l 2
58 688 m 2
 58 649 78 630 88 630 c 0
 98 630 167 657 167 661 c 2
 167 726 l 2
 167 751 145 773 138 773 c 0
 132 773 58 746 58 742 c 2
 58 688 l 2
265 688 m 2
 265 649 285 630 295 630 c 0
 305 630 374 657 374 661 c 2
 374 726 l 2
 374 751 352 773 345 773 c 0
 339 773 265 746 265 742 c 2
 265 688 l 2
EndSplineSet
EndChar
StartChar: Amacron
Encoding: 256 256 282
Width: 359
VWidth: 0
Flags: HW
PickledData: "(dp1
."
LayerCount: 2
Fore
SplineSet
46 694 m 1
 46 676 l 1
 272 676 l 1
 313 713 l 1
 313 733 l 1
 87 733 l 1
 46 694 l 1
EndSplineSet
Refer: 12 65 N 1 0 0 1 0 0 2
EndChar
StartChar: amacron
Encoding: 257 257 164
Width: 341
VWidth: 0
Flags: HW
PickledData: "(dp1
."
LayerCount: 2
Fore
SplineSet
74 543 m 1
 74 525 l 1
 300 525 l 1
 342 562 l 1
 342 582 l 1
 116 582 l 1
 74 543 l 1
EndSplineSet
Refer: 24 97 N 1 0 0 1 8 0 2
EndChar
StartChar: Abreve
Encoding: 258 258 283
Width: 431
VWidth: 0
Flags: HW
PickledData: "(dp1
."
LayerCount: 2
Fore
SplineSet
50 102 m 2
 50 10 -1 0 -10 0 c 1
 6 -32 l 1
 211 54 l 1
 211 85 l 1
 176 85 170 109 170 154 c 2
 170 342 l 1
 260 342 l 1
 260 68 l 2
 260 28 320 0 320 0 c 1
 429 61 l 1
 429 83 l 1
 404 88 381 103 381 148 c 2
 381 342 l 1
 430 367 l 1
 430 391 l 1
 381 391 l 1
 381 653 l 2
 381 700 315 768 294 768 c 0
 273 768 50 685 50 676 c 2
 50 102 l 2
170 660 m 1
 170 660 187 675 209 675 c 0
 231 675 260 664 260 601 c 2
 260 391 l 1
 229 391 l 1
 170 365 l 1
 170 660 l 1
357 925 m 2
 357 948 337 969 330 969 c 0
 324 969 264 944 264 940 c 2
 264 892 l 1
 264 892 235 855 185 855 c 1
 167 925 l 2
 161 947 147 969 140 969 c 0
 134 969 74 944 74 940 c 0
 74 859 157 809 183 809 c 0
 209 809 357 879 357 889 c 2
 357 925 l 2
EndSplineSet
EndChar
StartChar: abreve
Encoding: 259 259 162
Width: 410
VWidth: 0
Flags: HW
PickledData: "(dp1
."
LayerCount: 2
Fore
SplineSet
378 746 m 2
 378 769 358 790 351 790 c 0
 345 790 285 765 285 761 c 2
 285 713 l 1
 285 713 256 676 206 676 c 1
 188 746 l 2
 182 768 168 790 161 790 c 0
 155 790 95 765 95 761 c 0
 95 680 178 630 204 630 c 0
 230 630 378 700 378 710 c 2
 378 746 l 2
EndSplineSet
Refer: 24 97 N 1 0 0 1 10 0 2
EndChar
StartChar: Aogonek
Encoding: 260 260 284
Width: 359
VWidth: 0
Flags: HW
PickledData: "(dp1
."
LayerCount: 2
Fore
SplineSet
282 -6 m 0
 282 25 298 69 298 69 c 1
 228 32 l 1
 228 32 215 -8 215 -49 c 0
 215 -106 283 -125 295 -125 c 0
 307 -125 382 -93 382 -93 c 1
 382 -78 l 1
 283 -78 282 -37 282 -6 c 0
EndSplineSet
Refer: 12 65 N 1 0 0 1 0 0 2
EndChar
StartChar: aogonek
Encoding: 261 261 166
Width: 341
VWidth: 0
Flags: HW
PickledData: "(dp1
."
LayerCount: 2
Fore
SplineSet
264 -6 m 0
 264 25 280 69 280 69 c 1
 210 32 l 1
 210 32 197 -8 197 -49 c 0
 197 -106 265 -125 277 -125 c 0
 289 -125 363 -93 363 -93 c 1
 363 -78 l 1
 264 -78 264 -37 264 -6 c 0
EndSplineSet
Refer: 24 97 N 1 0 0 1 8 0 2
EndChar
StartChar: Cacute
Encoding: 262 262 287
Width: 336
VWidth: 0
Flags: HW
PickledData: "(dp1
."
LayerCount: 2
Fore
SplineSet
42 565 m 2
 42 149 l 2
 42 78 103 0 158 0 c 0
 180 0 279 46 290 46 c 1
 290 70 l 1
 153 70 142 128 142 208 c 2
 142 552 l 1
 142 552 147 561 157 561 c 0
 181 561 194 425 219 425 c 0
 227 425 295 462 328 476 c 1
 328 492 l 1
 323 492 300 493 292 508 c 0
 269 548 259 641 247 641 c 0
 228 641 42 572 42 565 c 2
141 812 m 0
 125 786 100 734 100 711 c 0
 100 692 110 675 113 675 c 0
 123 675 139 681 142 685 c 0
 154 700 217 785 217 805 c 0
 217 811 210 821 178 821 c 0
 159 821 143 816 141 812 c 0
EndSplineSet
EndChar
StartChar: cacute
Encoding: 263 263 168
Width: 336
VWidth: 0
Flags: HW
PickledData: "(dp1
."
LayerCount: 2
Fore
SplineSet
328 326 m 1
 323 326 300 327 292 342 c 0
 269 382 259 475 247 475 c 0
 228 475 42 405 42 398 c 2
 42 118 l 2
 42 51 88 0 118 0 c 0
 127 0 264 46 264 46 c 1
 264 70 l 1
 208 70 142 75 142 156 c 2
 142 386 l 1
 142 386 147 394 157 394 c 0
 181 394 194 258 219 258 c 0
 227 258 295 295 328 309 c 1
 328 326 l 1
153 663 m 0
 137 637 112 584 112 561 c 0
 112 542 123 526 126 526 c 0
 136 526 152 532 155 536 c 0
 167 551 230 636 230 656 c 0
 230 662 223 671 191 671 c 0
 172 671 155 667 153 663 c 0
EndSplineSet
EndChar
StartChar: Ccircumflex
Encoding: 264 264 288
Width: 404
VWidth: 0
Flags: HW
PickledData: "(dp1
."
LayerCount: 2
Fore
SplineSet
50 678 m 2
 50 179 l 2
 50 94 124 0 190 0 c 0
 217 0 335 55 348 55 c 1
 348 84 l 1
 184 84 170 154 170 250 c 2
 170 663 l 1
 170 663 176 673 188 673 c 0
 217 673 233 510 263 510 c 0
 273 510 354 554 394 571 c 1
 394 591 l 1
 388 591 361 592 351 610 c 0
 323 658 311 770 296 770 c 0
 273 770 50 687 50 678 c 2
247 970 m 0
 243 973 224 985 192 985 c 0
 160 985 140 973 137 970 c 0
 105 939 24 867 24 853 c 0
 24 830 36 810 40 810 c 0
 57 810 133 862 192 909 c 1
 251 862 327 810 344 810 c 0
 348 810 360 830 360 853 c 0
 360 867 281 942 247 970 c 0
EndSplineSet
EndChar
StartChar: ccircumflex
Encoding: 265 265 169
Width: 336
VWidth: 0
Flags: HW
PickledData: "(dp1
."
LayerCount: 2
Fore
SplineSet
218 659 m 0
 215 661 199 671 172 671 c 0
 145 671 129 661 127 659 c 0
 100 633 32 573 32 561 c 0
 32 542 43 526 46 526 c 0
 60 526 123 569 172 608 c 1
 221 569 285 526 299 526 c 0
 302 526 312 542 312 561 c 0
 312 573 246 636 218 659 c 0
EndSplineSet
Refer: 6 99 N 1 0 0 1 0 0 2
EndChar
StartChar: Cdotaccent
Encoding: 266 266 291
Width: 336
VWidth: 0
Flags: HW
PickledData: "(dp1
."
LayerCount: 2
Fore
SplineSet
42 565 m 2
 42 149 l 2
 42 78 103 0 158 0 c 0
 180 0 279 46 290 46 c 1
 290 70 l 1
 153 70 142 128 142 208 c 2
 142 552 l 1
 142 552 147 561 157 561 c 0
 181 561 194 425 219 425 c 0
 227 425 295 462 328 476 c 1
 328 492 l 1
 323 492 300 493 292 508 c 0
 269 548 259 641 247 641 c 0
 228 641 42 572 42 565 c 2
109 729 m 2
 109 693 128 676 137 676 c 0
 146 676 210 701 210 704 c 2
 210 765 l 2
 210 787 190 808 183 808 c 0
 177 808 109 783 109 780 c 2
 109 729 l 2
EndSplineSet
EndChar
StartChar: cdotaccent
Encoding: 267 267 172
Width: 336
VWidth: 0
Flags: HW
PickledData: "(dp1
."
LayerCount: 2
Fore
SplineSet
117 579 m 2
 117 543 136 526 145 526 c 0
 154 526 218 551 218 554 c 2
 218 615 l 2
 218 637 199 658 192 658 c 0
 186 658 117 633 117 630 c 2
 117 579 l 2
EndSplineSet
Refer: 6 99 N 1 0 0 1 0 0 2
EndChar
StartChar: Ccaron
Encoding: 268 268 289
Width: 336
VWidth: 0
Flags: HW
PickledData: "(dp1
."
LayerCount: 2
Fore
SplineSet
42 565 m 2
 42 149 l 2
 42 78 103 0 158 0 c 0
 180 0 279 46 290 46 c 1
 290 70 l 1
 153 70 142 128 142 208 c 2
 142 552 l 1
 142 552 147 561 157 561 c 0
 181 561 194 425 219 425 c 0
 227 425 295 462 328 476 c 1
 328 492 l 1
 323 492 300 493 292 508 c 0
 269 548 259 641 247 641 c 0
 228 641 42 572 42 565 c 2
204 686 m 0
 201 684 185 674 158 674 c 0
 131 674 114 684 112 686 c 0
 85 712 18 772 18 784 c 0
 18 803 29 820 32 820 c 0
 46 820 109 776 158 737 c 1
 207 776 271 820 285 820 c 0
 288 820 298 803 298 784 c 0
 298 772 232 709 204 686 c 0
EndSplineSet
EndChar
StartChar: ccaron
Encoding: 269 269 170
Width: 336
VWidth: 0
Flags: HW
PickledData: "(dp1
."
LayerCount: 2
Fore
SplineSet
217 537 m 0
 214 535 198 525 171 525 c 0
 144 525 127 535 125 537 c 0
 98 563 31 623 31 635 c 0
 31 654 41 671 44 671 c 0
 58 671 122 627 171 588 c 1
 220 627 283 671 297 671 c 0
 300 671 311 654 311 635 c 0
 311 623 245 560 217 537 c 0
EndSplineSet
Refer: 6 99 N 1 0 0 1 0 0 2
EndChar
StartChar: Dcaron
Encoding: 270 270 292
Width: 359
VWidth: 0
Flags: HW
PickledData: "(dp1
."
LayerCount: 2
Fore
SplineSet
225 686 m 0
 222 684 206 674 179 674 c 0
 152 674 135 684 133 686 c 0
 106 712 39 772 39 784 c 0
 39 803 49 820 52 820 c 0
 66 820 130 776 179 737 c 1
 228 776 292 820 306 820 c 0
 309 820 319 803 319 784 c 0
 319 772 253 709 225 686 c 0
EndSplineSet
Refer: 57 68 N 1 0 0 1 0 0 2
EndChar
StartChar: dcaron
Encoding: 271 271 173
Width: 429
VWidth: 0
Flags: HW
PickledData: "(dp1
."
LayerCount: 2
Fore
SplineSet
198 641 m 0
 163 641 71 600 71 600 c 1
 71 575 l 1
 98 575 l 2
 122 575 144 541 182 456 c 1
 122 435 42 403 42 398 c 2
 42 101 l 2
 42 44 103 0 112 0 c 0
 124 0 171 27 217 55 c 1
 217 23 267 0 267 0 c 1
 352 50 357 51 357 51 c 1
 357 69 l 1
 329 73 317 106 317 127 c 2
 317 382 l 2
 317 434 229 641 198 641 c 0
217 90 m 1
 217 90 202 77 184 77 c 0
 166 77 142 86 142 138 c 2
 142 397 l 1
 142 397 172 417 199 417 c 0
 203 417 217 387 217 380 c 2
 217 90 l 1
340 594 m 2
 340 566 354 561 354 551 c 0
 354 536 349 498 332 491 c 1
 361 465 l 1
 400 487 416 561 416 575 c 2
 416 608 l 2
 416 625 402 641 397 641 c 0
 392 641 340 622 340 620 c 2
 340 594 l 2
EndSplineSet
EndChar
StartChar: Dcroat
Encoding: 272 272 285
Width: 431
VWidth: 0
Flags: HW
PickledData: "(dp1
."
LayerCount: 2
Fore
SplineSet
-61 371 m 1
 -61 349 l 1
 50 349 l 1
 50 146 l 2
 50 58 109 0 140 0 c 0
 170 0 381 82 381 93 c 2
 381 655 l 2
 381 702 315 770 294 770 c 1
 170 700 l 1
 170 740 110 768 110 768 c 1
 9 711 l 1
 9 689 l 1
 32 684 50 667 50 626 c 2
 50 418 l 1
 -11 418 l 1
 -61 371 l 1
260 108 m 1
 260 108 243 92 221 92 c 0
 199 92 170 103 170 166 c 2
 170 349 l 1
 210 349 l 1
 260 394 l 1
 260 108 l 1
170 636 m 1
 170 636 187 651 209 651 c 0
 231 651 260 643 260 580 c 2
 260 418 l 1
 170 418 l 1
 170 636 l 1
EndSplineSet
EndChar
StartChar: dcroat
Encoding: 273 273 174
Width: 430
VWidth: 0
Flags: HW
PickledData: "(dp1
."
LayerCount: 2
Fore
SplineSet
238 770 m 0
 196 770 85 720 85 720 c 1
 85 690 l 1
 118 690 l 2
 133 690 147 679 163 655 c 1
 123 637 l 1
 96 574 l 1
 105 553 l 1
 197 594 l 1
 219 547 l 1
 147 522 50 484 50 478 c 2
 50 121 l 2
 50 53 124 0 135 0 c 0
 149 0 205 32 260 66 c 1
 260 27 320 0 320 0 c 1
 422 60 429 61 429 61 c 1
 429 83 l 1
 395 88 381 128 381 153 c 2
 381 458 l 2
 381 491 352 575 319 648 c 1
 353 663 l 1
 381 724 l 1
 371 746 l 1
 288 709 l 1
 268 745 249 770 238 770 c 0
260 108 m 1
 260 108 243 92 221 92 c 0
 199 92 170 103 170 166 c 2
 170 477 l 1
 170 477 206 501 239 501 c 0
 244 501 260 464 260 456 c 2
 260 108 l 1
EndSplineSet
EndChar
StartChar: Emacron
Encoding: 274 274 300
Width: 336
VWidth: 0
Flags: HW
PickledData: "(dp1
."
LayerCount: 2
Fore
SplineSet
22 692 m 1
 22 674 l 1
 248 674 l 1
 290 711 l 1
 290 731 l 1
 64 731 l 1
 22 692 l 1
EndSplineSet
Refer: 38 69 N 1 0 0 1 0 0 2
EndChar
StartChar: emacron
Encoding: 275 275 179
Width: 358
VWidth: 0
Flags: HW
PickledData: "(dp1
."
LayerCount: 2
Fore
SplineSet
59 543 m 1
 59 525 l 1
 285 525 l 1
 327 562 l 1
 327 582 l 1
 101 582 l 1
 59 543 l 1
EndSplineSet
Refer: 5 101 N 1 0 0 1 0 0 2
EndChar
StartChar: Ebreve
Encoding: 276 276 299
Width: 336
VWidth: 0
Flags: HW
PickledData: "(dp1
."
LayerCount: 2
Fore
SplineSet
42 127 m 2
 42 56 133 0 158 0 c 0
 180 0 279 46 290 46 c 1
 290 70 l 1
 142 70 142 106 142 208 c 2
 142 292 l 1
 217 292 l 1
 259 312 l 1
 259 332 l 1
 142 332 l 1
 142 552 l 1
 142 552 147 561 157 561 c 0
 181 561 194 425 219 425 c 0
 227 425 295 462 328 476 c 1
 328 492 l 1
 323 492 300 493 292 508 c 0
 269 548 259 641 247 641 c 0
 228 641 42 572 42 565 c 2
 42 127 l 2
268 771 m 2
 268 790 252 807 246 807 c 0
 241 807 191 786 191 783 c 2
 191 743 l 1
 191 743 167 712 125 712 c 1
 110 771 l 2
 105 789 93 807 87 807 c 0
 82 807 32 786 32 783 c 0
 32 716 101 674 123 674 c 0
 145 674 268 733 268 741 c 2
 268 771 l 2
EndSplineSet
EndChar
StartChar: ebreve
Encoding: 277 277 180
Width: 430
VWidth: 0
Flags: HW
PickledData: "(dp1
."
LayerCount: 2
Fore
SplineSet
354 746 m 2
 354 769 334 790 327 790 c 0
 321 790 261 765 261 761 c 2
 261 713 l 1
 261 713 232 676 182 676 c 1
 164 746 l 2
 158 768 144 790 137 790 c 0
 131 790 71 765 71 761 c 0
 71 680 154 630 180 630 c 0
 206 630 354 700 354 710 c 2
 354 746 l 2
EndSplineSet
Refer: 5 101 N 1 0 0 1 0 0 2
EndChar
StartChar: Edotaccent
Encoding: 278 278 301
Width: 404
VWidth: 0
Flags: HW
PickledData: "(dp1
."
LayerCount: 2
Fore
SplineSet
50 152 m 2
 50 67 160 0 190 0 c 0
 217 0 335 55 348 55 c 1
 348 84 l 1
 170 84 170 128 170 250 c 2
 170 350 l 1
 261 350 l 1
 311 375 l 1
 311 399 l 1
 170 399 l 1
 170 663 l 1
 170 663 176 673 188 673 c 0
 217 673 233 510 263 510 c 0
 273 510 354 554 394 571 c 1
 394 591 l 1
 388 591 361 592 351 610 c 0
 323 658 311 770 296 770 c 0
 273 770 50 687 50 678 c 2
 50 152 l 2
141 874 m 2
 141 831 163 810 174 810 c 0
 185 810 262 840 262 844 c 2
 262 917 l 2
 262 944 238 969 230 969 c 0
 223 969 141 939 141 935 c 2
 141 874 l 2
EndSplineSet
EndChar
StartChar: Eogonek
Encoding: 280 280 302
Width: 404
VWidth: 0
Flags: HW
PickledData: "(dp1
."
LayerCount: 2
Fore
SplineSet
50 152 m 2
 50 67 160 0 190 0 c 0
 217 0 335 55 348 55 c 1
 348 84 l 1
 170 84 170 128 170 250 c 2
 170 350 l 1
 261 350 l 1
 311 375 l 1
 311 399 l 1
 170 399 l 1
 170 663 l 1
 170 663 176 673 188 673 c 0
 217 673 233 510 263 510 c 0
 273 510 354 554 394 571 c 1
 394 591 l 1
 388 591 361 592 351 610 c 0
 323 658 311 770 296 770 c 0
 273 770 50 687 50 678 c 2
 50 152 l 2
184 -7 m 0
 184 30 203 83 203 83 c 1
 119 38 l 1
 119 38 103 -10 103 -59 c 0
 103 -128 184 -150 199 -150 c 0
 214 -150 303 -112 303 -112 c 1
 303 -94 l 1
 184 -94 184 -44 184 -7 c 0
EndSplineSet
EndChar
StartChar: eogonek
Encoding: 281 281 182
Width: 358
VWidth: 0
Flags: HW
PickledData: "(dp1
."
LayerCount: 2
Fore
SplineSet
246 475 m 0
 227 475 42 405 42 398 c 2
 42 118 l 2
 42 51 88 0 118 0 c 0
 127 0 264 46 264 46 c 1
 264 70 l 1
 208 70 142 75 142 156 c 1
 143 156 317 208 317 242 c 2
 317 382 l 2
 317 429 253 475 246 475 c 0
217 283 m 2
 217 228 184 205 142 193 c 1
 142 386 l 1
 142 386 159 398 173 398 c 0
 205 398 217 369 217 342 c 2
 217 283 l 2
141 -6 m 0
 141 25 157 69 157 69 c 1
 87 32 l 1
 87 32 73 -8 73 -49 c 0
 73 -106 141 -125 153 -125 c 0
 165 -125 240 -93 240 -93 c 1
 240 -78 l 1
 141 -78 141 -37 141 -6 c 0
EndSplineSet
EndChar
StartChar: Ecaron
Encoding: 282 282 297
Width: 404
VWidth: 0
Flags: HW
PickledData: "(dp1
."
LayerCount: 2
Fore
SplineSet
50 152 m 2
 50 67 160 0 190 0 c 0
 217 0 335 55 348 55 c 1
 348 84 l 1
 170 84 170 128 170 250 c 2
 170 350 l 1
 261 350 l 1
 311 375 l 1
 311 399 l 1
 170 399 l 1
 170 663 l 1
 170 663 176 673 188 673 c 0
 217 673 233 510 263 510 c 0
 273 510 354 554 394 571 c 1
 394 591 l 1
 388 591 361 592 351 610 c 0
 323 658 311 770 296 770 c 0
 273 770 50 687 50 678 c 2
 50 152 l 2
237 824 m 0
 233 821 214 809 182 809 c 0
 150 809 130 821 127 824 c 0
 95 855 14 927 14 941 c 0
 14 964 26 984 30 984 c 0
 47 984 123 932 182 885 c 1
 241 932 317 984 334 984 c 0
 338 984 350 964 350 941 c 0
 350 927 271 852 237 824 c 0
EndSplineSet
EndChar
StartChar: ecaron
Encoding: 283 283 184
Width: 430
VWidth: 0
Flags: HW
PickledData: "(dp1
."
LayerCount: 2
Fore
SplineSet
269 645 m 0
 265 642 246 630 214 630 c 0
 182 630 162 642 159 645 c 0
 127 676 46 748 46 762 c 0
 46 785 58 805 62 805 c 0
 79 805 155 753 214 706 c 1
 273 753 349 805 366 805 c 0
 370 805 382 785 382 762 c 0
 382 748 303 673 269 645 c 0
EndSplineSet
Refer: 5 101 N 1 0 0 1 0 0 2
EndChar
StartChar: Gcircumflex
Encoding: 284 284 303
Width: 350
VWidth: 0
Flags: HW
PickledData: "(dp1
."
LayerCount: 2
Fore
SplineSet
204 808 m 0
 201 810 185 821 158 821 c 0
 131 821 114 810 112 808 c 0
 85 782 18 723 18 711 c 0
 18 692 29 675 32 675 c 0
 46 675 109 718 158 757 c 1
 207 718 271 675 285 675 c 0
 288 675 298 692 298 711 c 0
 298 723 232 785 204 808 c 0
EndSplineSet
Refer: 40 71 N 1 0 0 1 0 0 2
EndChar
StartChar: Gbreve
Encoding: 286 286 304
Width: 350
VWidth: 0
Flags: HW
PickledData: "(dp1
."
LayerCount: 2
Fore
SplineSet
182 273 m 1
 182 255 l 1
 203 251 217 234 217 197 c 2
 217 90 l 1
 217 90 202 77 184 77 c 0
 166 77 142 86 142 138 c 2
 142 552 l 1
 142 552 147 561 157 561 c 0
 181 561 194 425 219 425 c 0
 227 425 295 462 328 476 c 1
 328 492 l 1
 323 492 300 493 292 508 c 0
 269 548 259 641 247 641 c 0
 228 641 42 572 42 565 c 2
 42 122 l 2
 42 49 91 0 117 0 c 0
 142 0 317 68 317 77 c 2
 317 264 l 2
 317 297 267 321 267 321 c 1
 182 273 l 1
273 771 m 2
 273 790 257 807 251 807 c 0
 246 807 196 786 196 783 c 2
 196 743 l 1
 196 743 172 712 130 712 c 1
 115 771 l 2
 110 789 98 807 92 807 c 0
 87 807 37 786 37 783 c 0
 37 716 106 674 128 674 c 0
 150 674 273 733 273 741 c 2
 273 771 l 2
EndSplineSet
EndChar
StartChar: gbreve
Encoding: 287 287 186
Width: 359
VWidth: 0
Flags: HW
PickledData: "(dp1
."
LayerCount: 2
Fore
SplineSet
297 621 m 2
 297 640 280 658 274 658 c 0
 269 658 219 637 219 634 c 2
 219 594 l 1
 219 594 195 563 153 563 c 1
 138 621 l 2
 133 639 122 658 116 658 c 0
 111 658 61 637 61 634 c 0
 61 567 130 525 152 525 c 0
 174 525 297 583 297 591 c 2
 297 621 l 2
EndSplineSet
Refer: 17 103 N 1 0 0 1 0 0 2
EndChar
StartChar: Gdotaccent
Encoding: 288 288 305
Width: 350
VWidth: 0
Flags: HW
PickledData: "(dp1
."
LayerCount: 2
Fore
SplineSet
108 729 m 2
 108 693 127 676 136 676 c 0
 145 676 209 701 209 704 c 2
 209 765 l 2
 209 787 189 808 182 808 c 0
 176 808 108 783 108 780 c 2
 108 729 l 2
EndSplineSet
Refer: 40 71 N 1 0 0 1 0 0 2
EndChar
StartChar: Gcommaaccent
Encoding: 290 290 306
Width: 350
VWidth: 0
Flags: HW
PickledData: "(dp1
."
LayerCount: 2
Fore
SplineSet
137 -71 m 2
 137 -108 156 -115 156 -127 c 0
 156 -147 149 -172 127 -181 c 1
 165 -216 l 1
 217 -186 238 -115 238 -96 c 2
 238 -52 l 2
 238 -30 219 -8 212 -8 c 0
 206 -8 137 -34 137 -37 c 2
 137 -71 l 2
EndSplineSet
Refer: 40 71 N 1 0 0 1 0 0 2
EndChar
StartChar: gcommaaccent
Encoding: 291 291 188
Width: 431
VWidth: 0
Flags: HW
PickledData: "(dp1
."
LayerCount: 2
Fore
SplineSet
292 570 m 0
 266 570 50 491 50 477 c 2
 50 148 l 2
 50 83 89 20 131 20 c 0
 148 20 261 73 261 73 c 1
 215 -31 137 -90 89 -90 c 2
 55 -90 l 1
 55 -120 l 1
 55 -120 167 -180 223 -180 c 0
 250 -180 381 23 381 106 c 2
 381 424 l 2
 381 501 329 570 292 570 c 0
171 462 m 1
 171 462 188 478 211 478 c 0
 251 478 261 444 261 390 c 2
 261 115 l 1
 206 115 171 132 171 232 c 2
 171 462 l 1
257 687 m 2
 257 721 240 727 240 739 c 0
 240 757 246 802 266 810 c 1
 232 842 l 1
 185 815 165 727 165 710 c 2
 165 670 l 2
 165 649 183 630 189 630 c 0
 195 630 257 653 257 656 c 2
 257 687 l 2
EndSplineSet
EndChar
StartChar: Hcircumflex
Encoding: 292 292 307
Width: 430
VWidth: 0
Flags: HW
PickledData: "(dp1
."
LayerCount: 2
Fore
SplineSet
260 409 m 1
 220 409 l 1
 170 382 l 1
 170 702 l 2
 170 742 110 770 110 770 c 1
 9 713 l 1
 9 691 l 1
 34 686 50 667 50 622 c 2
 50 102 l 2
 50 10 -1 0 -10 0 c 1
 6 -32 l 1
 211 54 l 1
 211 85 l 1
 176 85 170 109 170 154 c 2
 170 360 l 1
 260 360 l 1
 260 68 l 2
 260 28 320 0 320 0 c 1
 421 57 l 1
 421 79 l 1
 396 84 380 103 380 148 c 2
 380 360 l 1
 430 385 l 1
 430 409 l 1
 380 409 l 1
 380 637 l 2
 380 729 431 739 440 739 c 1
 424 771 l 1
 219 685 l 1
 219 654 l 1
 254 654 260 630 260 585 c 2
 260 409 l 1
271 970 m 0
 267 973 248 985 216 985 c 0
 184 985 164 973 161 970 c 0
 129 939 48 867 48 853 c 0
 48 830 60 810 64 810 c 0
 81 810 157 862 216 909 c 1
 275 862 351 810 368 810 c 0
 372 810 384 830 384 853 c 0
 384 867 305 942 271 970 c 0
EndSplineSet
EndChar
StartChar: hcircumflex
Encoding: 293 293 189
Width: 430
VWidth: 0
Flags: HW
PickledData: "(dp1
."
LayerCount: 2
Fore
SplineSet
177 959 m 0
 173 962 154 974 122 974 c 0
 90 974 70 962 67 959 c 0
 35 928 -46 856 -46 842 c 0
 -46 819 -34 799 -30 799 c 0
 -13 799 63 851 122 898 c 1
 181 851 257 799 274 799 c 0
 278 799 290 819 290 842 c 0
 290 856 211 931 177 959 c 0
EndSplineSet
Refer: 23 104 N 1 0 0 1 0 0 2
EndChar
StartChar: Hbar
Encoding: 294 294 308
Width: 430
VWidth: 0
Flags: HW
PickledData: "(dp1
."
LayerCount: 2
Fore
SplineSet
0 524 m 1
 0 502 l 1
 380 502 l 1
 430 547 l 1
 430 571 l 1
 50 571 l 1
 0 524 l 1
260 409 m 1
 220 409 l 1
 170 382 l 1
 170 702 l 2
 170 742 110 770 110 770 c 1
 9 713 l 1
 9 691 l 1
 34 686 50 667 50 622 c 2
 50 102 l 2
 50 10 -1 0 -10 0 c 1
 6 -32 l 1
 211 54 l 1
 211 85 l 1
 176 85 170 109 170 154 c 2
 170 360 l 1
 260 360 l 1
 260 68 l 2
 260 28 320 0 320 0 c 1
 421 57 l 1
 421 79 l 1
 396 84 380 103 380 148 c 2
 380 360 l 1
 430 385 l 1
 430 409 l 1
 380 409 l 1
 380 637 l 2
 380 729 431 739 440 739 c 1
 424 771 l 1
 219 685 l 1
 219 654 l 1
 254 654 260 630 260 585 c 2
 260 409 l 1
EndSplineSet
EndChar
StartChar: hbar
Encoding: 295 295 190
Width: 358
VWidth: 0
Flags: HW
PickledData: "(dp1
."
LayerCount: 2
Fore
SplineSet
-34 499 m 1
 -34 481 l 1
 42 481 l 1
 42 57 l 2
 42 24 92 0 92 0 c 1
 176 47 l 1
 176 66 l 1
 155 70 142 86 142 123 c 2
 142 396 l 1
 196 396 217 390 217 298 c 2
 217 57 l 2
 217 24 267 0 267 0 c 1
 357 51 l 1
 357 69 l 1
 336 73 317 86 317 123 c 2
 317 368 l 2
 317 422 277 475 242 475 c 0
 228 475 142 431 142 431 c 1
 142 481 l 1
 192 481 l 1
 233 518 l 1
 233 538 l 1
 142 538 l 1
 142 585 l 2
 142 618 92 641 92 641 c 1
 7 594 l 1
 7 576 l 1
 24 573 36 561 40 538 c 1
 7 538 l 1
 -34 499 l 1
EndSplineSet
EndChar
StartChar: Itilde
Encoding: 296 296 313
Width: 183
VWidth: 0
Flags: HW
PickledData: "(dp1
."
LayerCount: 2
Fore
SplineSet
42 107 m 2
 42 32 -8 27 -8 27 c 1
 5 0 l 2
 6 0 175 74 175 74 c 1
 175 97 l 1
 151 97 142 109 142 139 c 2
 142 531 l 2
 142 608 185 616 192 616 c 1
 178 642 l 1
 7 571 l 1
 7 545 l 1
 36 545 42 524 42 487 c 2
 42 107 l 2
196 768 m 1
 179 768 l 1
 174 756 152 747 129 747 c 0
 99 747 52 770 10 770 c 0
 -21 770 -47 736 -47 736 c 1
 -15 676 l 1
 2 676 l 1
 7 688 29 698 52 698 c 0
 96 698 130 674 172 674 c 0
 203 674 228 707 228 707 c 1
 196 768 l 1
EndSplineSet
EndChar
StartChar: itilde
Encoding: 297 297 195
Width: 183
VWidth: 0
Flags: HW
PickledData: "(dp1
."
LayerCount: 2
Fore
SplineSet
7 427 m 1
 7 409 l 1
 28 405 42 389 42 352 c 2
 42 57 l 2
 42 24 92 0 92 0 c 1
 176 47 l 1
 176 66 l 1
 155 70 142 86 142 123 c 2
 142 418 l 2
 142 451 92 475 92 475 c 1
 7 427 l 1
196 619 m 1
 179 619 l 1
 174 607 152 598 129 598 c 0
 99 598 52 621 10 621 c 0
 -21 621 -47 587 -47 587 c 1
 -15 526 l 1
 2 526 l 1
 7 538 29 549 52 549 c 0
 96 549 130 525 172 525 c 0
 203 525 228 558 228 558 c 1
 196 619 l 1
EndSplineSet
EndChar
StartChar: Imacron
Encoding: 298 298 315
Width: 220
VWidth: 0
Flags: HW
PickledData: "(dp1
."
LayerCount: 2
Fore
SplineSet
50 128 m 2
 50 38 -10 32 -10 32 c 1
 6 0 l 2
 7 0 210 89 210 89 c 1
 210 117 l 1
 181 117 170 131 170 167 c 2
 170 637 l 2
 170 729 221 739 230 739 c 1
 214 771 l 1
 9 685 l 1
 9 654 l 1
 44 654 50 630 50 585 c 2
 50 128 l 2
-45 831 m 1
 -45 809 l 1
 226 809 l 1
 276 854 l 1
 276 878 l 1
 5 878 l 1
 -45 831 l 1
EndSplineSet
EndChar
StartChar: imacron
Encoding: 299 299 196
Width: 183
VWidth: 0
Flags: HW
PickledData: "(dp1
."
LayerCount: 2
Fore
SplineSet
7 427 m 1
 7 409 l 1
 28 405 42 389 42 352 c 2
 42 57 l 2
 42 24 92 0 92 0 c 1
 176 47 l 1
 176 66 l 1
 155 70 142 86 142 123 c 2
 142 418 l 2
 142 451 92 475 92 475 c 1
 7 427 l 1
-37 543 m 1
 -37 525 l 1
 188 525 l 1
 230 562 l 1
 230 582 l 1
 4 582 l 1
 -37 543 l 1
EndSplineSet
EndChar
StartChar: Ibreve
Encoding: 300 300 314
Width: 183
VWidth: 0
Flags: HW
PickledData: "(dp1
."
LayerCount: 2
Fore
SplineSet
42 107 m 2
 42 32 -8 27 -8 27 c 1
 5 0 l 2
 6 0 175 74 175 74 c 1
 175 97 l 1
 151 97 142 109 142 139 c 2
 142 531 l 2
 142 608 185 616 192 616 c 1
 178 642 l 1
 7 571 l 1
 7 545 l 1
 36 545 42 524 42 487 c 2
 42 107 l 2
208 771 m 2
 208 790 192 807 186 807 c 0
 181 807 131 786 131 783 c 2
 131 743 l 1
 131 743 107 712 65 712 c 1
 50 771 l 2
 45 789 33 807 27 807 c 0
 22 807 -27 786 -27 783 c 0
 -27 716 41 674 63 674 c 0
 85 674 208 733 208 741 c 2
 208 771 l 2
EndSplineSet
EndChar
StartChar: ibreve
Encoding: 301 301 198
Width: 183
VWidth: 0
Flags: HW
PickledData: "(dp1
."
LayerCount: 2
Fore
SplineSet
7 427 m 1
 7 409 l 1
 28 405 42 389 42 352 c 2
 42 57 l 2
 42 24 92 0 92 0 c 1
 176 47 l 1
 176 66 l 1
 155 70 142 86 142 123 c 2
 142 418 l 2
 142 451 92 475 92 475 c 1
 7 427 l 1
199 621 m 2
 199 640 183 658 177 658 c 0
 172 658 122 637 122 634 c 2
 122 594 l 1
 122 594 98 563 56 563 c 1
 41 621 l 2
 36 639 24 658 18 658 c 0
 13 658 -37 637 -37 634 c 0
 -37 567 32 525 54 525 c 0
 76 525 199 583 199 591 c 2
 199 621 l 2
EndSplineSet
EndChar
StartChar: Iogonek
Encoding: 302 302 316
Width: 220
VWidth: 0
Flags: HW
PickledData: "(dp1
."
LayerCount: 2
Fore
SplineSet
50 128 m 2
 50 38 -10 32 -10 32 c 1
 6 0 l 2
 7 0 210 89 210 89 c 1
 210 117 l 1
 181 117 170 131 170 167 c 2
 170 637 l 2
 170 729 221 739 230 739 c 1
 214 771 l 1
 9 685 l 1
 9 654 l 1
 44 654 50 630 50 585 c 2
 50 128 l 2
131 -7 m 0
 131 30 150 83 150 83 c 1
 66 38 l 1
 66 38 50 -10 50 -59 c 0
 50 -128 131 -150 146 -150 c 0
 161 -150 250 -112 250 -112 c 1
 250 -94 l 1
 131 -94 131 -44 131 -7 c 0
EndSplineSet
EndChar
StartChar: iogonek
Encoding: 303 303 197
Width: 183
VWidth: 0
Flags: HW
PickledData: "(dp1
."
LayerCount: 2
Fore
SplineSet
7 427 m 1
 7 409 l 1
 28 405 42 389 42 352 c 2
 42 57 l 2
 42 24 92 0 92 0 c 1
 176 47 l 1
 176 66 l 1
 155 70 142 86 142 123 c 2
 142 418 l 2
 142 451 92 475 92 475 c 1
 7 427 l 1
29 579 m 2
 29 543 48 526 57 526 c 0
 66 526 130 551 130 554 c 2
 130 615 l 2
 130 637 110 658 103 658 c 0
 97 658 29 633 29 630 c 2
 29 579 l 2
107 -6 m 0
 107 25 123 69 123 69 c 1
 53 32 l 1
 53 32 40 -8 40 -49 c 0
 40 -106 108 -125 120 -125 c 0
 132 -125 207 -93 207 -93 c 1
 207 -78 l 1
 108 -78 107 -37 107 -6 c 0
EndSplineSet
EndChar
StartChar: Idotaccent
Encoding: 304 304 317
Width: 183
VWidth: 0
Flags: HW
PickledData: "(dp1
."
LayerCount: 2
Fore
SplineSet
42 107 m 2
 42 32 -8 27 -8 27 c 1
 5 0 l 2
 6 0 175 74 175 74 c 1
 175 97 l 1
 151 97 142 109 142 139 c 2
 142 531 l 2
 142 608 185 616 192 616 c 1
 178 642 l 1
 7 571 l 1
 7 545 l 1
 36 545 42 524 42 487 c 2
 42 107 l 2
41 728 m 2
 41 692 59 675 68 675 c 0
 77 675 142 700 142 703 c 2
 142 764 l 2
 142 786 122 807 115 807 c 0
 109 807 41 782 41 779 c 2
 41 728 l 2
EndSplineSet
EndChar
StartChar: dotlessi
Encoding: 305 305 15
Width: 183
VWidth: 0
Flags: HW
PickledData: "(dp1
."
AnchorPoint: "top" 92 525 basechar 0
LayerCount: 2
Fore
SplineSet
7 427 m 1
 7 409 l 1
 28 405 42 389 42 352 c 2
 42 57 l 2
 42 24 92 0 92 0 c 1
 176 47 l 1
 176 66 l 1
 155 70 142 86 142 123 c 2
 142 418 l 2
 142 451 92 475 92 475 c 1
 7 427 l 1
EndSplineSet
EndChar
StartChar: IJ
Encoding: 306 306 374
Width: 428
VWidth: 0
Flags: HW
PickledData: "(dp1
."
LayerCount: 2
Fore
SplineSet
50 128 m 2
 50 38 -10 32 -10 32 c 1
 6 0 l 2
 7 0 210 89 210 89 c 1
 210 117 l 1
 181 117 170 131 170 167 c 2
 170 637 l 2
 170 729 221 739 230 739 c 1
 214 771 l 1
 9 685 l 1
 9 654 l 1
 44 654 50 630 50 585 c 2
 50 128 l 2
258 113 m 2
 258 -31 244 -90 196 -90 c 2
 162 -90 l 1
 162 -120 l 1
 162 -120 264 -180 320 -180 c 0
 347 -180 378 -57 378 106 c 2
 378 630 l 2
 378 720 418 738 418 738 c 1
 402 770 l 1
 300 710 170 642 170 642 c 1
 170 614 l 1
 199 614 258 614 258 574 c 2
 258 113 l 2
EndSplineSet
EndChar
StartChar: ij
Encoding: 307 307 213
Width: 366
VWidth: 0
Flags: HW
PickledData: "(dp1
."
LayerCount: 2
Fore
SplineSet
7 427 m 1
 7 409 l 1
 28 405 42 389 42 352 c 2
 42 57 l 2
 42 24 92 0 92 0 c 1
 176 47 l 1
 176 66 l 1
 155 70 142 86 142 123 c 2
 142 418 l 2
 142 451 92 475 92 475 c 1
 7 427 l 1
29 579 m 2
 29 543 48 526 57 526 c 0
 66 526 130 551 130 554 c 2
 130 615 l 2
 130 637 110 658 103 658 c 0
 97 658 29 633 29 630 c 2
 29 579 l 2
225 94 m 2
 225 -26 213 -75 173 -75 c 2
 145 -75 l 1
 145 -100 l 1
 145 -100 230 -150 277 -150 c 0
 299 -150 325 -48 325 88 c 2
 325 418 l 2
 325 451 275 475 275 475 c 1
 191 427 l 1
 191 409 l 1
 212 405 225 389 225 352 c 2
 225 94 l 2
212 561 m 2
 212 525 231 507 240 507 c 0
 249 507 313 533 313 536 c 2
 313 596 l 2
 313 618 294 640 287 640 c 0
 281 640 212 614 212 611 c 2
 212 561 l 2
EndSplineSet
EndChar
StartChar: Jcircumflex
Encoding: 308 308 318
Width: 220
VWidth: 0
Flags: HW
PickledData: "(dp1
."
LayerCount: 2
Fore
SplineSet
50 113 m 2
 50 -31 36 -90 -12 -90 c 2
 -46 -90 l 1
 -46 -120 l 1
 -46 -120 56 -180 112 -180 c 0
 139 -180 170 -57 170 106 c 2
 170 630 l 2
 170 720 210 738 210 738 c 1
 194 770 l 1
 92 710 -38 642 -38 642 c 1
 -38 614 l 1
 -9 614 50 614 50 574 c 2
 50 113 l 2
167 970 m 0
 163 973 144 985 112 985 c 0
 80 985 60 973 57 970 c 0
 25 939 -56 867 -56 853 c 0
 -56 830 -44 810 -40 810 c 0
 -23 810 53 862 112 909 c 1
 171 862 247 810 264 810 c 0
 268 810 280 830 280 853 c 0
 280 867 201 942 167 970 c 0
EndSplineSet
EndChar
StartChar: jcircumflex
Encoding: 309 309 199
Width: 183
VWidth: 0
Flags: HW
PickledData: "(dp1
."
LayerCount: 2
Fore
SplineSet
42 94 m 2
 42 -26 30 -75 -10 -75 c 2
 -38 -75 l 1
 -38 -100 l 1
 -38 -100 46 -150 93 -150 c 0
 115 -150 142 -48 142 88 c 2
 142 418 l 2
 142 451 92 475 92 475 c 1
 7 427 l 1
 7 409 l 1
 28 405 42 389 42 352 c 2
 42 94 l 2
139 659 m 0
 136 661 120 671 93 671 c 0
 66 671 49 661 47 659 c 0
 20 633 -47 573 -47 561 c 0
 -47 542 -36 526 -33 526 c 0
 -19 526 44 569 93 608 c 1
 142 569 206 526 220 526 c 0
 223 526 233 542 233 561 c 0
 233 573 167 636 139 659 c 0
EndSplineSet
EndChar
StartChar: Kcommaaccent
Encoding: 310 310 319
Width: 426
VWidth: 0
Flags: HW
PickledData: "(dp1
."
LayerCount: 2
Fore
SplineSet
173 -85 m 2
 173 -130 195 -138 195 -153 c 0
 195 -177 188 -206 161 -217 c 1
 206 -259 l 1
 268 -223 294 -138 294 -115 c 2
 294 -62 l 2
 294 -35 270 -10 262 -10 c 0
 255 -10 173 -40 173 -44 c 2
 173 -85 l 2
50 620 m 2
 50 665 34 684 9 689 c 1
 9 711 l 1
 110 768 l 1
 110 768 170 740 170 701 c 2
 170 404 l 1
 201 404 260 429 260 455 c 2
 260 585 l 2
 260 630 254 654 219 654 c 1
 219 685 l 1
 424 771 l 1
 440 739 l 1
 431 739 380 729 380 637 c 2
 380 444 l 1
 381 438 328 415 272 393 c 1
 272 341 349 89 447 89 c 1
 447 59 l 1
 447 59 354 0 329 0 c 0
 278 0 175 301 175 359 c 1
 170 357 l 1
 170 154 l 2
 170 109 176 85 211 85 c 1
 211 54 l 1
 6 -32 l 1
 -10 0 l 1
 -1 0 50 10 50 102 c 2
 50 620 l 2
EndSplineSet
EndChar
StartChar: kcommaaccent
Encoding: 311 311 200
Width: 430
VWidth: 0
Flags: HW
PickledData: "(dp1
."
LayerCount: 2
Fore
SplineSet
160 -85 m 2
 160 -130 182 -138 182 -153 c 0
 182 -177 175 -206 148 -217 c 1
 193 -259 l 1
 255 -223 281 -138 281 -115 c 2
 281 -62 l 2
 281 -35 257 -10 249 -10 c 0
 242 -10 160 -40 160 -44 c 2
 160 -85 l 2
170 260 m 1
 187 203 271 0 320 0 c 0
 344 0 437 60 437 60 c 1
 437 89 l 1
 437 89 420 89 395 100 c 0
 369 111 324 155 272 292 c 1
 324 312 376 335 376 343 c 2
 376 452 l 2
 376 517 312 570 280 570 c 0
 263 570 170 510 170 510 c 1
 170 602 l 2
 170 692 258 737 258 737 c 1
 242 769 l 1
 140 709 10 641 10 641 c 1
 10 613 l 1
 39 613 50 599 50 563 c 2
 50 68 l 2
 50 28 110 0 110 0 c 1
 211 57 l 1
 211 79 l 1
 186 84 170 103 170 148 c 2
 170 260 l 1
170 468 m 1
 170 468 193 473 202 473 c 0
 242 473 260 444 260 388 c 2
 260 343 l 1
 260 343 193 309 170 309 c 1
 170 468 l 1
EndSplineSet
EndChar
StartChar: kgreenlandic
Encoding: 312 312 137
Width: 430
VWidth: 0
Flags: HW
PickledData: "(dp1
."
LayerCount: 2
Fore
SplineSet
170 260 m 1
 187 203 271 0 320 0 c 0
 344 0 437 60 437 60 c 1
 437 89 l 1
 437 89 418 90 395 100 c 0
 369 111 324 155 272 292 c 1
 324 312 376 335 376 343 c 2
 376 452 l 2
 376 517 312 570 280 570 c 0
 263 570 170 507 170 507 c 1
 170 547 110 570 110 570 c 1
 9 513 l 1
 9 491 l 1
 34 486 50 467 50 422 c 2
 50 68 l 2
 50 28 110 0 110 0 c 1
 211 57 l 1
 211 79 l 1
 186 84 170 103 170 148 c 2
 170 260 l 1
170 468 m 1
 170 468 193 473 202 473 c 0
 242 473 260 444 260 388 c 2
 260 343 l 1
 260 343 193 309 170 309 c 1
 170 468 l 1
EndSplineSet
EndChar
StartChar: Lacute
Encoding: 313 313 320
Width: 306
VWidth: 0
Flags: HW
PickledData: "(dp1
."
LayerCount: 2
Fore
SplineSet
42 126 m 2
 42 45 142 0 161 0 c 0
 179 0 290 47 290 47 c 1
 290 70 l 1
 142 70 142 113 142 190 c 2
 142 531 l 2
 142 608 185 616 192 616 c 1
 178 642 l 1
 7 571 l 1
 7 545 l 1
 36 545 42 524 42 487 c 2
 42 126 l 2
107 812 m 0
 91 786 67 734 67 711 c 0
 67 692 77 675 80 675 c 0
 90 675 106 681 109 685 c 0
 121 700 184 785 184 805 c 0
 184 811 177 821 145 821 c 0
 126 821 109 816 107 812 c 0
EndSplineSet
EndChar
StartChar: lacute
Encoding: 314 314 201
Width: 183
VWidth: 0
Flags: HW
PickledData: "(dp1
."
LayerCount: 2
Fore
SplineSet
7 593 m 1
 7 575 l 1
 28 571 42 554 42 517 c 2
 42 57 l 2
 42 24 92 0 92 0 c 1
 176 47 l 1
 176 66 l 1
 155 70 142 86 142 123 c 2
 142 584 l 2
 142 617 92 641 92 641 c 1
 7 593 l 1
81 830 m 0
 65 804 40 751 40 728 c 0
 40 709 50 692 53 692 c 0
 63 692 79 698 82 702 c 0
 94 717 157 802 157 822 c 0
 157 828 150 838 118 838 c 0
 99 838 83 834 81 830 c 0
EndSplineSet
EndChar
StartChar: Lcommaaccent
Encoding: 315 315 321
Width: 368
VWidth: 0
Flags: HW
PickledData: "(dp1
."
LayerCount: 2
Fore
SplineSet
148 -85 m 2
 148 -130 170 -138 170 -153 c 0
 170 -177 163 -206 136 -217 c 1
 181 -259 l 1
 243 -223 269 -138 269 -115 c 2
 269 -62 l 2
 269 -35 245 -10 237 -10 c 0
 230 -10 148 -40 148 -44 c 2
 148 -85 l 2
50 151 m 2
 50 54 170 0 193 0 c 0
 215 0 348 56 348 56 c 1
 348 84 l 1
 170 84 170 135 170 228 c 2
 170 637 l 2
 170 729 221 739 230 739 c 1
 214 771 l 1
 9 685 l 1
 9 654 l 1
 44 654 50 630 50 585 c 2
 50 151 l 2
EndSplineSet
EndChar
StartChar: lcommaaccent
Encoding: 316 316 202
Width: 220
VWidth: 0
Flags: HW
PickledData: "(dp1
."
LayerCount: 2
Fore
SplineSet
51 -85 m 2
 51 -130 73 -138 73 -153 c 0
 73 -177 66 -206 39 -217 c 1
 84 -259 l 1
 146 -223 172 -138 172 -115 c 2
 172 -62 l 2
 172 -35 148 -10 140 -10 c 0
 133 -10 51 -40 51 -44 c 2
 51 -85 l 2
9 712 m 1
 9 690 l 1
 34 685 50 666 50 621 c 2
 50 68 l 2
 50 28 110 0 110 0 c 1
 211 57 l 1
 211 79 l 1
 186 84 170 103 170 148 c 2
 170 701 l 2
 170 741 110 769 110 769 c 1
 9 712 l 1
EndSplineSet
EndChar
StartChar: Lcaron
Encoding: 317 317 322
Width: 306
VWidth: 0
Flags: HW
PickledData: "(dp1
."
LayerCount: 2
Fore
SplineSet
42 126 m 2
 42 45 142 0 161 0 c 0
 179 0 290 47 290 47 c 1
 290 70 l 1
 142 70 142 113 142 190 c 2
 142 531 l 2
 142 608 185 616 192 616 c 1
 178 642 l 1
 7 571 l 1
 7 545 l 1
 36 545 42 524 42 487 c 2
 42 126 l 2
297 512 m 2
 297 540 282 546 282 556 c 0
 282 571 287 608 304 615 c 1
 276 641 l 1
 237 619 220 545 220 531 c 2
 220 498 l 2
 220 481 235 465 240 465 c 0
 245 465 297 484 297 486 c 2
 297 512 l 2
EndSplineSet
EndChar
StartChar: lcaron
Encoding: 318 318 203
Width: 295
VWidth: 0
Flags: HW
PickledData: "(dp1
."
LayerCount: 2
Fore
SplineSet
7 593 m 1
 7 575 l 1
 28 571 42 554 42 517 c 2
 42 57 l 2
 42 24 92 0 92 0 c 1
 176 47 l 1
 176 66 l 1
 155 70 142 86 142 123 c 2
 142 584 l 2
 142 617 92 641 92 641 c 1
 7 593 l 1
194 594 m 2
 194 566 208 561 208 551 c 0
 208 536 204 498 187 491 c 1
 215 465 l 1
 254 487 271 561 271 575 c 2
 271 608 l 2
 271 625 256 641 251 641 c 0
 246 641 194 622 194 620 c 2
 194 594 l 2
EndSplineSet
EndChar
StartChar: Ldotaccent
Encoding: 319 319 379
Width: 306
VWidth: 0
Flags: HW
PickledData: "(dp1
."
LayerCount: 2
Fore
SplineSet
42 126 m 2
 42 45 142 0 161 0 c 0
 179 0 290 47 290 47 c 1
 290 70 l 1
 142 70 142 113 142 190 c 2
 142 531 l 2
 142 608 185 616 192 616 c 1
 178 642 l 1
 7 571 l 1
 7 545 l 1
 36 545 42 524 42 487 c 2
 42 126 l 2
175 320 m 2
 175 284 193 267 202 267 c 0
 211 267 276 292 276 295 c 2
 276 356 l 2
 276 378 256 399 249 399 c 0
 243 399 175 374 175 371 c 2
 175 320 l 2
EndSplineSet
EndChar
StartChar: ldot
Encoding: 320 320 204
Width: 375
VWidth: 0
Flags: HW
PickledData: "(dp1
."
LayerCount: 2
Fore
SplineSet
9 712 m 1
 9 690 l 1
 34 685 50 666 50 621 c 2
 50 68 l 2
 50 28 110 0 110 0 c 1
 211 57 l 1
 211 79 l 1
 186 84 170 103 170 148 c 2
 170 701 l 2
 170 741 110 769 110 769 c 1
 9 712 l 1
219 356 m 2
 219 313 241 292 252 292 c 0
 263 292 340 322 340 326 c 2
 340 399 l 2
 340 426 316 451 308 451 c 0
 301 451 219 421 219 417 c 2
 219 356 l 2
EndSplineSet
EndChar
StartChar: Lslash
Encoding: 321 321 323
Width: 368
VWidth: 0
Flags: HW
PickledData: "(dp1
."
LayerCount: 2
Fore
SplineSet
50 151 m 2
 50 54 170 0 193 0 c 0
 215 0 348 56 348 56 c 1
 348 84 l 1
 170 84 170 135 170 228 c 2
 170 366 l 1
 221 389 l 1
 249 450 l 1
 239 472 l 1
 170 441 l 1
 170 637 l 2
 170 729 221 739 230 739 c 1
 214 771 l 1
 9 685 l 1
 9 654 l 1
 44 654 50 630 50 585 c 2
 50 389 l 1
 -9 363 l 1
 -36 300 l 1
 -27 279 l 1
 50 313 l 1
 50 151 l 2
EndSplineSet
EndChar
StartChar: lslash
Encoding: 322 322 205
Width: 183
VWidth: 0
Flags: HW
PickledData: "(dp1
."
LayerCount: 2
Fore
SplineSet
7 593 m 1
 7 575 l 1
 28 571 42 554 42 517 c 2
 42 347 l 1
 -7 325 l 1
 -30 272 l 1
 -22 255 l 1
 42 283 l 1
 42 57 l 2
 42 24 92 0 92 0 c 1
 176 47 l 1
 176 66 l 1
 155 70 142 86 142 123 c 2
 142 327 l 1
 184 347 l 1
 207 397 l 1
 199 416 l 1
 142 390 l 1
 142 584 l 2
 142 617 92 641 92 641 c 1
 7 593 l 1
EndSplineSet
EndChar
StartChar: Nacute
Encoding: 323 323 325
Width: 430
VWidth: 0
Flags: HW
PickledData: "(dp1
."
LayerCount: 2
Fore
SplineSet
6 -32 m 1
 211 54 l 1
 211 85 l 1
 186 85 170 97 170 154 c 2
 170 667 l 1
 242 667 260 641 260 558 c 2
 260 68 l 2
 260 28 320 0 320 0 c 1
 429 61 l 1
 429 83 l 1
 404 88 380 103 380 148 c 2
 380 651 l 2
 380 694 338 770 292 770 c 0
 271 770 190 718 170 709 c 1
 170 756 110 771 110 771 c 1
 8 711 1 710 1 710 c 1
 1 688 l 1
 30 688 50 649 50 607 c 2
 50 114 l 2
 50 0 -10 0 -10 0 c 1
 6 -32 l 1
222 975 m 0
 203 944 173 881 173 853 c 0
 173 830 185 810 189 810 c 0
 201 810 220 817 224 822 c 0
 238 840 314 942 314 966 c 0
 314 973 306 985 267 985 c 0
 244 985 225 980 222 975 c 0
EndSplineSet
EndChar
StartChar: nacute
Encoding: 324 324 206
Width: 358
VWidth: 0
Flags: HW
PickledData: "(dp1
."
LayerCount: 2
Fore
SplineSet
92 0 m 1
 176 47 l 1
 176 66 l 1
 155 70 142 86 142 123 c 2
 142 389 l 1
 142 389 162 394 169 394 c 0
 206 394 217 355 217 298 c 2
 217 57 l 2
 217 24 267 0 267 0 c 1
 357 51 l 1
 357 69 l 1
 336 73 317 86 317 123 c 2
 317 376 l 2
 317 412 281 475 243 475 c 0
 226 475 159 431 142 424 c 1
 142 463 92 476 92 476 c 1
 7 426 1 425 1 425 c 1
 1 407 l 1
 25 407 42 374 42 339 c 2
 42 57 l 2
 42 24 92 0 92 0 c 1
161 663 m 0
 145 637 120 584 120 561 c 0
 120 542 130 526 133 526 c 0
 143 526 159 532 162 536 c 0
 174 551 237 636 237 656 c 0
 237 662 230 671 198 671 c 0
 179 671 163 667 161 663 c 0
EndSplineSet
EndChar
StartChar: Ncommaaccent
Encoding: 325 325 326
Width: 430
VWidth: 0
Flags: HW
PickledData: "(dp1
."
LayerCount: 2
Fore
SplineSet
159 -85 m 2
 159 -130 181 -138 181 -153 c 0
 181 -177 174 -206 147 -217 c 1
 192 -259 l 1
 254 -223 280 -138 280 -115 c 2
 280 -62 l 2
 280 -35 256 -10 248 -10 c 0
 241 -10 159 -40 159 -44 c 2
 159 -85 l 2
6 -32 m 1
 211 54 l 1
 211 85 l 1
 186 85 170 97 170 154 c 2
 170 667 l 1
 242 667 260 641 260 558 c 2
 260 68 l 2
 260 28 320 0 320 0 c 1
 429 61 l 1
 429 83 l 1
 404 88 380 103 380 148 c 2
 380 651 l 2
 380 694 338 770 292 770 c 0
 271 770 190 718 170 709 c 1
 170 756 110 771 110 771 c 1
 8 711 1 710 1 710 c 1
 1 688 l 1
 30 688 50 649 50 607 c 2
 50 114 l 2
 50 0 -10 0 -10 0 c 1
 6 -32 l 1
EndSplineSet
EndChar
StartChar: ncommaaccent
Encoding: 326 326 210
Width: 430
VWidth: 0
Flags: HW
PickledData: "(dp1
."
LayerCount: 2
Fore
SplineSet
161 -85 m 2
 161 -130 183 -138 183 -153 c 0
 183 -177 176 -206 149 -217 c 1
 194 -259 l 1
 256 -223 282 -138 282 -115 c 2
 282 -62 l 2
 282 -35 258 -10 250 -10 c 0
 243 -10 161 -40 161 -44 c 2
 161 -85 l 2
110 0 m 1
 211 57 l 1
 211 79 l 1
 186 84 170 103 170 148 c 2
 170 467 l 1
 170 467 194 473 203 473 c 0
 248 473 260 427 260 358 c 2
 260 68 l 2
 260 28 320 0 320 0 c 1
 429 61 l 1
 429 83 l 1
 404 88 380 103 380 148 c 2
 380 451 l 2
 380 494 338 570 292 570 c 0
 271 570 190 518 170 509 c 1
 170 556 110 571 110 571 c 1
 8 511 1 510 1 510 c 1
 1 488 l 1
 30 488 50 449 50 407 c 2
 50 68 l 2
 50 28 110 0 110 0 c 1
EndSplineSet
EndChar
StartChar: Ncaron
Encoding: 327 327 327
Width: 358
VWidth: 0
Flags: HW
PickledData: "(dp1
."
LayerCount: 2
Fore
SplineSet
5 -27 m 1
 176 45 l 1
 176 71 l 1
 155 71 142 81 142 128 c 2
 142 556 l 1
 202 556 217 534 217 465 c 2
 217 57 l 2
 217 24 267 0 267 0 c 1
 357 51 l 1
 357 69 l 1
 336 73 317 86 317 123 c 2
 317 542 l 2
 317 578 281 641 243 641 c 0
 226 641 159 598 142 591 c 1
 142 630 92 642 92 642 c 1
 7 592 1 591 1 591 c 1
 1 573 l 1
 25 573 42 541 42 506 c 2
 42 95 l 2
 42 0 -8 0 -8 0 c 1
 5 -27 l 1
224 686 m 0
 221 684 205 674 178 674 c 0
 151 674 134 684 132 686 c 0
 105 712 38 772 38 784 c 0
 38 803 49 820 52 820 c 0
 66 820 129 776 178 737 c 1
 227 776 291 820 305 820 c 0
 308 820 318 803 318 784 c 0
 318 772 252 709 224 686 c 0
EndSplineSet
EndChar
StartChar: ncaron
Encoding: 328 328 207
Width: 430
VWidth: 0
Flags: HW
PickledData: "(dp1
."
LayerCount: 2
Fore
SplineSet
110 0 m 1
 211 57 l 1
 211 79 l 1
 186 84 170 103 170 148 c 2
 170 467 l 1
 170 467 194 473 203 473 c 0
 248 473 260 427 260 358 c 2
 260 68 l 2
 260 28 320 0 320 0 c 1
 429 61 l 1
 429 83 l 1
 404 88 380 103 380 148 c 2
 380 451 l 2
 380 494 338 570 292 570 c 0
 271 570 190 518 170 509 c 1
 170 556 110 571 110 571 c 1
 8 511 1 510 1 510 c 1
 1 488 l 1
 30 488 50 449 50 407 c 2
 50 68 l 2
 50 28 110 0 110 0 c 1
269 645 m 0
 265 642 246 630 214 630 c 0
 182 630 162 642 159 645 c 0
 127 676 46 748 46 762 c 0
 46 785 58 805 62 805 c 0
 79 805 155 753 214 706 c 1
 273 753 349 805 366 805 c 0
 370 805 382 785 382 762 c 0
 382 748 303 673 269 645 c 0
EndSplineSet
EndChar
StartChar: napostrophe
Encoding: 329 329 209
Width: 561
VWidth: 0
Flags: HW
PickledData: "(dp1
."
LayerCount: 2
Fore
SplineSet
241 0 m 1
 342 57 l 1
 342 79 l 1
 317 84 301 103 301 148 c 2
 301 467 l 1
 301 467 325 473 334 473 c 0
 379 473 391 427 391 358 c 2
 391 68 l 2
 391 28 451 0 451 0 c 1
 560 61 l 1
 560 83 l 1
 535 88 511 103 511 148 c 2
 511 451 l 2
 511 494 469 570 423 570 c 0
 402 570 321 518 301 509 c 1
 301 556 241 571 241 571 c 1
 139 511 132 510 132 510 c 1
 132 488 l 1
 161 488 181 449 181 407 c 2
 181 68 l 2
 181 28 241 0 241 0 c 1
11 634 m 2
 15 591 33 570 44 570 c 0
 55 570 92 600 92 604 c 2
 102 718 l 1
 102 745 78 770 70 770 c 0
 63 770 1 740 1 736 c 2
 11 634 l 2
EndSplineSet
EndChar
StartChar: Eng
Encoding: 330 330 138
Width: 430
VWidth: 0
Flags: HW
PickledData: "(dp1
."
LayerCount: 2
Fore
SplineSet
380 651 m 2
 380 694 338 770 292 770 c 0
 271 770 190 718 170 709 c 1
 170 756 110 771 110 771 c 1
 8 711 1 710 1 710 c 1
 1 688 l 1
 30 688 50 649 50 607 c 2
 50 114 l 2
 50 0 -10 0 -10 0 c 1
 6 -32 l 1
 211 54 l 1
 211 85 l 1
 186 85 170 97 170 154 c 2
 170 667 l 1
 238 667 260 642 260 570 c 2
 260 113 l 2
 260 -31 246 -90 198 -90 c 2
 164 -90 l 1
 164 -120 l 1
 164 -120 266 -180 322 -180 c 0
 349 -180 380 -57 380 106 c 2
 380 651 l 2
EndSplineSet
EndChar
StartChar: eng
Encoding: 331 331 139
Width: 358
VWidth: 0
Flags: HW
PickledData: "(dp1
."
LayerCount: 2
Fore
SplineSet
317 376 m 2
 317 412 281 475 243 475 c 0
 226 475 159 431 142 424 c 1
 142 463 92 476 92 476 c 1
 7 426 1 425 1 425 c 1
 1 407 l 1
 25 407 42 374 42 339 c 2
 42 57 l 2
 42 24 92 0 92 0 c 1
 176 47 l 1
 176 66 l 1
 155 70 142 86 142 123 c 2
 142 389 l 1
 142 389 162 394 169 394 c 0
 206 394 217 355 217 298 c 2
 217 94 l 2
 217 -26 205 -75 165 -75 c 2
 137 -75 l 1
 137 -100 l 1
 137 -100 221 -150 268 -150 c 0
 290 -150 317 -48 317 88 c 2
 317 376 l 2
EndSplineSet
EndChar
StartChar: Omacron
Encoding: 332 332 336
Width: 431
VWidth: 0
Flags: HW
PickledData: "(dp1
."
LayerCount: 2
Fore
SplineSet
50 146 m 2
 50 58 109 0 140 0 c 0
 170 0 381 82 381 93 c 2
 381 655 l 2
 381 702 315 770 294 770 c 0
 273 770 50 687 50 678 c 2
 50 146 l 2
260 108 m 1
 260 108 243 92 221 92 c 0
 199 92 170 103 170 166 c 2
 170 662 l 1
 170 662 187 677 209 677 c 0
 231 677 260 666 260 603 c 2
 260 108 l 1
61 831 m 1
 61 809 l 1
 332 809 l 1
 382 854 l 1
 382 878 l 1
 111 878 l 1
 61 831 l 1
EndSplineSet
EndChar
StartChar: omacron
Encoding: 333 333 244
Width: 431
VWidth: 0
Flags: HW
PickledData: "(dp1
."
LayerCount: 2
Fore
SplineSet
50 146 m 2
 50 58 109 0 140 0 c 0
 170 0 381 82 381 93 c 2
 381 455 l 2
 381 502 315 570 294 570 c 0
 273 570 50 487 50 478 c 2
 50 146 l 2
260 108 m 1
 260 108 243 92 221 92 c 0
 199 92 170 103 170 166 c 2
 170 462 l 1
 170 462 187 477 209 477 c 0
 231 477 260 466 260 403 c 2
 260 108 l 1
59 652 m 1
 59 630 l 1
 330 630 l 1
 380 675 l 1
 380 699 l 1
 109 699 l 1
 59 652 l 1
EndSplineSet
EndChar
StartChar: Obreve
Encoding: 334 334 335
Width: 359
VWidth: 0
Flags: HW
PickledData: "(dp1
."
LayerCount: 2
Fore
SplineSet
42 122 m 2
 42 49 91 0 117 0 c 0
 142 0 317 68 317 77 c 2
 317 546 l 2
 317 585 262 641 245 641 c 0
 228 641 42 572 42 565 c 2
 42 122 l 2
217 90 m 1
 217 90 202 77 184 77 c 0
 166 77 142 86 142 138 c 2
 142 551 l 1
 142 551 156 564 174 564 c 0
 192 564 217 554 217 502 c 2
 217 90 l 1
297 771 m 2
 297 790 280 807 274 807 c 0
 269 807 219 786 219 783 c 2
 219 743 l 1
 219 743 195 712 153 712 c 1
 138 771 l 2
 133 789 122 807 116 807 c 0
 111 807 61 786 61 783 c 0
 61 716 130 674 152 674 c 0
 174 674 297 733 297 741 c 2
 297 771 l 2
EndSplineSet
EndChar
StartChar: obreve
Encoding: 335 335 245
Width: 359
VWidth: 0
Flags: HW
PickledData: "(dp1
."
LayerCount: 2
Fore
SplineSet
42 122 m 2
 42 49 91 0 117 0 c 0
 142 0 317 68 317 77 c 2
 317 379 l 2
 317 418 262 475 245 475 c 0
 228 475 42 405 42 398 c 2
 42 122 l 2
217 90 m 1
 217 90 202 77 184 77 c 0
 166 77 142 86 142 138 c 2
 142 385 l 1
 142 385 156 397 174 397 c 0
 192 397 217 388 217 336 c 2
 217 90 l 1
295 621 m 2
 295 640 278 658 272 658 c 0
 267 658 217 637 217 634 c 2
 217 594 l 1
 217 594 194 563 152 563 c 1
 137 621 l 2
 132 639 120 658 114 658 c 0
 109 658 59 637 59 634 c 0
 59 567 128 525 150 525 c 0
 172 525 295 583 295 591 c 2
 295 621 l 2
EndSplineSet
EndChar
StartChar: Ohungarumlaut
Encoding: 336 336 332
Width: 431
VWidth: 0
Flags: HW
PickledData: "(dp1
."
LayerCount: 2
Fore
SplineSet
50 146 m 2
 50 58 109 0 140 0 c 0
 170 0 381 82 381 93 c 2
 381 655 l 2
 381 702 315 770 294 770 c 0
 273 770 50 687 50 678 c 2
 50 146 l 2
260 108 m 1
 260 108 243 92 221 92 c 0
 199 92 170 103 170 166 c 2
 170 662 l 1
 170 662 187 677 209 677 c 0
 231 677 260 666 260 603 c 2
 260 108 l 1
154 975 m 0
 135 944 105 881 105 853 c 0
 105 830 117 810 121 810 c 0
 133 810 152 817 156 822 c 0
 170 840 246 942 246 966 c 0
 246 973 238 985 199 985 c 0
 176 985 157 980 154 975 c 0
335 975 m 0
 316 944 286 881 286 853 c 0
 286 830 298 810 302 810 c 0
 314 810 333 817 337 822 c 0
 351 840 427 942 427 966 c 0
 427 973 419 985 380 985 c 0
 357 985 338 980 335 975 c 0
EndSplineSet
EndChar
StartChar: ohungarumlaut
Encoding: 337 337 246
Width: 359
VWidth: 0
Flags: HW
PickledData: "(dp1
."
LayerCount: 2
Fore
SplineSet
42 122 m 2
 42 49 91 0 117 0 c 0
 142 0 317 68 317 77 c 2
 317 379 l 2
 317 418 262 475 245 475 c 0
 228 475 42 405 42 398 c 2
 42 122 l 2
217 90 m 1
 217 90 202 77 184 77 c 0
 166 77 142 86 142 138 c 2
 142 385 l 1
 142 385 156 397 174 397 c 0
 192 397 217 388 217 336 c 2
 217 90 l 1
121 663 m 0
 105 637 80 584 80 561 c 0
 80 542 90 526 93 526 c 0
 103 526 119 532 122 536 c 0
 134 551 197 636 197 656 c 0
 197 662 190 671 158 671 c 0
 139 671 123 667 121 663 c 0
272 663 m 0
 256 637 231 584 231 561 c 0
 231 542 241 526 244 526 c 0
 254 526 270 532 273 536 c 0
 285 551 348 636 348 656 c 0
 348 662 341 671 309 671 c 0
 290 671 274 667 272 663 c 0
EndSplineSet
EndChar
StartChar: OE
Encoding: 338 338 92
Width: 605
VWidth: 0
Flags: HW
PickledData: "(dp1
."
LayerCount: 2
Fore
SplineSet
50 146 m 2
 50 58 109 0 140 0 c 0
 158 0 243 30 307 56 c 1
 341 21 384 0 401 0 c 0
 428 0 546 55 559 55 c 1
 559 84 l 1
 381 84 381 128 381 250 c 2
 381 350 l 1
 472 350 l 1
 522 375 l 1
 522 399 l 1
 381 399 l 1
 381 663 l 1
 381 663 387 673 399 673 c 0
 428 673 444 510 474 510 c 0
 484 510 565 554 605 571 c 1
 605 591 l 1
 599 591 572 592 562 610 c 0
 534 658 522 770 507 770 c 0
 494 770 418 744 354 719 c 1
 333 747 306 770 294 770 c 0
 273 770 50 687 50 678 c 2
 50 146 l 2
260 108 m 1
 260 108 243 92 221 92 c 0
 199 92 170 103 170 166 c 2
 170 662 l 1
 170 662 187 677 209 677 c 0
 231 677 260 666 260 603 c 2
 260 108 l 1
EndSplineSet
EndChar
StartChar: oe
Encoding: 339 339 53
Width: 533
VWidth: 0
Flags: HW
PickledData: "(dp1
."
LayerCount: 2
Fore
SplineSet
421 475 m 0
 410 475 348 453 295 432 c 1
 278 455 255 475 245 475 c 0
 228 475 42 405 42 398 c 2
 42 122 l 2
 42 49 91 0 117 0 c 0
 130 0 189 20 240 40 c 1
 256 15 277 0 294 0 c 0
 303 0 440 46 440 46 c 1
 440 70 l 1
 384 70 318 75 318 156 c 1
 319 156 492 208 492 242 c 2
 492 382 l 2
 492 429 428 475 421 475 c 0
217 90 m 1
 217 90 202 77 184 77 c 0
 166 77 142 86 142 138 c 2
 142 385 l 1
 142 385 156 397 174 397 c 0
 192 397 217 388 217 336 c 2
 217 90 l 1
392 283 m 2
 392 228 359 205 317 193 c 1
 317 386 l 1
 317 386 335 398 349 398 c 0
 381 398 392 369 392 342 c 2
 392 283 l 2
EndSplineSet
EndChar
StartChar: Racute
Encoding: 340 340 340
Width: 359
VWidth: 0
Flags: HW
PickledData: "(dp1
."
LayerCount: 2
Fore
SplineSet
217 319 m 2
 217 297 168 277 142 277 c 1
 142 547 l 1
 142 547 156 560 174 560 c 0
 192 560 217 550 217 498 c 2
 217 319 l 2
42 85 m 2
 42 8 -1 0 -8 0 c 1
 5 -27 l 1
 176 45 l 1
 176 71 l 1
 147 71 142 91 142 128 c 2
 142 237 l 1
 151 240 l 1
 153 213 224 0 266 0 c 0
 287 0 364 49 364 49 c 1
 364 74 l 1
 295 74 247 197 227 267 c 1
 274 285 317 305 317 310 c 2
 317 544 l 2
 317 583 262 640 245 640 c 0
 237 640 189 612 142 584 c 1
 141 616 92 640 92 640 c 1
 7 592 l 1
 7 574 l 1
 28 570 42 553 42 516 c 2
 42 85 l 2
157 812 m 0
 141 786 116 734 116 711 c 0
 116 692 126 675 129 675 c 0
 139 675 155 681 158 685 c 0
 170 700 233 785 233 805 c 0
 233 811 226 821 194 821 c 0
 175 821 159 816 157 812 c 0
EndSplineSet
EndChar
StartChar: racute
Encoding: 341 341 249
Width: 316
VWidth: 0
Flags: HW
PickledData: "(dp1
."
LayerCount: 2
Fore
SplineSet
300 376 m 2
 300 412 265 475 227 475 c 0
 210 475 159 431 142 424 c 1
 142 462 92 475 92 475 c 1
 89 475 32 440 1 425 c 1
 1 407 l 1
 18 407 42 387 42 333 c 2
 42 57 l 2
 42 24 92 0 92 0 c 1
 176 47 l 1
 176 66 l 1
 155 70 142 86 142 123 c 2
 142 389 l 1
 200 389 200 367 200 298 c 1
 200 298 216 286 214 287 c 1
 300 335 l 1
 300 376 l 2
139 663 m 0
 123 637 98 584 98 561 c 0
 98 542 109 526 112 526 c 0
 122 526 138 532 141 536 c 0
 153 551 216 636 216 656 c 0
 216 662 209 671 177 671 c 0
 158 671 141 667 139 663 c 0
EndSplineSet
EndChar
StartChar: Rcommaaccent
Encoding: 342 342 342
Width: 359
VWidth: 0
Flags: HW
PickledData: "(dp1
."
LayerCount: 2
Fore
SplineSet
134 -71 m 2
 134 -108 152 -115 152 -127 c 0
 152 -147 146 -172 124 -181 c 1
 162 -216 l 1
 214 -186 235 -115 235 -96 c 2
 235 -52 l 2
 235 -30 215 -8 208 -8 c 0
 202 -8 134 -34 134 -37 c 2
 134 -71 l 2
217 319 m 2
 217 297 168 277 142 277 c 1
 142 547 l 1
 142 547 156 560 174 560 c 0
 192 560 217 550 217 498 c 2
 217 319 l 2
42 85 m 2
 42 8 -1 0 -8 0 c 1
 5 -27 l 1
 176 45 l 1
 176 71 l 1
 147 71 142 91 142 128 c 2
 142 237 l 1
 151 240 l 1
 153 213 224 0 266 0 c 0
 287 0 364 49 364 49 c 1
 364 74 l 1
 295 74 247 197 227 267 c 1
 274 285 317 305 317 310 c 2
 317 544 l 2
 317 583 262 640 245 640 c 0
 237 640 189 612 142 584 c 1
 141 616 92 640 92 640 c 1
 7 592 l 1
 7 574 l 1
 28 570 42 553 42 516 c 2
 42 85 l 2
EndSplineSet
EndChar
StartChar: rcommaaccent
Encoding: 343 343 224
Width: 316
VWidth: 0
Flags: HW
PickledData: "(dp1
."
LayerCount: 2
Fore
SplineSet
48 -71 m 2
 48 -108 67 -115 67 -127 c 0
 67 -147 60 -172 38 -181 c 1
 76 -216 l 1
 128 -186 149 -115 149 -96 c 2
 149 -52 l 2
 149 -30 129 -8 122 -8 c 0
 116 -8 48 -34 48 -37 c 2
 48 -71 l 2
300 376 m 2
 300 412 265 475 227 475 c 0
 210 475 159 431 142 424 c 1
 142 462 92 475 92 475 c 1
 89 475 32 440 1 425 c 1
 1 407 l 1
 18 407 42 387 42 333 c 2
 42 57 l 2
 42 24 92 0 92 0 c 1
 176 47 l 1
 176 66 l 1
 155 70 142 86 142 123 c 2
 142 389 l 1
 200 389 200 367 200 298 c 1
 200 298 216 286 214 287 c 1
 300 335 l 1
 300 376 l 2
EndSplineSet
EndChar
StartChar: Rcaron
Encoding: 344 344 341
Width: 359
VWidth: 0
Flags: HW
PickledData: "(dp1
."
LayerCount: 2
Fore
SplineSet
220 686 m 0
 217 684 201 674 174 674 c 0
 147 674 130 684 128 686 c 0
 101 712 34 772 34 784 c 0
 34 803 44 820 47 820 c 0
 61 820 125 776 174 737 c 1
 223 776 287 820 301 820 c 0
 304 820 314 803 314 784 c 0
 314 772 248 709 220 686 c 0
EndSplineSet
Refer: 59 82 S 1 0 0 1 0 0 2
EndChar
StartChar: rcaron
Encoding: 345 345 223
Width: 380
VWidth: 0
Flags: HW
PickledData: "(dp1
."
LayerCount: 2
Fore
SplineSet
360 451 m 2
 360 494 318 570 272 570 c 0
 251 570 190 518 170 509 c 1
 170 555 111 570 111 570 c 1
 107 570 38 528 1 510 c 1
 1 488 l 1
 21 488 50 465 50 400 c 2
 50 68 l 2
 50 28 110 0 110 0 c 1
 211 57 l 1
 211 79 l 1
 186 84 170 103 170 148 c 2
 170 467 l 1
 240 467 240 441 240 358 c 1
 240 358 259 343 257 344 c 1
 360 402 l 1
 360 451 l 2
243 645 m 0
 239 642 220 630 188 630 c 0
 156 630 136 642 133 645 c 0
 101 676 20 748 20 762 c 0
 20 785 32 805 36 805 c 0
 53 805 129 753 188 706 c 1
 247 753 323 805 340 805 c 0
 344 805 356 785 356 762 c 0
 356 748 277 673 243 645 c 0
EndSplineSet
EndChar
StartChar: Sacute
Encoding: 346 346 343
Width: 354
VWidth: 0
Flags: HW
PickledData: "(dp1
."
LayerCount: 2
Fore
SplineSet
92 266 m 0
 64 266 42 314 42 375 c 2
 42 548 l 2
 42 572 219 641 230 641 c 0
 242 641 260 602 283 562 c 0
 291 547 306 542 311 542 c 1
 311 526 l 1
 278 512 226 479 218 479 c 0
 193 479 181 577 157 577 c 0
 148 577 142 569 142 552 c 2
 142 367 l 1
 142 367 142 333 157 333 c 0
 165 333 250 377 267 377 c 0
 293 377 317 331 317 262 c 2
 317 85 l 2
 317 61 123 -8 112 -8 c 0
 100 -8 82 47 59 87 c 0
 51 102 37 107 32 107 c 1
 32 124 l 1
 65 138 116 171 124 171 c 0
 149 171 170 56 194 56 c 0
 203 56 217 64 217 81 c 2
 217 268 l 1
 217 268 218 306 197 306 c 0
 184 306 104 266 92 266 c 0
147 812 m 0
 131 786 106 734 106 711 c 0
 106 692 116 675 119 675 c 0
 129 675 145 681 148 685 c 0
 160 700 223 785 223 805 c 0
 223 811 216 821 184 821 c 0
 165 821 149 816 147 812 c 0
EndSplineSet
EndChar
StartChar: sacute
Encoding: 347 347 250
Width: 354
VWidth: 0
Flags: HW
PickledData: "(dp1
."
LayerCount: 2
Fore
SplineSet
80 182 m 0
 52 182 29 231 29 292 c 2
 29 382 l 2
 29 406 206 475 217 475 c 0
 229 475 239 452 262 412 c 0
 270 397 285 392 290 392 c 1
 290 376 l 1
 257 362 205 329 197 329 c 0
 172 329 168 411 144 411 c 0
 135 411 129 403 129 386 c 2
 129 283 l 1
 129 283 129 250 144 250 c 0
 152 250 237 293 254 293 c 0
 280 293 305 248 305 179 c 2
 305 85 l 2
 305 61 111 -8 100 -8 c 0
 88 -8 78 31 55 71 c 0
 47 86 32 91 27 91 c 1
 27 107 l 1
 60 121 112 154 120 154 c 0
 145 154 158 56 182 56 c 0
 191 56 205 64 205 81 c 2
 205 185 l 1
 205 185 205 222 184 222 c 0
 171 222 92 182 80 182 c 0
139 663 m 0
 123 637 98 584 98 561 c 0
 98 542 109 526 112 526 c 0
 122 526 138 532 141 536 c 0
 153 551 216 636 216 656 c 0
 216 662 209 671 177 671 c 0
 158 671 141 667 139 663 c 0
EndSplineSet
EndChar
StartChar: Scircumflex
Encoding: 348 348 344
Width: 354
VWidth: 0
Flags: HW
PickledData: "(dp1
."
LayerCount: 2
Fore
SplineSet
92 266 m 0
 64 266 42 314 42 375 c 2
 42 548 l 2
 42 572 219 641 230 641 c 0
 242 641 260 602 283 562 c 0
 291 547 306 542 311 542 c 1
 311 526 l 1
 278 512 226 479 218 479 c 0
 193 479 181 577 157 577 c 0
 148 577 142 569 142 552 c 2
 142 367 l 1
 142 367 142 333 157 333 c 0
 165 333 250 377 267 377 c 0
 293 377 317 331 317 262 c 2
 317 85 l 2
 317 61 123 -8 112 -8 c 0
 100 -8 82 47 59 87 c 0
 51 102 37 107 32 107 c 1
 32 124 l 1
 65 138 116 171 124 171 c 0
 149 171 170 56 194 56 c 0
 203 56 217 64 217 81 c 2
 217 268 l 1
 217 268 218 306 197 306 c 0
 184 306 104 266 92 266 c 0
212 808 m 0
 209 810 193 821 166 821 c 0
 139 821 122 810 120 808 c 0
 93 782 26 723 26 711 c 0
 26 692 36 675 39 675 c 0
 53 675 117 718 166 757 c 1
 215 718 278 675 292 675 c 0
 295 675 306 692 306 711 c 0
 306 723 240 785 212 808 c 0
EndSplineSet
EndChar
StartChar: uni015F
Encoding: 351 351 273
Width: 425
VWidth: 0
Flags: HW
PickledData: "(dp1
."
LayerCount: 2
Fore
SplineSet
173 -85 m 2
 173 -130 195 -138 195 -153 c 0
 195 -177 188 -206 161 -217 c 1
 206 -259 l 1
 268 -223 294 -138 294 -115 c 2
 294 -62 l 2
 294 -35 270 -10 262 -10 c 0
 255 -10 173 -40 173 -44 c 2
 173 -85 l 2
96 219 m 0
 62 219 35 277 35 350 c 2
 35 458 l 2
 35 487 248 570 261 570 c 0
 276 570 287 543 315 495 c 0
 325 477 342 471 348 471 c 1
 348 451 l 1
 308 434 247 395 237 395 c 0
 207 395 202 493 173 493 c 0
 162 493 155 484 155 463 c 2
 155 340 l 1
 155 340 155 300 173 300 c 0
 183 300 284 352 305 352 c 0
 336 352 366 298 366 215 c 2
 366 102 l 2
 366 73 133 -10 120 -10 c 0
 105 -10 94 37 66 85 c 0
 56 103 39 109 33 109 c 1
 33 129 l 1
 73 146 134 185 144 185 c 0
 174 185 189 67 218 67 c 0
 229 67 246 76 246 97 c 2
 246 222 l 1
 246 222 246 267 221 267 c 0
 205 267 110 219 96 219 c 0
EndSplineSet
EndChar
StartChar: Scaron
Encoding: 352 352 345
Width: 354
VWidth: 0
Flags: HW
PickledData: "(dp1
."
LayerCount: 2
Fore
SplineSet
92 266 m 0
 64 266 42 314 42 375 c 2
 42 548 l 2
 42 572 219 641 230 641 c 0
 242 641 260 602 283 562 c 0
 291 547 306 542 311 542 c 1
 311 526 l 1
 278 512 226 479 218 479 c 0
 193 479 181 577 157 577 c 0
 148 577 142 569 142 552 c 2
 142 367 l 1
 142 367 142 333 157 333 c 0
 165 333 250 377 267 377 c 0
 293 377 317 331 317 262 c 2
 317 85 l 2
 317 61 123 -8 112 -8 c 0
 100 -8 82 47 59 87 c 0
 51 102 37 107 32 107 c 1
 32 124 l 1
 65 138 116 171 124 171 c 0
 149 171 170 56 194 56 c 0
 203 56 217 64 217 81 c 2
 217 268 l 1
 217 268 218 306 197 306 c 0
 184 306 104 266 92 266 c 0
210 686 m 0
 207 684 191 674 164 674 c 0
 137 674 120 684 118 686 c 0
 91 712 24 772 24 784 c 0
 24 803 34 820 37 820 c 0
 51 820 115 776 164 737 c 1
 213 776 277 820 291 820 c 0
 294 820 304 803 304 784 c 0
 304 772 238 709 210 686 c 0
EndSplineSet
EndChar
StartChar: scaron
Encoding: 353 353 252
Width: 354
VWidth: 0
Flags: HW
PickledData: "(dp1
."
LayerCount: 2
Fore
SplineSet
80 182 m 0
 52 182 29 231 29 292 c 2
 29 382 l 2
 29 406 206 475 217 475 c 0
 229 475 239 452 262 412 c 0
 270 397 285 392 290 392 c 1
 290 376 l 1
 257 362 205 329 197 329 c 0
 172 329 168 411 144 411 c 0
 135 411 129 403 129 386 c 2
 129 283 l 1
 129 283 129 250 144 250 c 0
 152 250 237 293 254 293 c 0
 280 293 305 248 305 179 c 2
 305 85 l 2
 305 61 111 -8 100 -8 c 0
 88 -8 78 31 55 71 c 0
 47 86 32 91 27 91 c 1
 27 107 l 1
 60 121 112 154 120 154 c 0
 145 154 158 56 182 56 c 0
 191 56 205 64 205 81 c 2
 205 185 l 1
 205 185 205 222 184 222 c 0
 171 222 92 182 80 182 c 0
202 537 m 0
 199 535 184 525 157 525 c 0
 130 525 113 535 111 537 c 0
 84 563 17 623 17 635 c 0
 17 654 27 671 30 671 c 0
 44 671 108 627 157 588 c 1
 206 627 269 671 283 671 c 0
 286 671 297 654 297 635 c 0
 297 623 230 560 202 537 c 0
EndSplineSet
EndChar
StartChar: uni0162
Encoding: 354 354 351
Width: 365
VWidth: 0
Flags: HW
PickledData: "(dp1
."
LayerCount: 2
Fore
SplineSet
135 -105 m 2
 135 -150 157 -158 157 -173 c 0
 157 -197 150 -226 123 -237 c 1
 168 -279 l 1
 230 -243 256 -158 256 -135 c 2
 256 -82 l 2
 256 -55 232 -30 224 -30 c 0
 217 -30 135 -60 135 -64 c 2
 135 -105 l 2
122 102 m 2
 122 10 71 0 62 0 c 1
 78 -32 l 1
 283 54 l 1
 283 85 l 1
 248 85 242 109 242 154 c 2
 242 662 l 1
 354 662 l 2
 394 662 422 711 422 711 c 1
 365 793 l 1
 343 793 l 1
 338 773 319 760 274 760 c 2
 10 760 l 2
 -30 760 -58 711 -58 711 c 1
 -1 629 l 1
 21 629 l 1
 26 649 45 662 90 662 c 2
 153 662 l 1
 122 632 l 1
 122 102 l 2
EndSplineSet
EndChar
StartChar: uni0163
Encoding: 355 355 274
Width: 220
VWidth: 0
Flags: HW
PickledData: "(dp1
."
LayerCount: 2
Fore
SplineSet
60 -85 m 2
 60 -130 82 -138 82 -153 c 0
 82 -177 75 -206 48 -217 c 1
 93 -259 l 1
 155 -223 181 -138 181 -115 c 2
 181 -62 l 2
 181 -35 157 -10 149 -10 c 0
 142 -10 60 -40 60 -44 c 2
 60 -85 l 2
9 505 m 1
 50 505 l 1
 50 68 l 2
 50 28 110 0 110 0 c 1
 211 57 l 1
 211 79 l 1
 186 84 170 103 170 148 c 2
 170 506 l 1
 211 506 l 1
 221 555 l 1
 170 555 l 1
 170 674 l 1
 142 674 l 1
 131 608 55 547 19 547 c 1
 9 505 l 1
EndSplineSet
EndChar
StartChar: Tcaron
Encoding: 356 356 349
Width: 304
VWidth: 0
Flags: HW
PickledData: "(dp1
."
LayerCount: 2
Fore
SplineSet
198 687 m 0
 195 685 179 675 152 675 c 0
 125 675 109 685 107 687 c 0
 80 713 12 773 12 785 c 0
 12 804 23 821 26 821 c 0
 40 821 103 777 152 738 c 1
 201 777 265 821 279 821 c 0
 282 821 292 804 292 785 c 0
 292 773 226 710 198 687 c 0
EndSplineSet
Refer: 61 84 N 1 0 0 1 0 0 2
EndChar
StartChar: tcaron
Encoding: 357 357 255
Width: 329
VWidth: 0
Flags: HW
PickledData: "(dp1
."
LayerCount: 2
Fore
SplineSet
7 421 m 1
 42 421 l 1
 42 57 l 2
 42 24 92 0 92 0 c 1
 176 47 l 1
 176 66 l 1
 155 70 142 86 142 123 c 2
 142 421 l 1
 176 421 l 1
 184 462 l 1
 142 462 l 1
 142 561 l 1
 118 561 l 1
 109 506 46 456 16 456 c 1
 7 421 l 1
228 594 m 2
 228 566 242 561 242 551 c 0
 242 536 238 498 221 491 c 1
 249 465 l 1
 288 487 305 561 305 575 c 2
 305 608 l 2
 305 625 290 641 285 641 c 0
 280 641 228 622 228 620 c 2
 228 594 l 2
EndSplineSet
EndChar
StartChar: Tbar
Encoding: 358 358 348
Width: 365
VWidth: 0
Flags: HW
PickledData: "(dp1
."
LayerCount: 2
Fore
SplineSet
122 102 m 2
 122 10 71 0 62 0 c 1
 78 -32 l 1
 283 54 l 1
 283 85 l 1
 248 85 242 109 242 154 c 2
 242 405 l 1
 344 405 l 1
 394 450 l 1
 394 474 l 1
 242 474 l 1
 242 662 l 1
 354 662 l 2
 394 662 422 711 422 711 c 1
 365 793 l 1
 343 793 l 1
 338 773 319 760 274 760 c 2
 10 760 l 2
 -30 760 -58 711 -58 711 c 1
 -1 629 l 1
 21 629 l 1
 26 649 45 662 90 662 c 2
 153 662 l 1
 122 632 l 1
 122 474 l 1
 6 474 l 1
 -44 427 l 1
 -44 405 l 1
 122 405 l 1
 122 102 l 2
EndSplineSet
EndChar
StartChar: tbar
Encoding: 359 359 254
Width: 220
VWidth: 0
Flags: HW
PickledData: "(dp1
."
LayerCount: 2
Fore
SplineSet
9 505 m 1
 50 505 l 1
 50 68 l 2
 50 28 110 0 110 0 c 1
 211 57 l 1
 211 79 l 1
 186 84 170 103 170 148 c 2
 170 506 l 1
 211 506 l 1
 221 555 l 1
 170 555 l 1
 170 674 l 1
 142 674 l 1
 131 608 55 547 19 547 c 1
 9 505 l 1
-50 316 m 1
 -50 294 l 1
 221 294 l 1
 271 339 l 1
 271 363 l 1
 0 363 l 1
 -50 316 l 1
EndSplineSet
EndChar
StartChar: Utilde
Encoding: 360 360 357
Width: 358
VWidth: 0
Flags: HW
PickledData: "(dp1
."
LayerCount: 2
Fore
SplineSet
217 87 m 1
 157 87 142 108 142 177 c 2
 142 586 l 2
 142 619 92 642 92 642 c 1
 1 591 l 1
 1 573 l 1
 22 569 42 556 42 519 c 2
 42 100 l 2
 42 64 77 1 115 1 c 0
 132 1 200 45 217 52 c 1
 217 13 267 0 267 0 c 1
 352 50 357 51 357 51 c 1
 357 69 l 1
 333 69 317 102 317 137 c 2
 317 531 l 2
 317 608 360 616 367 616 c 1
 353 642 l 1
 182 571 l 1
 182 545 l 1
 211 545 217 524 217 487 c 2
 217 87 l 1
282 768 m 1
 266 768 l 1
 261 756 239 747 216 747 c 0
 186 747 139 770 97 770 c 0
 66 770 40 736 40 736 c 1
 72 676 l 1
 89 676 l 1
 94 688 116 698 139 698 c 0
 183 698 216 674 258 674 c 0
 289 674 315 707 315 707 c 1
 282 768 l 1
EndSplineSet
EndChar
StartChar: utilde
Encoding: 361 361 257
Width: 430
VWidth: 0
Flags: HW
PickledData: "(dp1
."
LayerCount: 2
Fore
SplineSet
320 571 m 1
 219 514 l 1
 219 492 l 1
 244 487 260 468 260 423 c 2
 260 112 l 1
 260 112 241 97 222 97 c 0
 196 97 170 120 170 156 c 2
 170 503 l 2
 170 543 110 571 110 571 c 1
 1 510 l 1
 1 488 l 1
 26 483 50 468 50 423 c 2
 50 120 l 2
 50 44 135 0 135 0 c 1
 260 67 l 1
 260 27 320 0 320 0 c 1
 422 60 429 61 429 61 c 1
 429 83 l 1
 400 83 380 122 380 164 c 2
 380 503 l 2
 380 543 320 571 320 571 c 1
341 743 m 1
 321 743 l 1
 315 728 289 718 261 718 c 0
 225 718 168 745 118 745 c 0
 81 745 50 705 50 705 c 1
 88 632 l 1
 109 632 l 1
 115 647 141 659 169 659 c 0
 222 659 262 630 312 630 c 0
 349 630 380 670 380 670 c 1
 341 743 l 1
EndSplineSet
EndChar
StartChar: Ubreve
Encoding: 364 364 358
Width: 430
VWidth: 0
Flags: HW
PickledData: "(dp1
."
LayerCount: 2
Fore
SplineSet
260 104 m 1
 188 104 170 130 170 213 c 2
 170 703 l 2
 170 743 110 771 110 771 c 1
 1 710 l 1
 1 688 l 1
 26 683 50 668 50 623 c 2
 50 120 l 2
 50 77 92 1 138 1 c 0
 159 1 240 53 260 62 c 1
 260 15 320 0 320 0 c 1
 422 60 429 61 429 61 c 1
 429 83 l 1
 400 83 380 122 380 164 c 2
 380 637 l 2
 380 729 431 739 440 739 c 1
 424 771 l 1
 219 685 l 1
 219 654 l 1
 254 654 260 630 260 585 c 2
 260 104 l 1
354 925 m 2
 354 948 334 969 327 969 c 0
 321 969 261 944 261 940 c 2
 261 892 l 1
 261 892 232 855 182 855 c 1
 164 925 l 2
 158 947 144 969 137 969 c 0
 131 969 71 944 71 940 c 0
 71 859 154 809 180 809 c 0
 206 809 354 879 354 889 c 2
 354 925 l 2
EndSplineSet
EndChar
StartChar: ubreve
Encoding: 365 365 259
Width: 430
VWidth: 0
Flags: HW
PickledData: "(dp1
."
LayerCount: 2
Fore
SplineSet
320 571 m 1
 219 514 l 1
 219 492 l 1
 244 487 260 468 260 423 c 2
 260 112 l 1
 260 112 241 97 222 97 c 0
 196 97 170 120 170 156 c 2
 170 503 l 2
 170 543 110 571 110 571 c 1
 1 510 l 1
 1 488 l 1
 26 483 50 468 50 423 c 2
 50 120 l 2
 50 44 135 0 135 0 c 1
 260 67 l 1
 260 27 320 0 320 0 c 1
 422 60 429 61 429 61 c 1
 429 83 l 1
 400 83 380 122 380 164 c 2
 380 503 l 2
 380 543 320 571 320 571 c 1
356 746 m 2
 356 769 336 790 329 790 c 0
 323 790 263 765 263 761 c 2
 263 713 l 1
 263 713 234 676 184 676 c 1
 166 746 l 2
 160 768 146 790 139 790 c 0
 133 790 73 765 73 761 c 0
 73 680 156 630 182 630 c 0
 208 630 356 700 356 710 c 2
 356 746 l 2
EndSplineSet
EndChar
StartChar: Uring
Encoding: 366 366 359
Width: 358
VWidth: 0
Flags: HW
PickledData: "(dp1
."
LayerCount: 2
Fore
SplineSet
126 725 m 2
 126 694 145 674 157 674 c 0
 167 674 250 703 250 706 c 2
 250 769 l 2
 250 785 226 809 219 809 c 0
 212 809 126 779 126 776 c 2
 126 725 l 2
199 711 m 1
 199 711 197 706 190 706 c 0
 182 706 176 710 176 732 c 2
 176 771 l 1
 176 771 178 776 186 776 c 0
 193 776 199 773 199 751 c 2
 199 711 l 1
EndSplineSet
Refer: 47 85 S 1 0 0 1 0 0 2
EndChar
StartChar: uring
Encoding: 367 367 260
Width: 430
VWidth: 0
Flags: HW
PickledData: "(dp1
."
LayerCount: 2
Fore
SplineSet
320 571 m 1
 219 514 l 1
 219 492 l 1
 244 487 260 468 260 423 c 2
 260 112 l 1
 260 112 241 97 222 97 c 0
 196 97 170 120 170 156 c 2
 170 503 l 2
 170 543 110 571 110 571 c 1
 1 510 l 1
 1 488 l 1
 26 483 50 468 50 423 c 2
 50 120 l 2
 50 44 135 0 135 0 c 1
 260 67 l 1
 260 27 320 0 320 0 c 1
 422 60 429 61 429 61 c 1
 429 83 l 1
 400 83 380 122 380 164 c 2
 380 503 l 2
 380 543 320 571 320 571 c 1
142 691 m 2
 142 654 166 630 180 630 c 0
 192 630 291 665 291 669 c 2
 291 744 l 2
 291 763 263 792 254 792 c 0
 246 792 142 757 142 753 c 2
 142 691 l 2
230 675 m 1
 230 675 228 669 219 669 c 0
 209 669 202 673 202 700 c 2
 202 747 l 1
 202 747 204 753 214 753 c 0
 223 753 230 748 230 722 c 2
 230 675 l 1
EndSplineSet
EndChar
StartChar: Uhungarumlaut
Encoding: 368 368 355
Width: 358
VWidth: 0
Flags: HW
PickledData: "(dp1
."
LayerCount: 2
Fore
SplineSet
217 87 m 1
 157 87 142 108 142 177 c 2
 142 586 l 2
 142 619 92 642 92 642 c 1
 1 591 l 1
 1 573 l 1
 22 569 42 556 42 519 c 2
 42 100 l 2
 42 64 77 1 115 1 c 0
 132 1 200 45 217 52 c 1
 217 13 267 0 267 0 c 1
 352 50 357 51 357 51 c 1
 357 69 l 1
 333 69 317 102 317 137 c 2
 317 531 l 2
 317 608 360 616 367 616 c 1
 353 642 l 1
 182 571 l 1
 182 545 l 1
 211 545 217 524 217 487 c 2
 217 87 l 1
111 812 m 0
 95 786 70 734 70 711 c 0
 70 692 80 675 83 675 c 0
 93 675 109 681 112 685 c 0
 124 700 187 785 187 805 c 0
 187 811 180 821 148 821 c 0
 129 821 113 816 111 812 c 0
262 812 m 0
 246 786 221 734 221 711 c 0
 221 692 231 675 234 675 c 0
 244 675 260 681 263 685 c 0
 275 700 338 785 338 805 c 0
 338 811 331 821 299 821 c 0
 280 821 264 816 262 812 c 0
EndSplineSet
EndChar
StartChar: uhungarumlaut
Encoding: 369 369 261
Width: 430
VWidth: 0
Flags: HW
PickledData: "(dp1
."
LayerCount: 2
Fore
SplineSet
320 571 m 1
 219 514 l 1
 219 492 l 1
 244 487 260 468 260 423 c 2
 260 112 l 1
 260 112 241 97 222 97 c 0
 196 97 170 120 170 156 c 2
 170 503 l 2
 170 543 110 571 110 571 c 1
 1 510 l 1
 1 488 l 1
 26 483 50 468 50 423 c 2
 50 120 l 2
 50 44 135 0 135 0 c 1
 260 67 l 1
 260 27 320 0 320 0 c 1
 422 60 429 61 429 61 c 1
 429 83 l 1
 400 83 380 122 380 164 c 2
 380 503 l 2
 380 543 320 571 320 571 c 1
105 796 m 0
 86 765 56 702 56 674 c 0
 56 651 68 631 72 631 c 0
 84 631 103 638 107 643 c 0
 121 661 197 763 197 787 c 0
 197 794 189 806 150 806 c 0
 127 806 108 801 105 796 c 0
286 796 m 0
 267 765 237 702 237 674 c 0
 237 651 249 631 253 631 c 0
 265 631 284 638 288 643 c 0
 302 661 378 763 378 787 c 0
 378 794 370 806 331 806 c 0
 308 806 289 801 286 796 c 0
EndSplineSet
EndChar
StartChar: Uogonek
Encoding: 370 370 361
Width: 430
VWidth: 0
Flags: HW
PickledData: "(dp1
."
LayerCount: 2
Fore
SplineSet
260 104 m 1
 188 104 170 130 170 213 c 2
 170 703 l 2
 170 743 110 771 110 771 c 1
 1 710 l 1
 1 688 l 1
 26 683 50 668 50 623 c 2
 50 120 l 2
 50 77 92 1 138 1 c 0
 159 1 240 53 260 62 c 1
 260 15 320 0 320 0 c 1
 422 60 429 61 429 61 c 1
 429 83 l 1
 400 83 380 122 380 164 c 2
 380 637 l 2
 380 729 431 739 440 739 c 1
 424 771 l 1
 219 685 l 1
 219 654 l 1
 254 654 260 630 260 585 c 2
 260 104 l 1
334 -7 m 0
 334 30 353 83 353 83 c 1
 269 38 l 1
 269 38 253 -10 253 -59 c 0
 253 -128 334 -150 349 -150 c 0
 364 -150 453 -112 453 -112 c 1
 453 -94 l 1
 334 -94 334 -44 334 -7 c 0
EndSplineSet
EndChar
StartChar: uogonek
Encoding: 371 371 262
Width: 430
VWidth: 0
Flags: HW
PickledData: "(dp1
."
LayerCount: 2
Fore
SplineSet
320 571 m 1
 219 514 l 1
 219 492 l 1
 244 487 260 468 260 423 c 2
 260 112 l 1
 260 112 241 97 222 97 c 0
 196 97 170 120 170 156 c 2
 170 503 l 2
 170 543 110 571 110 571 c 1
 1 510 l 1
 1 488 l 1
 26 483 50 468 50 423 c 2
 50 120 l 2
 50 44 135 0 135 0 c 1
 260 67 l 1
 260 27 320 0 320 0 c 1
 422 60 429 61 429 61 c 1
 429 83 l 1
 400 83 380 122 380 164 c 2
 380 503 l 2
 380 543 320 571 320 571 c 1
364 -7 m 0
 364 30 383 83 383 83 c 1
 299 38 l 1
 299 38 283 -10 283 -59 c 0
 283 -128 364 -150 379 -150 c 0
 394 -150 483 -112 483 -112 c 1
 483 -94 l 1
 364 -94 364 -44 364 -7 c 0
EndSplineSet
EndChar
StartChar: Wcircumflex
Encoding: 372 372 365
Width: 533
VWidth: 0
Flags: HW
PickledData: "(dp1
."
LayerCount: 2
Fore
SplineSet
313 808 m 0
 310 810 294 821 267 821 c 0
 240 821 224 810 222 808 c 0
 195 782 127 723 127 711 c 0
 127 692 138 675 141 675 c 0
 155 675 218 718 267 757 c 1
 316 718 380 675 394 675 c 0
 397 675 407 692 407 711 c 0
 407 723 341 785 313 808 c 0
217 88 m 1
 208 85 198 83 191 83 c 0
 159 83 142 112 142 162 c 2
 142 586 l 2
 142 618 92 642 92 642 c 1
 1 591 l 1
 1 573 l 1
 22 569 42 556 42 519 c 2
 42 101 l 2
 42 64 77 0 112 0 c 0
 127 0 180 25 227 52 c 1
 240 25 264 0 287 0 c 0
 324 0 492 68 492 77 c 2
 492 519 l 2
 492 611 433 641 417 641 c 0
 416 641 319 593 317 591 c 1
 310 618 274 641 267 641 c 0
 266 641 176 591 176 591 c 1
 176 573 l 1
 176 573 217 570 217 519 c 2
 217 88 l 1
392 89 m 1
 392 89 375 82 359 82 c 0
 329 82 317 124 317 154 c 2
 317 562 l 1
 365 561 392 551 392 489 c 2
 392 89 l 1
EndSplineSet
EndChar
StartChar: wcircumflex
Encoding: 373 373 266
Width: 533
VWidth: 0
Flags: HW
PickledData: "(dp1
."
LayerCount: 2
Fore
SplineSet
313 659 m 0
 310 661 294 671 267 671 c 0
 240 671 224 661 222 659 c 0
 195 633 127 573 127 561 c 0
 127 542 138 526 141 526 c 0
 155 526 218 569 267 608 c 1
 316 569 380 526 394 526 c 0
 397 526 407 542 407 561 c 0
 407 573 341 636 313 659 c 0
217 88 m 1
 208 85 198 83 191 83 c 0
 159 83 142 112 142 162 c 2
 142 420 l 2
 142 452 92 476 92 476 c 1
 1 425 l 1
 1 407 l 1
 22 403 42 389 42 352 c 2
 42 101 l 2
 42 64 77 0 112 0 c 0
 127 0 180 25 227 52 c 1
 240 25 264 0 287 0 c 0
 324 0 492 68 492 77 c 2
 492 352 l 2
 492 444 433 475 417 475 c 0
 416 475 319 426 317 424 c 1
 310 451 274 475 267 475 c 0
 266 475 176 425 176 425 c 1
 176 407 l 1
 176 407 217 403 217 352 c 2
 217 88 l 1
392 89 m 1
 392 89 375 82 359 82 c 0
 329 82 317 124 317 154 c 2
 317 396 l 1
 365 395 392 384 392 322 c 2
 392 89 l 1
EndSplineSet
EndChar
StartChar: Ycircumflex
Encoding: 374 374 369
Width: 411
VWidth: 0
Flags: HW
PickledData: "(dp1
."
LayerCount: 2
Fore
SplineSet
253 970 m 0
 249 973 230 985 198 985 c 0
 166 985 146 973 143 970 c 0
 111 939 30 867 30 853 c 0
 30 830 42 810 46 810 c 0
 63 810 139 862 198 909 c 1
 257 862 333 810 350 810 c 0
 354 810 366 830 366 853 c 0
 366 867 287 942 253 970 c 0
-38 709 m 1
 66 770 l 1
 105 770 l 1
 220 409 l 1
 230 414 236 416 236 416 c 1
 236 625 l 2
 236 690 195 692 195 692 c 1
 195 714 l 1
 291 771 l 1
 296 771 351 737 351 706 c 2
 351 420 l 2
 351 407 275 376 239 363 c 1
 239 175 l 2
 239 134 244 117 279 117 c 1
 279 89 l 1
 75 0 l 1
 59 32 l 1
 119 47 119 105 119 145 c 2
 119 356 l 1
 19 656 l 2
 8 688 -13 688 -38 688 c 1
 -38 709 l 1
EndSplineSet
EndChar
StartChar: ycircumflex
Encoding: 375 375 267
Width: 431
VWidth: 0
Flags: HW
PickledData: "(dp1
."
LayerCount: 2
Fore
SplineSet
381 503 m 2
 381 543 321 571 321 571 c 1
 220 514 l 1
 220 492 l 1
 245 487 261 468 261 423 c 2
 261 115 l 1
 206 115 171 132 171 232 c 2
 171 503 l 2
 171 543 111 571 111 571 c 1
 2 510 l 1
 2 488 l 1
 27 483 51 468 51 423 c 2
 51 148 l 2
 51 83 89 20 131 20 c 0
 148 20 261 73 261 73 c 1
 215 -31 137 -90 89 -90 c 2
 55 -90 l 1
 55 -120 l 1
 55 -120 167 -180 223 -180 c 0
 250 -180 381 23 381 106 c 2
 381 503 l 2
273 791 m 0
 269 794 250 806 218 806 c 0
 186 806 166 794 163 791 c 0
 131 760 50 688 50 674 c 0
 50 651 62 631 66 631 c 0
 83 631 159 683 218 730 c 1
 277 683 353 631 370 631 c 0
 374 631 386 651 386 674 c 0
 386 688 307 763 273 791 c 0
EndSplineSet
EndChar
StartChar: Ydieresis
Encoding: 376 376 366
Width: 349
VWidth: 0
Flags: HW
PickledData: "(dp1
."
LayerCount: 2
Fore
SplineSet
15 722 m 2
 15 690 32 674 40 674 c 0
 48 674 106 697 106 700 c 2
 106 754 l 2
 106 775 88 793 82 793 c 0
 77 793 15 770 15 767 c 2
 15 722 l 2
187 722 m 2
 187 690 204 674 212 674 c 0
 220 674 278 697 278 700 c 2
 278 754 l 2
 278 775 260 793 254 793 c 0
 249 793 187 770 187 767 c 2
 187 722 l 2
-32 591 m 1
 55 641 l 1
 87 641 l 1
 183 341 l 1
 191 345 197 347 197 347 c 1
 197 521 l 2
 197 575 162 576 162 576 c 1
 162 595 l 1
 242 642 l 1
 246 642 292 614 292 588 c 2
 292 350 l 2
 292 339 229 313 199 302 c 1
 199 146 l 2
 199 112 203 97 232 97 c 1
 232 74 l 1
 62 0 l 1
 49 27 l 1
 99 39 99 88 99 121 c 2
 99 297 l 1
 16 546 l 2
 7 573 -11 573 -32 573 c 1
 -32 591 l 1
EndSplineSet
EndChar
StartChar: Zacute
Encoding: 377 377 371
Width: 370
VWidth: 0
Flags: HW
PickledData: "(dp1
."
LayerCount: 2
Fore
SplineSet
191 975 m 0
 172 944 142 881 142 853 c 0
 142 830 154 810 158 810 c 0
 170 810 189 817 193 822 c 0
 207 840 283 942 283 966 c 0
 283 973 275 985 236 985 c 0
 213 985 194 980 191 975 c 0
281 793 m 1
 276 773 257 760 212 760 c 2
 78 760 l 2
 38 760 10 711 10 711 c 1
 67 629 l 1
 89 629 l 1
 94 649 113 662 158 662 c 2
 250 662 l 1
 10 95 l 1
 10 61 30 0 30 0 c 1
 292 0 l 2
 332 0 360 49 360 49 c 1
 303 131 l 1
 281 131 l 1
 276 111 257 98 212 98 c 2
 133 98 l 1
 360 663 l 1
 360 676 322 766 303 793 c 1
 281 793 l 1
EndSplineSet
EndChar
StartChar: zacute
Encoding: 378 378 270
Width: 383
VWidth: 0
Flags: HW
PickledData: "(dp1
."
LayerCount: 2
Fore
SplineSet
187 796 m 0
 168 765 138 702 138 674 c 0
 138 651 150 631 154 631 c 0
 166 631 185 638 189 643 c 0
 203 661 279 763 279 787 c 0
 279 794 271 806 232 806 c 0
 209 806 190 801 187 796 c 0
281 594 m 1
 276 574 257 561 212 561 c 2
 78 561 l 2
 38 561 10 512 10 512 c 1
 67 430 l 1
 89 430 l 1
 94 450 113 463 158 463 c 2
 245 463 l 1
 10 95 l 1
 10 61 30 0 30 0 c 1
 292 0 l 2
 332 0 360 49 360 49 c 1
 303 131 l 1
 281 131 l 1
 276 111 257 98 212 98 c 2
 133 98 l 1
 360 464 l 1
 360 477 322 567 303 594 c 1
 281 594 l 1
EndSplineSet
EndChar
StartChar: Zdotaccent
Encoding: 379 379 373
Width: 370
VWidth: 0
Flags: HW
PickledData: "(dp1
."
LayerCount: 2
Fore
SplineSet
124 875 m 2
 124 832 146 811 157 811 c 0
 168 811 245 841 245 845 c 2
 245 918 l 2
 245 945 221 970 213 970 c 0
 206 970 124 940 124 936 c 2
 124 875 l 2
281 793 m 1
 276 773 257 760 212 760 c 2
 78 760 l 2
 38 760 10 711 10 711 c 1
 67 629 l 1
 89 629 l 1
 94 649 113 662 158 662 c 2
 250 662 l 1
 10 95 l 1
 10 61 30 0 30 0 c 1
 292 0 l 2
 332 0 360 49 360 49 c 1
 303 131 l 1
 281 131 l 1
 276 111 257 98 212 98 c 2
 133 98 l 1
 360 663 l 1
 360 676 322 766 303 793 c 1
 281 793 l 1
EndSplineSet
EndChar
StartChar: zdotaccent
Encoding: 380 380 271
Width: 383
VWidth: 0
Flags: HW
PickledData: "(dp1
."
LayerCount: 2
Fore
SplineSet
131 695 m 2
 131 652 153 631 164 631 c 0
 175 631 252 661 252 665 c 2
 252 738 l 2
 252 765 228 790 220 790 c 0
 213 790 131 760 131 756 c 2
 131 695 l 2
281 594 m 1
 276 574 257 561 212 561 c 2
 78 561 l 2
 38 561 10 512 10 512 c 1
 67 430 l 1
 89 430 l 1
 94 450 113 463 158 463 c 2
 245 463 l 1
 10 95 l 1
 10 61 30 0 30 0 c 1
 292 0 l 2
 332 0 360 49 360 49 c 1
 303 131 l 1
 281 131 l 1
 276 111 257 98 212 98 c 2
 133 98 l 1
 360 464 l 1
 360 477 322 567 303 594 c 1
 281 594 l 1
EndSplineSet
EndChar
StartChar: Zcaron
Encoding: 381 381 372
Width: 308
VWidth: 0
Flags: HW
PickledData: "(dp1
."
LayerCount: 2
Fore
SplineSet
194 686 m 0
 191 684 175 674 148 674 c 0
 121 674 104 684 102 686 c 0
 75 712 8 772 8 784 c 0
 8 803 19 820 22 820 c 0
 36 820 99 776 148 737 c 1
 197 776 261 820 275 820 c 0
 278 820 288 803 288 784 c 0
 288 772 222 709 194 686 c 0
234 661 m 1
 230 644 214 633 177 633 c 2
 65 633 l 2
 32 633 8 592 8 592 c 1
 56 524 l 1
 74 524 l 1
 78 541 95 551 132 551 c 2
 208 551 l 1
 8 79 l 1
 8 51 25 0 25 0 c 1
 243 0 l 2
 276 0 300 41 300 41 c 1
 252 109 l 1
 234 109 l 1
 230 92 214 82 177 82 c 2
 111 82 l 1
 300 552 l 1
 300 563 268 639 252 661 c 1
 234 661 l 1
EndSplineSet
EndChar
StartChar: zcaron
Encoding: 382 382 272
Width: 319
VWidth: 0
Flags: HW
PickledData: "(dp1
."
LayerCount: 2
Fore
SplineSet
202 537 m 0
 199 535 184 525 157 525 c 0
 130 525 113 535 111 537 c 0
 84 563 17 623 17 635 c 0
 17 654 27 671 30 671 c 0
 44 671 108 627 157 588 c 1
 206 627 269 671 283 671 c 0
 286 671 297 654 297 635 c 0
 297 623 230 560 202 537 c 0
234 495 m 1
 230 478 214 467 177 467 c 2
 65 467 l 2
 32 467 8 426 8 426 c 1
 56 358 l 1
 74 358 l 1
 78 375 95 386 132 386 c 2
 204 386 l 1
 8 79 l 1
 8 51 25 0 25 0 c 1
 243 0 l 2
 276 0 300 41 300 41 c 1
 252 109 l 1
 234 109 l 1
 230 92 214 82 177 82 c 2
 111 82 l 1
 300 387 l 1
 300 398 268 473 252 495 c 1
 234 495 l 1
EndSplineSet
EndChar
StartChar: florin
Encoding: 402 402 151
Width: 320
VWidth: 0
Flags: HW
PickledData: "(dp1
."
LayerCount: 2
Fore
SplineSet
-11 488 m 1
 -11 466 l 1
 50 466 l 1
 50 -58 l 2
 50 -103 37 -125 9 -145 c 1
 9 -180 l 1
 138 -105 l 1
 138 -105 170 -87 170 -53 c 2
 170 466 l 1
 222 466 l 1
 272 491 l 1
 272 515 l 1
 170 515 l 1
 170 662 l 2
 170 682 177 692 187 692 c 0
 217 692 215 604 239 604 c 0
 255 604 307 641 353 660 c 1
 353 680 l 1
 350 680 336 680 320 704 c 0
 303 729 293 769 277 769 c 0
 253 769 50 686 50 657 c 2
 50 515 l 1
 -11 488 l 1
EndSplineSet
EndChar
StartChar: Oogonek
Encoding: 490 490 339
Width: 431
VWidth: 0
Flags: HW
PickledData: "(dp1
."
LayerCount: 2
Fore
SplineSet
50 146 m 2
 50 58 109 0 140 0 c 0
 170 0 381 82 381 93 c 2
 381 655 l 2
 381 702 315 770 294 770 c 0
 273 770 50 687 50 678 c 2
 50 146 l 2
260 108 m 1
 260 108 243 92 221 92 c 0
 199 92 170 103 170 166 c 2
 170 662 l 1
 170 662 187 677 209 677 c 0
 231 677 260 666 260 603 c 2
 260 108 l 1
241 -7 m 0
 241 30 260 83 260 83 c 1
 176 38 l 1
 176 38 160 -10 160 -59 c 0
 160 -128 241 -150 256 -150 c 0
 271 -150 360 -112 360 -112 c 1
 360 -94 l 1
 241 -94 241 -44 241 -7 c 0
EndSplineSet
EndChar
StartChar: oogonek
Encoding: 491 491 248
Width: 359
VWidth: 0
Flags: HW
PickledData: "(dp1
."
LayerCount: 2
Fore
SplineSet
42 122 m 2
 42 49 91 0 117 0 c 0
 142 0 317 68 317 77 c 2
 317 379 l 2
 317 418 262 475 245 475 c 0
 228 475 42 405 42 398 c 2
 42 122 l 2
217 90 m 1
 217 90 202 77 184 77 c 0
 166 77 142 86 142 138 c 2
 142 385 l 1
 142 385 156 397 174 397 c 0
 192 397 217 388 217 336 c 2
 217 90 l 1
210 -6 m 0
 210 25 226 69 226 69 c 1
 156 32 l 1
 156 32 142 -8 142 -49 c 0
 142 -106 210 -125 222 -125 c 0
 234 -125 309 -93 309 -93 c 1
 309 -78 l 1
 210 -78 210 -37 210 -6 c 0
EndSplineSet
EndChar
StartChar: AEacute
Encoding: 508 508 275
Width: 504
VWidth: 0
Flags: HW
PickledData: "(dp1
."
LayerCount: 2
Fore
SplineSet
42 85 m 2
 42 8 -1 0 -8 0 c 1
 5 -27 l 1
 176 45 l 1
 176 71 l 1
 147 71 142 91 142 128 c 2
 142 285 l 1
 217 285 l 1
 217 127 l 2
 217 56 309 0 334 0 c 0
 356 0 455 46 466 46 c 1
 466 70 l 1
 318 70 317 106 317 208 c 2
 317 285 l 1
 393 285 l 1
 435 306 l 1
 435 326 l 1
 317 326 l 1
 317 544 l 2
 317 554 322 561 332 561 c 0
 356 561 370 425 395 425 c 0
 403 425 471 462 504 476 c 1
 504 492 l 1
 499 492 476 493 468 508 c 0
 445 548 434 641 422 641 c 0
 411 641 347 619 294 599 c 1
 277 621 255 640 245 640 c 0
 228 640 42 570 42 563 c 2
 42 85 l 2
142 550 m 1
 142 550 156 562 174 562 c 0
 192 562 217 553 217 501 c 2
 217 326 l 1
 191 326 l 1
 142 304 l 1
 142 550 l 1
307 811 m 0
 291 785 267 733 267 710 c 0
 267 691 277 674 280 674 c 0
 290 674 306 680 309 684 c 0
 321 699 384 784 384 804 c 0
 384 810 377 820 345 820 c 0
 326 820 309 815 307 811 c 0
EndSplineSet
EndChar
StartChar: aeacute
Encoding: 509 509 167
Width: 600
VWidth: 0
Flags: HW
PickledData: "(dp1
."
LayerCount: 2
Fore
SplineSet
485 570 m 0
 472 570 398 544 334 520 c 1
 316 549 291 570 267 570 c 0
 248 570 93 515 93 515 c 1
 93 485 l 1
 211 485 239 456 239 383 c 1
 239 383 30 321 30 284 c 2
 30 120 l 2
 30 44 115 0 115 0 c 1
 253 75 l 1
 272 29 307 0 332 0 c 0
 343 0 507 55 507 55 c 1
 507 84 l 1
 440 84 361 90 361 187 c 1
 362 187 570 249 570 290 c 2
 570 458 l 2
 570 515 493 570 485 570 c 0
450 340 m 2
 450 274 410 246 360 232 c 1
 360 463 l 1
 360 463 381 478 398 478 c 0
 436 478 450 444 450 411 c 2
 450 340 l 2
240 112 m 1
 240 112 221 97 202 97 c 0
 176 97 150 120 150 156 c 2
 150 221 l 2
 150 304 187 319 240 338 c 1
 240 112 l 1
346 796 m 0
 327 765 297 702 297 674 c 0
 297 651 309 631 313 631 c 0
 325 631 344 638 348 643 c 0
 362 661 438 763 438 787 c 0
 438 794 430 806 391 806 c 0
 368 806 349 801 346 796 c 0
EndSplineSet
EndChar
StartChar: Oslashacute
Encoding: 510 510 338
Width: 359
VWidth: 0
Flags: HW
PickledData: "(dp1
."
LayerCount: 2
Fore
SplineSet
186 812 m 0
 170 786 145 734 145 711 c 0
 145 692 155 675 158 675 c 0
 168 675 184 681 187 685 c 0
 199 700 262 785 262 805 c 0
 262 811 255 821 223 821 c 0
 204 821 188 816 186 812 c 0
42 122 m 2
 42 92 50 66 62 46 c 1
 35 -32 l 1
 53 -32 l 1
 117 0 l 1
 142 0 317 68 317 77 c 2
 317 546 l 2
 317 553 315 561 312 569 c 1
 346 666 l 1
 325 666 l 1
 264 633 l 1
 256 637 249 641 245 641 c 0
 228 641 42 572 42 565 c 2
 42 122 l 2
142 551 m 1
 142 551 156 564 174 564 c 0
 192 564 217 554 217 502 c 2
 217 495 l 1
 142 277 l 1
 142 551 l 1
217 90 m 1
 217 90 202 77 184 77 c 0
 172 77 158 80 149 97 c 1
 217 292 l 1
 217 90 l 1
EndSplineSet
EndChar
StartChar: oslashacute
Encoding: 511 511 247
Width: 359
VWidth: 0
Flags: HW
PickledData: "(dp1
."
LayerCount: 2
Fore
SplineSet
161 663 m 0
 145 637 120 584 120 561 c 0
 120 542 130 526 133 526 c 0
 143 526 159 532 162 536 c 0
 174 551 237 636 237 656 c 0
 237 662 230 671 198 671 c 0
 179 671 163 667 161 663 c 0
116 -50 m 1
 134 3 l 1
 186 16 317 69 317 77 c 2
 317 379 l 2
 317 399 302 425 285 444 c 1
 324 557 l 1
 303 557 l 1
 242 525 l 1
 223 470 l 1
 171 453 42 404 42 398 c 2
 42 122 l 2
 42 82 55 50 72 28 c 1
 35 -82 l 1
 53 -82 l 1
 116 -50 l 1
142 385 m 1
 142 385 156 397 174 397 c 0
 181 397 190 396 197 391 c 1
 142 230 l 1
 142 385 l 1
217 90 m 1
 217 90 202 77 184 77 c 0
 177 77 169 78 162 83 c 1
 217 243 l 1
 217 90 l 1
EndSplineSet
EndChar
StartChar: uni0218
Encoding: 536 536 346
Width: 354
VWidth: 0
Flags: HW
PickledData: "(dp1
."
LayerCount: 2
Fore
SplineSet
149 -71 m 2
 149 -108 167 -115 167 -127 c 0
 167 -147 161 -172 139 -181 c 1
 177 -216 l 1
 229 -186 250 -115 250 -96 c 2
 250 -52 l 2
 250 -30 230 -8 223 -8 c 0
 217 -8 149 -34 149 -37 c 2
 149 -71 l 2
92 266 m 0
 64 266 42 314 42 375 c 2
 42 548 l 2
 42 572 219 641 230 641 c 0
 242 641 260 602 283 562 c 0
 291 547 306 542 311 542 c 1
 311 526 l 1
 278 512 226 479 218 479 c 0
 193 479 181 577 157 577 c 0
 148 577 142 569 142 552 c 2
 142 367 l 1
 142 367 142 333 157 333 c 0
 165 333 250 377 267 377 c 0
 293 377 317 331 317 262 c 2
 317 85 l 2
 317 61 123 -8 112 -8 c 0
 100 -8 82 47 59 87 c 0
 51 102 37 107 32 107 c 1
 32 124 l 1
 65 138 116 171 124 171 c 0
 149 171 170 56 194 56 c 0
 203 56 217 64 217 81 c 2
 217 268 l 1
 217 268 218 306 197 306 c 0
 184 306 104 266 92 266 c 0
EndSplineSet
EndChar
StartChar: uni0219
Encoding: 537 537 253
Width: 354
VWidth: 0
Flags: HW
PickledData: "(dp1
."
LayerCount: 2
Fore
SplineSet
144 -71 m 2
 144 -108 162 -115 162 -127 c 0
 162 -147 156 -172 134 -181 c 1
 172 -216 l 1
 224 -186 245 -115 245 -96 c 2
 245 -52 l 2
 245 -30 225 -8 218 -8 c 0
 212 -8 144 -34 144 -37 c 2
 144 -71 l 2
80 182 m 0
 52 182 29 231 29 292 c 2
 29 382 l 2
 29 406 206 475 217 475 c 0
 229 475 239 452 262 412 c 0
 270 397 285 392 290 392 c 1
 290 376 l 1
 257 362 205 329 197 329 c 0
 172 329 168 411 144 411 c 0
 135 411 129 403 129 386 c 2
 129 283 l 1
 129 283 129 250 144 250 c 0
 152 250 237 293 254 293 c 0
 280 293 305 248 305 179 c 2
 305 85 l 2
 305 61 111 -8 100 -8 c 0
 88 -8 78 31 55 71 c 0
 47 86 32 91 27 91 c 1
 27 107 l 1
 60 121 112 154 120 154 c 0
 145 154 158 56 182 56 c 0
 191 56 205 64 205 81 c 2
 205 185 l 1
 205 185 205 222 184 222 c 0
 171 222 92 182 80 182 c 0
EndSplineSet
EndChar
StartChar: uni021A
Encoding: 538 538 350
Width: 304
VWidth: 0
Flags: HW
PickledData: "(dp1
."
LayerCount: 2
Fore
SplineSet
112 -71 m 2
 112 -108 131 -115 131 -127 c 0
 131 -147 124 -172 102 -181 c 1
 140 -216 l 1
 192 -186 213 -115 213 -96 c 2
 213 -52 l 2
 213 -30 194 -8 187 -8 c 0
 181 -8 112 -34 112 -37 c 2
 112 -71 l 2
102 85 m 2
 102 8 59 0 52 0 c 1
 65 -27 l 1
 236 45 l 1
 236 71 l 1
 207 71 202 91 202 128 c 2
 202 551 l 1
 295 551 l 2
 328 551 352 592 352 592 c 1
 304 661 l 1
 286 661 l 1
 282 644 265 633 228 633 c 2
 8 633 l 2
 -25 633 -48 592 -48 592 c 1
 -1 524 l 1
 17 524 l 1
 21 541 38 551 75 551 c 2
 127 551 l 1
 102 526 l 1
 102 85 l 2
EndSplineSet
EndChar
StartChar: uni021B
Encoding: 539 539 256
Width: 183
VWidth: 0
Flags: HW
PickledData: "(dp1
."
LayerCount: 2
Fore
SplineSet
50 -71 m 2
 50 -108 68 -115 68 -127 c 0
 68 -147 62 -172 40 -181 c 1
 77 -216 l 1
 129 -186 151 -115 151 -96 c 2
 151 -52 l 2
 151 -30 131 -8 124 -8 c 0
 118 -8 50 -34 50 -37 c 2
 50 -71 l 2
7 421 m 1
 42 421 l 1
 42 57 l 2
 42 24 92 0 92 0 c 1
 176 47 l 1
 176 66 l 1
 155 70 142 86 142 123 c 2
 142 421 l 1
 176 421 l 1
 184 462 l 1
 142 462 l 1
 142 561 l 1
 118 561 l 1
 109 506 46 456 16 456 c 1
 7 421 l 1
EndSplineSet
EndChar
StartChar: dotlessj
Encoding: 567 567 134
Width: 220
VWidth: 0
Flags: HW
PickledData: "(dp1
."
AnchorPoint: "top" 110 630 basechar 0
LayerCount: 2
Fore
SplineSet
50 113 m 2
 50 -31 36 -90 -12 -90 c 2
 -46 -90 l 1
 -46 -120 l 1
 -46 -120 56 -180 112 -180 c 0
 139 -180 170 -57 170 106 c 2
 170 502 l 2
 170 542 110 570 110 570 c 1
 9 513 l 1
 9 491 l 1
 34 486 50 467 50 422 c 2
 50 113 l 2
EndSplineSet
EndChar
StartChar: schwa
Encoding: 601 601 93
Width: 358
VWidth: 0
Flags: HW
PickledData: "(dp1
."
LayerCount: 2
Back
SplineSet
112.455078125 0 m 4
 131.614257812 0 316.540039062 69.138671875 316.540039062 76.6357421875 c 6
 316.540039062 356.524414062 l 6
 316.540039062 423.997070312 269.891601562 474.809570312 239.904296875 474.809570312 c 4
 230.741210938 474.809570312 94.12890625 428.995117188 94.12890625 428.995117188 c 5
 94.12890625 404.837890625 l 5
 149.940429688 404.837890625 215.747070312 399.83984375 215.747070312 319.0390625 c 5
 214.9140625 319.0390625 41.650390625 267.392578125 41.650390625 233.240234375 c 6
 41.650390625 93.2958984375 l 6
 41.650390625 45.8154296875 105.791015625 0 112.455078125 0 c 4
141.610351562 191.58984375 m 6
 141.610351562 246.568359375 174.9296875 269.891601562 216.580078125 281.553710938 c 5
 216.580078125 89.130859375 l 5
 216.580078125 89.130859375 199.086914062 76.6357421875 184.92578125 76.6357421875 c 4
 153.272460938 76.6357421875 141.610351562 104.958007812 141.610351562 132.447265625 c 6
 141.610351562 191.58984375 l 6
EndSplineSet
Fore
SplineSet
112 0 m 0
 131 0 317 70 317 77 c 2
 317 357 l 2
 317 424 228 475 198 475 c 0
 189 475 69 429 69 429 c 1
 69 405 l 1
 152 405 216 405 216 319 c 1
 215 319 42 267 42 233 c 2
 42 93 l 2
 42 46 105 0 112 0 c 0
142 192 m 2
 142 247 175 270 217 282 c 1
 217 89 l 1
 217 89 199 77 185 77 c 0
 153 77 142 105 142 132 c 2
 142 192 l 2
EndSplineSet
EndChar
StartChar: circumflex
Encoding: 710 710 121
Width: 376
VWidth: 0
Flags: HW
PickledData: "(dp1
."
AnchorPoint: "top" 186 630 mark 0
LayerCount: 2
Fore
SplineSet
243 791 m 0
 239 794 220 806 188 806 c 0
 156 806 136 794 133 791 c 0
 101 760 20 688 20 674 c 0
 20 651 32 631 36 631 c 0
 53 631 129 683 188 730 c 1
 247 683 323 631 340 631 c 0
 344 631 356 651 356 674 c 0
 356 688 277 763 243 791 c 0
EndSplineSet
EndChar
StartChar: caron
Encoding: 711 711 123
Width: 376
VWidth: 0
Flags: HW
PickledData: "(dp1
."
AnchorPoint: "top" 188 630 mark 0
LayerCount: 2
Fore
SplineSet
243 645 m 0
 239 642 220 630 188 630 c 0
 156 630 136 642 133 645 c 0
 101 676 20 748 20 762 c 0
 20 785 32 805 36 805 c 0
 53 805 129 753 188 706 c 1
 247 753 323 805 340 805 c 0
 344 805 356 785 356 762 c 0
 356 748 277 673 243 645 c 0
EndSplineSet
EndChar
StartChar: breve
Encoding: 728 728 127
Width: 323
VWidth: 0
Flags: HW
PickledData: "(dp1
."
AnchorPoint: "top" 163 630 mark 0
LayerCount: 2
Fore
SplineSet
303 746 m 2
 303 769 283 790 276 790 c 0
 270 790 210 765 210 761 c 2
 210 713 l 1
 210 713 181 676 131 676 c 1
 113 746 l 2
 107 768 93 790 86 790 c 0
 80 790 20 765 20 761 c 0
 20 680 103 630 129 630 c 0
 155 630 303 700 303 710 c 2
 303 746 l 2
EndSplineSet
EndChar
StartChar: dotaccent
Encoding: 729 729 19
Width: 191
VWidth: 0
Flags: HW
PickledData: "(dp1
."
AnchorPoint: "top" 93 630 mark 0
LayerCount: 2
Fore
SplineSet
35 695 m 2
 35 652 57 631 68 631 c 0
 79 631 156 661 156 665 c 2
 156 738 l 2
 156 765 132 790 124 790 c 0
 117 790 35 760 35 756 c 2
 35 695 l 2
EndSplineSet
EndChar
StartChar: ring
Encoding: 730 730 128
Width: 179
VWidth: 0
Flags: HW
PickledData: "(dp1
."
AnchorPoint: "top" 89 630 mark 0
LayerCount: 2
Fore
SplineSet
15 691 m 2
 15 654 39 630 53 630 c 0
 65 630 164 665 164 669 c 2
 164 744 l 2
 164 763 136 792 127 792 c 0
 119 792 15 757 15 753 c 2
 15 691 l 2
103 675 m 1
 103 675 101 669 92 669 c 0
 82 669 75 673 75 700 c 2
 75 747 l 1
 75 747 77 753 87 753 c 0
 96 753 103 748 103 722 c 2
 103 675 l 1
EndSplineSet
EndChar
StartChar: ogonek
Encoding: 731 731 141
Width: 220
VWidth: 0
Flags: HW
PickledData: "(dp1
."
AnchorPoint: "bottom" 65 0 mark 0
LayerCount: 2
Fore
SplineSet
101 -7 m 0
 101 30 120 83 120 83 c 1
 36 38 l 1
 36 38 20 -10 20 -59 c 0
 20 -128 101 -150 116 -150 c 0
 131 -150 220 -112 220 -112 c 1
 220 -94 l 1
 101 -94 101 -44 101 -7 c 0
EndSplineSet
EndChar
StartChar: hungarumlaut
Encoding: 733 733 120
Width: 301
VWidth: 0
Flags: HW
PickledData: "(dp1
."
AnchorPoint: "top" 150 525 mark 0
LayerCount: 2
Fore
SplineSet
57 663 m 0
 41 637 17 584 17 561 c 0
 17 542 27 526 30 526 c 0
 40 526 56 532 59 536 c 0
 71 551 134 636 134 656 c 0
 134 662 127 671 95 671 c 0
 76 671 59 667 57 663 c 0
208 663 m 0
 192 637 167 584 167 561 c 0
 167 542 178 526 181 526 c 0
 191 526 207 532 210 536 c 0
 222 551 285 636 285 656 c 0
 285 662 278 671 246 671 c 0
 227 671 210 667 208 663 c 0
EndSplineSet
EndChar
StartChar: Ndotaccent
Encoding: 7748 7748 328
Width: 358
VWidth: 0
Flags: HW
PickledData: "(dp1
."
LayerCount: 2
Fore
SplineSet
5 -27 m 1
 176 45 l 1
 176 71 l 1
 155 71 142 81 142 128 c 2
 142 556 l 1
 202 556 217 534 217 465 c 2
 217 57 l 2
 217 24 267 0 267 0 c 1
 357 51 l 1
 357 69 l 1
 336 73 317 86 317 123 c 2
 317 542 l 2
 317 578 281 641 243 641 c 0
 226 641 159 598 142 591 c 1
 142 630 92 642 92 642 c 1
 7 592 1 591 1 591 c 1
 1 573 l 1
 25 573 42 541 42 506 c 2
 42 95 l 2
 42 0 -8 0 -8 0 c 1
 5 -27 l 1
126 729 m 2
 126 693 144 676 153 676 c 0
 162 676 227 701 227 704 c 2
 227 765 l 2
 227 787 207 808 200 808 c 0
 194 808 126 783 126 780 c 2
 126 729 l 2
EndSplineSet
EndChar
StartChar: ndotaccent
Encoding: 7749 7749 211
Width: 358
VWidth: 0
Flags: HW
PickledData: "(dp1
."
LayerCount: 2
Fore
SplineSet
92 0 m 1
 176 47 l 1
 176 66 l 1
 155 70 142 86 142 123 c 2
 142 389 l 1
 142 389 162 394 169 394 c 0
 206 394 217 355 217 298 c 2
 217 57 l 2
 217 24 267 0 267 0 c 1
 357 51 l 1
 357 69 l 1
 336 73 317 86 317 123 c 2
 317 376 l 2
 317 412 281 475 243 475 c 0
 226 475 159 431 142 424 c 1
 142 463 92 476 92 476 c 1
 7 426 1 425 1 425 c 1
 1 407 l 1
 25 407 42 374 42 339 c 2
 42 57 l 2
 42 24 92 0 92 0 c 1
121 579 m 2
 121 543 139 526 148 526 c 0
 157 526 222 551 222 554 c 2
 222 615 l 2
 222 637 202 658 195 658 c 0
 189 658 121 633 121 630 c 2
 121 579 l 2
EndSplineSet
EndChar
StartChar: Wgrave
Encoding: 7808 7808 364
Width: 533
VWidth: 0
Flags: HW
PickledData: "(dp1
."
LayerCount: 2
Fore
SplineSet
247 812 m 0
 263 786 288 734 288 711 c 0
 288 692 278 675 275 675 c 0
 265 675 249 681 246 685 c 0
 234 700 171 785 171 805 c 0
 171 811 178 821 210 821 c 0
 229 821 245 816 247 812 c 0
EndSplineSet
Refer: 63 87 S 1 0 0 1 0 0 2
EndChar
StartChar: wgrave
Encoding: 7809 7809 263
Width: 533
VWidth: 0
Flags: HW
PickledData: "(dp1
."
LayerCount: 2
Fore
SplineSet
282 663 m 0
 298 637 322 584 322 561 c 0
 322 542 312 526 309 526 c 0
 299 526 283 532 280 536 c 0
 268 551 205 636 205 656 c 0
 205 662 212 671 244 671 c 0
 263 671 280 667 282 663 c 0
EndSplineSet
Refer: 29 119 S 1 0 0 1 0 0 2
EndChar
StartChar: Wacute
Encoding: 7810 7810 363
Width: 641
VWidth: 0
Flags: HW
PickledData: "(dp1
."
LayerCount: 2
Fore
SplineSet
340 975 m 0
 321 944 291 881 291 853 c 0
 291 830 303 810 307 810 c 0
 319 810 338 817 342 822 c 0
 356 840 432 942 432 966 c 0
 432 973 424 985 385 985 c 0
 362 985 343 980 340 975 c 0
260 106 m 1
 249 102 238 100 229 100 c 0
 191 100 170 135 170 195 c 2
 170 704 l 2
 170 742 110 771 110 771 c 1
 1 710 l 1
 1 688 l 1
 26 683 50 668 50 623 c 2
 50 121 l 2
 50 77 93 0 135 0 c 0
 153 0 216 30 273 62 c 1
 289 30 317 0 345 0 c 0
 390 0 591 82 591 93 c 2
 591 623 l 2
 591 733 520 770 501 770 c 0
 500 770 383 711 380 709 c 1
 372 742 328 770 320 770 c 0
 319 770 211 710 211 710 c 1
 211 688 l 1
 211 688 260 684 260 623 c 2
 260 106 l 1
470 107 m 1
 470 107 450 98 431 98 c 0
 395 98 381 149 381 185 c 2
 381 675 l 1
 439 674 470 661 470 587 c 2
 470 107 l 1
EndSplineSet
EndChar
StartChar: wacute
Encoding: 7811 7811 264
Width: 641
VWidth: 0
Flags: HW
PickledData: "(dp1
."
LayerCount: 2
Fore
SplineSet
298 796 m 0
 279 765 249 702 249 674 c 0
 249 651 261 631 265 631 c 0
 277 631 296 638 300 643 c 0
 314 661 390 763 390 787 c 0
 390 794 382 806 343 806 c 0
 320 806 301 801 298 796 c 0
260 106 m 1
 249 102 238 100 229 100 c 0
 191 100 170 135 170 195 c 2
 170 504 l 2
 170 542 110 571 110 571 c 1
 1 510 l 1
 1 488 l 1
 26 483 50 468 50 423 c 2
 50 121 l 2
 50 77 93 0 135 0 c 0
 153 0 216 30 273 62 c 1
 289 30 317 0 345 0 c 0
 390 0 591 82 591 93 c 2
 591 423 l 2
 591 533 520 570 501 570 c 0
 500 570 383 511 380 509 c 1
 372 542 328 570 320 570 c 0
 319 570 211 510 211 510 c 1
 211 488 l 1
 211 488 260 484 260 423 c 2
 260 106 l 1
470 107 m 1
 470 107 450 98 431 98 c 0
 395 98 381 149 381 185 c 2
 381 475 l 1
 439 474 470 461 470 387 c 2
 470 107 l 1
EndSplineSet
EndChar
StartChar: Wdieresis
Encoding: 7812 7812 362
Width: 533
VWidth: 0
Flags: HW
PickledData: "(dp1
."
LayerCount: 2
Fore
SplineSet
134 722 m 2
 134 690 151 674 159 674 c 0
 167 674 225 697 225 700 c 2
 225 754 l 2
 225 775 207 793 201 793 c 0
 196 793 134 770 134 767 c 2
 134 722 l 2
307 722 m 2
 307 690 324 674 332 674 c 0
 340 674 397 697 397 700 c 2
 397 754 l 2
 397 775 379 793 373 793 c 0
 368 793 307 770 307 767 c 2
 307 722 l 2
217 88 m 1
 208 85 198 83 191 83 c 0
 159 83 142 112 142 162 c 2
 142 586 l 2
 142 618 92 642 92 642 c 1
 1 591 l 1
 1 573 l 1
 22 569 42 556 42 519 c 2
 42 101 l 2
 42 64 77 0 112 0 c 0
 127 0 180 25 227 52 c 1
 240 25 264 0 287 0 c 0
 324 0 492 68 492 77 c 2
 492 519 l 2
 492 611 433 641 417 641 c 0
 416 641 319 593 317 591 c 1
 310 618 274 641 267 641 c 0
 266 641 176 591 176 591 c 1
 176 573 l 1
 176 573 217 570 217 519 c 2
 217 88 l 1
392 89 m 1
 392 89 375 82 359 82 c 0
 329 82 317 124 317 154 c 2
 317 562 l 1
 365 561 392 551 392 489 c 2
 392 89 l 1
EndSplineSet
EndChar
StartChar: wdieresis
Encoding: 7813 7813 265
Width: 641
VWidth: 0
Flags: HW
PickledData: "(dp1
."
LayerCount: 2
Fore
SplineSet
161 688 m 2
 161 649 181 630 191 630 c 0
 201 630 270 657 270 661 c 2
 270 726 l 2
 270 751 248 773 241 773 c 0
 235 773 161 746 161 742 c 2
 161 688 l 2
368 688 m 2
 368 649 388 630 398 630 c 0
 408 630 477 657 477 661 c 2
 477 726 l 2
 477 751 455 773 448 773 c 0
 442 773 368 746 368 742 c 2
 368 688 l 2
260 106 m 1
 249 102 238 100 229 100 c 0
 191 100 170 135 170 195 c 2
 170 504 l 2
 170 542 110 571 110 571 c 1
 1 510 l 1
 1 488 l 1
 26 483 50 468 50 423 c 2
 50 121 l 2
 50 77 93 0 135 0 c 0
 153 0 216 30 273 62 c 1
 289 30 317 0 345 0 c 0
 390 0 591 82 591 93 c 2
 591 423 l 2
 591 533 520 570 501 570 c 0
 500 570 383 511 380 509 c 1
 372 542 328 570 320 570 c 0
 319 570 211 510 211 510 c 1
 211 488 l 1
 211 488 260 484 260 423 c 2
 260 106 l 1
470 107 m 1
 470 107 450 98 431 98 c 0
 395 98 381 149 381 185 c 2
 381 475 l 1
 439 474 470 461 470 387 c 2
 470 107 l 1
EndSplineSet
EndChar
StartChar: Etilde
Encoding: 7868 7868 298
Width: 404
VWidth: 0
Flags: HW
PickledData: "(dp1
."
LayerCount: 2
Fore
SplineSet
50 152 m 2
 50 67 160 0 190 0 c 0
 217 0 335 55 348 55 c 1
 348 84 l 1
 170 84 170 128 170 250 c 2
 170 350 l 1
 261 350 l 1
 311 375 l 1
 311 399 l 1
 170 399 l 1
 170 663 l 1
 170 663 176 673 188 673 c 0
 217 673 233 510 263 510 c 0
 273 510 354 554 394 571 c 1
 394 591 l 1
 388 591 361 592 351 610 c 0
 323 658 311 770 296 770 c 0
 273 770 50 687 50 678 c 2
 50 152 l 2
307 922 m 1
 287 922 l 1
 281 907 255 897 227 897 c 0
 191 897 134 924 84 924 c 0
 47 924 16 884 16 884 c 1
 54 811 l 1
 75 811 l 1
 81 826 107 838 135 838 c 0
 188 838 228 809 278 809 c 0
 315 809 346 849 346 849 c 1
 307 922 l 1
EndSplineSet
EndChar
